<svg width="149" height="50" viewBox="0 0 149 50" fill="none" xmlns="http://www.w3.org/2000/svg">
<rect width="149" height="50" rx="25" fill="#0092FF"/>
<path d="M29.5469 21.6094C29.5469 24.125 31.1562 26.6562 33.1719 27.5781L32.4375 28.5781C30.8594 27.7656 29.5547 26.1016 28.9375 24.125C28.3203 26.2031 27.0156 27.9844 25.4375 28.8281L24.6406 27.8438C26.6719 26.8438 28.2969 24.1719 28.2969 21.6094V19.0781H29.5469V21.6094ZM36.1719 17.875V31.7969H34.9531V23.625H31.6562V22.625H34.9531V17.875H36.1719ZM49.9375 17.875V31.7969H48.7031V17.875H49.9375ZM40.5156 19.0625V22.7344H44.6562V19.0625H45.8594V28.4375H39.2969V19.0625H40.5156ZM40.5156 27.4062H44.6562V23.7188H40.5156V27.4062ZM59.2344 19.9219C59.2344 22.2969 61.9531 24.4219 64.375 24.875L63.8125 25.9062C61.7188 25.4219 59.5078 23.9297 58.6094 21.875C57.7109 23.9219 55.5078 25.4141 53.4062 25.9062L52.8438 24.875C55.25 24.4062 57.9531 22.3125 57.9531 19.9219V18.8594H59.2344V19.9219ZM65.0312 28.8594V29.875H52.3125V28.8594H65.0312ZM74.2188 22.1562C74.2188 24.3906 75.3594 26.6719 77.25 27.6875L76.5469 28.6094C75.1641 27.8594 74.1641 26.4219 73.6562 24.75C73.1562 26.5312 72.1641 28.0781 70.7812 28.9219L70.0469 27.9844C71.9375 26.8906 73.0469 24.4531 73.0625 22.1562V21.4688H70.4219V20.4531H73.0625V18.3906H74.2344V20.4531H76.8281V21.4688H74.2188V22.1562ZM82.0312 17.875V31.7656H80.8594V17.875H82.0312ZM79.2188 18.2188V31.0469H78.0625V24.4062H75.875V23.3594H78.0625V18.2188H79.2188ZM95.5 17.875V26.2969H94.2656V23.125H91.9062V22.1094H94.2656V17.875H95.5ZM95.5 27.0469V31.5781H86.4219V27.0469H95.5ZM87.6406 28.0312V30.5781H94.2969V28.0312H87.6406ZM92.1094 19.3438V20.3438H84V19.3438H87.4531V17.75H88.6562V19.3438H92.1094ZM88.0469 21.0625C89.9375 21.0625 91.2656 22.0781 91.2812 23.5312C91.2656 25.0312 89.9375 26.0156 88.0469 26.0156C86.1562 26.0156 84.8281 25.0312 84.8281 23.5312C84.8281 22.0781 86.1562 21.0625 88.0469 21.0625ZM88.0469 22.0156C86.8438 22.0156 86 22.6406 86 23.5312C86 24.4531 86.8438 25.0625 88.0469 25.0781C89.25 25.0625 90.0938 24.4531 90.0938 23.5312C90.0938 22.6406 89.25 22.0156 88.0469 22.0156ZM108.562 17.875V23.6094H110.891V24.625H108.562V31.7656H107.344V17.875H108.562ZM106 20.1094V21.125H97.7344V20.1094H101.312V18.0469H102.531V20.1094H106ZM101.938 22.2812C103.906 22.2812 105.328 23.5938 105.344 25.4688C105.328 27.3438 103.906 28.6562 101.938 28.6562C99.9531 28.6562 98.5156 27.3438 98.5312 25.4688C98.5156 23.5938 99.9531 22.2812 101.938 22.2812ZM101.938 23.3125C100.641 23.3125 99.6875 24.2188 99.7031 25.4688C99.6875 26.7344 100.641 27.625 101.938 27.6094C103.219 27.625 104.156 26.7344 104.172 25.4688C104.156 24.2188 103.219 23.3125 101.938 23.3125ZM123.125 17.875V31.7656H121.891V17.875H123.125ZM119.016 19.3906C119 23.3906 117.141 26.9219 112.484 29.1562L111.812 28.1562C115.57 26.375 117.484 23.7109 117.766 20.3906H112.453V19.3906H119.016Z" fill="white"/>
</svg>
