<svg width="1440" height="483" viewBox="0 0 1440 483" fill="none" xmlns="http://www.w3.org/2000/svg">
<rect width="1440" height="483" fill="white"/>
<path d="M91.5156 178.328V181.781H93.5469V183.031H91.5156V186.547H90.0312V178.328H91.5156ZM91.5156 187.297V192.344H90.0312V188.484H82.2656V187.297H91.5156ZM87.3906 179.312V180.516H82.6094V184.375C85.3359 184.367 86.875 184.281 88.625 183.922L88.7969 185.109C86.9062 185.5 85.25 185.578 82.25 185.578H81.1406V179.312H87.3906ZM105.376 178.328V192.359H103.907V184.719H101.126V183.5H103.907V178.328H105.376ZM100.891 179.578V180.781H95.8444V183.5H100.297V184.688H95.8444V187.812C98.1881 187.805 99.8131 187.75 101.672 187.422L101.829 188.625C99.7975 188.953 98.0319 189.031 95.4381 189.047H94.3444V179.578H100.891ZM108.892 179.281V181.406H111.595V179.281H112.97V181.922H114.689V178.625H116.095V186.578H114.689V183.156H112.97V185.844H107.486V179.281H108.892ZM108.892 184.656H111.595V182.562H108.892V184.656ZM118.829 178.328V187.844H117.423V178.328H118.829ZM114.829 187.703C114.829 189.375 116.923 190.781 119.579 191.109L119.032 192.266C116.829 191.953 114.962 190.961 114.095 189.531C113.212 190.961 111.345 191.953 109.142 192.266L108.611 191.109C111.236 190.781 113.345 189.375 113.345 187.703V187.281H114.829V187.703ZM132.846 185.641V186.828H120.08V185.641H132.846ZM131.408 190.828V192.031H121.689V187.969H123.189V190.828H131.408ZM126.455 178.797C129.486 178.781 131.455 179.844 131.455 181.594C131.455 183.359 129.486 184.422 126.455 184.438C123.408 184.422 121.455 183.359 121.455 181.594C121.455 179.844 123.408 178.781 126.455 178.797ZM126.455 179.984C124.314 179.984 122.971 180.594 122.986 181.594C122.971 182.625 124.314 183.219 126.455 183.219C128.596 183.219 129.924 182.625 129.924 181.594C129.924 180.594 128.596 179.984 126.455 179.984ZM149.316 185.141V186.328H136.534V185.141H142.206V183.656H138.128V178.969H147.737V180.141H139.597V182.469H147.831V183.656H143.644V185.141H149.316ZM142.909 187.234C145.925 187.234 147.737 188.156 147.737 189.781C147.737 191.406 145.925 192.312 142.909 192.328C139.878 192.312 138.05 191.406 138.05 189.781C138.05 188.156 139.878 187.234 142.909 187.234ZM142.909 188.391C140.769 188.391 139.55 188.891 139.55 189.781C139.55 190.672 140.769 191.172 142.909 191.156C145.019 191.172 146.253 190.672 146.253 189.781C146.253 188.891 145.019 188.391 142.909 188.391ZM162.488 184.125V185.312H156.832V186.531H160.879V189.812H152.723V191.047H161.269V192.188H151.269V188.734H159.41V187.672H151.254V186.531H155.348V185.312H149.723V184.125H162.488ZM160.848 178.781V183.094H151.363V178.781H160.848ZM152.816 179.953V181.922H159.363V179.953H152.816ZM171.364 181.25C171.364 183.062 172.708 184.766 174.864 185.453L174.099 186.609C172.489 186.078 171.271 184.977 170.646 183.578C170.013 185.102 168.771 186.305 167.099 186.891L166.333 185.719C168.505 184.984 169.849 183.172 169.864 181.25V180.641H166.724V179.438H174.442V180.641H171.364V181.25ZM177.786 178.344V188.562H176.302V178.344H177.786ZM178.208 190.828V192.031H168.63V187.594H170.13V190.828H178.208ZM192.177 189.406V190.656H179.365V189.406H182.865V186.938H180.927V182.484H189.146V180.531H180.896V179.312H190.615V183.688H182.396V185.719H190.943V186.938H188.818V189.406H192.177ZM184.302 189.406H187.365V186.938H184.302V189.406ZM207.491 178.344V186.625H206.007V184.922H202.476V183.703H206.007V182H202.616C201.718 184.25 199.616 185.836 196.585 186.703L195.991 185.547C199.304 184.594 201.241 182.82 201.507 180.562H196.71V179.344H203.116C203.116 179.859 203.062 180.359 202.976 180.828H206.007V178.344H207.491ZM202.882 186.781C205.71 186.781 207.569 187.812 207.585 189.516C207.569 191.219 205.71 192.266 202.882 192.266C200.007 192.266 198.163 191.219 198.163 189.516C198.163 187.812 200.007 186.781 202.882 186.781ZM202.882 187.953C200.882 187.953 199.632 188.516 199.632 189.516C199.632 190.5 200.882 191.078 202.882 191.078C204.851 191.078 206.085 190.5 206.101 189.516C206.085 188.516 204.851 187.953 202.882 187.953ZM220.679 178.328V186.812H219.195V183.766H217.008V182.531H219.195V178.328H220.679ZM220.679 187.5V192.156H211.445V187.5H220.679ZM212.914 188.672V190.953H219.226V188.672H212.914ZM217.226 179.719V180.906H209.023V179.719H212.398V178.203H213.867V179.719H217.226ZM213.133 181.547C215.054 181.547 216.414 182.578 216.414 184.047C216.414 185.562 215.054 186.547 213.133 186.562C211.211 186.547 209.836 185.562 209.836 184.047C209.836 182.578 211.211 181.547 213.133 181.547ZM213.133 182.688C212.008 182.672 211.258 183.219 211.258 184.047C211.258 184.906 212.008 185.438 213.133 185.438C214.242 185.438 214.992 184.906 214.992 184.047C214.992 183.219 214.242 182.672 213.133 182.688ZM228.571 178.562C231.727 178.562 233.571 179.406 233.571 180.969C233.571 182.531 231.727 183.391 228.571 183.391C225.414 183.391 223.571 182.531 223.571 180.969C223.571 179.406 225.414 178.562 228.571 178.562ZM228.571 179.656C226.336 179.656 225.102 180.141 225.117 180.969C225.102 181.828 226.336 182.281 228.571 182.281C230.805 182.281 232.039 181.828 232.039 180.969C232.039 180.141 230.805 179.656 228.571 179.656ZM234.961 184.25V185.438H222.196V184.25H234.961ZM233.352 186.516V189.797H225.196V191.047H233.742V192.188H223.742V188.719H231.883V187.625H223.727V186.516H233.352ZM249.556 178.328V183.75H251.806V185H249.556V192.328H248.072V178.328H249.556ZM240.65 179.5V183.094H244.353V179.5H245.822V189H239.181V179.5H240.65ZM240.65 187.781H244.353V184.266H240.65V187.781ZM262.838 178.328V181.859H264.869V183.078H262.838V186.906H261.354V178.328H262.838ZM258.338 187.219C261.229 187.219 262.994 188.156 262.994 189.766C262.994 191.375 261.229 192.312 258.338 192.297C255.432 192.312 253.635 191.375 253.635 189.766C253.635 188.156 255.432 187.219 258.338 187.219ZM258.338 188.375C256.291 188.375 255.119 188.891 255.119 189.766C255.119 190.656 256.291 191.172 258.338 191.156C260.338 191.172 261.526 190.656 261.526 189.766C261.526 188.891 260.338 188.375 258.338 188.375ZM258.947 179.281V180.469H253.932V182.047H258.682V183.219H253.932V184.828C256.502 184.836 258.033 184.766 259.822 184.453L259.979 185.641C258.057 185.984 256.416 186.031 253.541 186.031H252.447V179.281H258.947ZM271.401 179.172C274.339 179.172 276.573 180.719 276.573 183.078C276.573 185.438 274.339 187 271.401 186.984C268.464 187 266.245 185.438 266.245 183.078C266.245 180.719 268.464 179.172 271.401 179.172ZM271.401 180.375C269.261 180.359 267.651 181.453 267.667 183.078C267.651 184.719 269.261 185.766 271.401 185.766C273.542 185.766 275.136 184.719 275.136 183.078C275.136 181.453 273.542 180.359 271.401 180.375ZM277.839 189.281V190.516H265.026V189.281H277.839ZM291.027 189.406V190.656H278.214V189.406H283.855V186.953H279.777V182.5H287.996V180.531H279.746V179.312H289.464V183.688H281.246V185.734H289.792V186.953H285.324V189.406H291.027ZM300.091 185.766V188.188C301.372 188.117 302.669 188.008 303.887 187.828L303.997 188.922C300.825 189.5 297.434 189.531 294.934 189.531L294.747 188.312C295.872 188.305 297.2 188.297 298.606 188.25V185.766H300.091ZM303.231 180.109V181.312H300.091C300.169 182.953 301.497 184.375 303.591 184.938L302.903 186.094C301.231 185.617 299.981 184.602 299.356 183.266C298.739 184.672 297.512 185.734 295.825 186.219L295.122 185.094C297.208 184.5 298.52 183.031 298.591 181.312H295.497V180.109H298.606V178.438H300.091V180.109H303.231ZM306.247 178.328V192.359H304.762V178.328H306.247ZM319.185 179.672V181.047C319.185 182.781 319.185 184.719 318.654 187.578L317.154 187.422C317.701 184.719 317.701 182.734 317.701 181.047V180.875H309.201V179.672H319.185ZM320.622 189.203V190.438H307.857V189.203H312.716V184.266H314.185V189.203H320.622ZM325.607 179.328C327.826 179.312 329.404 180.688 329.42 182.656C329.404 184.625 327.826 186 325.607 186C323.404 186 321.779 184.625 321.795 182.656C321.779 180.688 323.404 179.312 325.607 179.328ZM325.607 180.609C324.248 180.609 323.248 181.422 323.264 182.656C323.248 183.891 324.248 184.703 325.607 184.703C326.967 184.703 327.967 183.891 327.967 182.656C327.967 181.422 326.967 180.609 325.607 180.609ZM332.623 178.328V192.359H331.139V178.328H332.623ZM321.123 188.109C323.67 188.109 327.201 188.078 330.264 187.641L330.373 188.719C327.201 189.328 323.811 189.344 321.311 189.344L321.123 188.109ZM342.062 179.328C344.281 179.312 345.859 180.688 345.874 182.656C345.859 184.625 344.281 186 342.062 186C339.859 186 338.234 184.625 338.249 182.656C338.234 180.688 339.859 179.312 342.062 179.328ZM342.062 180.609C340.703 180.609 339.703 181.422 339.718 182.656C339.703 183.891 340.703 184.703 342.062 184.703C343.421 184.703 344.421 183.891 344.421 182.656C344.421 181.422 343.421 180.609 342.062 180.609ZM349.078 178.328V192.359H347.593V178.328H349.078ZM337.578 188.109C340.124 188.109 343.656 188.078 346.718 187.641L346.828 188.719C343.656 189.328 340.265 189.344 337.765 189.344L337.578 188.109ZM363.5 189.406V190.656H350.688V189.406H354.188V186.938H352.25V182.484H360.469V180.531H352.219V179.312H361.938V183.688H353.719V185.719H362.266V186.938H360.141V189.406H363.5ZM355.625 189.406H358.688V186.938H355.625V189.406ZM369.063 181.25C369.063 183.062 370.407 184.766 372.563 185.453L371.797 186.609C370.188 186.078 368.969 184.977 368.344 183.578C367.712 185.102 366.469 186.305 364.797 186.891L364.032 185.719C366.204 184.984 367.547 183.172 367.563 181.25V180.641H364.422V179.438H372.141V180.641H369.063V181.25ZM375.485 178.344V188.562H374.001V178.344H375.485ZM375.907 190.828V192.031H366.329V187.594H367.829V190.828H375.907ZM389.845 184.062V185.25H377.064V184.062H389.845ZM388.329 181.859V183.047H378.736V178.734H388.189V179.938H380.22V181.859H388.329ZM388.22 186.359V189.75H380.064V191H388.611V192.172H378.611V188.656H386.751V187.5H378.595V186.359H388.22ZM394.814 179.328C397.033 179.312 398.611 180.688 398.627 182.656C398.611 184.625 397.033 186 394.814 186C392.611 186 390.986 184.625 391.002 182.656C390.986 180.688 392.611 179.312 394.814 179.328ZM394.814 180.609C393.455 180.609 392.455 181.422 392.471 182.656C392.455 183.891 393.455 184.703 394.814 184.703C396.174 184.703 397.174 183.891 397.174 182.656C397.174 181.422 396.174 180.609 394.814 180.609ZM401.83 178.328V192.359H400.346V178.328H401.83ZM390.33 188.109C392.877 188.109 396.408 188.078 399.471 187.641L399.58 188.719C396.408 189.328 393.017 189.344 390.517 189.344L390.33 188.109ZM410.581 178.969C412.425 178.953 413.847 180.023 414.159 181.594H416.894V178.328H418.378V185.844H416.894V182.812H414.175C413.87 184.422 412.441 185.5 410.581 185.5C408.441 185.5 406.909 184.156 406.909 182.219C406.909 180.312 408.441 178.953 410.581 178.969ZM410.581 180.203C409.253 180.203 408.331 181.016 408.331 182.219C408.331 183.422 409.253 184.25 410.581 184.25C411.878 184.25 412.8 183.422 412.8 182.219C412.8 181.016 411.878 180.203 410.581 180.203ZM410.722 186.516V188.141H416.894V186.516H418.378V192.156H409.253V186.516H410.722ZM410.722 190.938H416.894V189.312H410.722V190.938ZM432.691 186.359V187.562H426.973V192.312H425.519V187.562H419.879V186.359H432.691ZM431.082 179.078V184.578H421.488V179.078H431.082ZM422.941 180.266V183.422H429.598V180.266H422.941ZM447.364 178.328V183.125H449.364V184.359H447.364V189.266H445.88V178.328H447.364ZM447.864 190.828V192.031H438.318V188.531H439.802V190.828H447.864ZM436.255 186.547C437.333 186.547 438.591 186.539 439.911 186.484V185.516C438.318 185.344 437.302 184.57 437.318 183.422C437.302 182.062 438.63 181.25 440.646 181.266C442.646 181.25 443.974 182.062 443.974 183.422C443.974 184.562 442.974 185.336 441.396 185.516V186.422C442.646 186.352 443.911 186.242 445.083 186.062L445.208 187.109C442.224 187.672 438.849 187.719 436.411 187.734L436.255 186.547ZM444.693 179.625V180.719H436.614V179.625H439.911V178.281H441.396V179.625H444.693ZM440.646 182.281C439.443 182.281 438.724 182.703 438.724 183.422C438.724 184.109 439.443 184.531 440.646 184.531C441.833 184.531 442.552 184.109 442.552 183.422C442.552 182.703 441.833 182.281 440.646 182.281ZM461.209 178.344V186.625H459.724V184.922H456.193V183.703H459.724V182H456.334C455.435 184.25 453.334 185.836 450.302 186.703L449.709 185.547C453.021 184.594 454.959 182.82 455.224 180.562H450.427V179.344H456.834C456.834 179.859 456.779 180.359 456.693 180.828H459.724V178.344H461.209ZM456.599 186.781C459.427 186.781 461.287 187.812 461.302 189.516C461.287 191.219 459.427 192.266 456.599 192.266C453.724 192.266 451.881 191.219 451.881 189.516C451.881 187.812 453.724 186.781 456.599 186.781ZM456.599 187.953C454.599 187.953 453.349 188.516 453.349 189.516C453.349 190.5 454.599 191.078 456.599 191.078C458.568 191.078 459.802 190.5 459.818 189.516C459.802 188.516 458.568 187.953 456.599 187.953ZM469.1 178.562C472.256 178.562 474.1 179.406 474.1 180.969C474.1 182.531 472.256 183.391 469.1 183.391C465.944 183.391 464.1 182.531 464.1 180.969C464.1 179.406 465.944 178.562 469.1 178.562ZM469.1 179.656C466.866 179.656 465.631 180.141 465.647 180.969C465.631 181.828 466.866 182.281 469.1 182.281C471.334 182.281 472.569 181.828 472.569 180.969C472.569 180.141 471.334 179.656 469.1 179.656ZM475.491 184.25V185.438H462.725V184.25H475.491ZM473.881 186.516V189.797H465.725V191.047H474.272V192.188H464.272V188.719H472.413V187.625H464.256V186.516H473.881ZM491.164 178.328V192.328H489.742V185.062H488.008V191.656H486.617V178.703H488.008V183.859H489.742V178.328H491.164ZM485.226 180.109C485.211 183.797 483.992 187.094 479.992 189.359L479.133 188.328C482.242 186.57 483.554 184.188 483.789 181.328H479.726V180.109H485.226ZM497.305 180.891C497.305 182.781 498.571 184.625 500.68 185.359L499.867 186.516C498.336 185.93 497.196 184.773 496.602 183.312C495.992 184.938 494.797 186.219 493.149 186.844L492.352 185.672C494.524 184.891 495.821 182.953 495.836 180.844V179.188H497.305V180.891ZM504.039 178.344V188.781H502.555V182.75H499.602V181.531H502.555V178.344H504.039ZM504.352 190.828V192.031H494.899V187.609H496.399V190.828H504.352ZM516.462 178.328V184H518.712V185.234H516.462V192.328H514.993V178.328H516.462ZM513.774 180.516V181.734H505.478V180.516H508.931V178.516H510.415V180.516H513.774ZM509.681 182.766C511.681 182.766 513.149 184.109 513.165 186.016C513.149 187.938 511.681 189.266 509.681 189.281C507.665 189.266 506.196 187.938 506.196 186.016C506.196 184.109 507.665 182.766 509.681 182.766ZM509.681 183.984C508.493 183.984 507.603 184.812 507.618 186.016C507.603 187.234 508.493 188.047 509.681 188.031C510.868 188.047 511.743 187.234 511.743 186.016C511.743 184.812 510.868 183.984 509.681 183.984ZM530.384 178.328V192.328H528.884V178.328H530.384ZM526.212 179.828C526.212 183.922 524.462 187.484 519.666 189.781L518.884 188.578C522.611 186.805 524.423 184.281 524.712 181.016H519.556V179.828H526.212ZM539.792 178.969C541.901 178.969 543.432 180.141 543.432 181.875C543.432 183.594 541.901 184.781 539.792 184.766C537.682 184.781 536.182 183.594 536.182 181.875C536.182 180.141 537.682 178.969 539.792 178.969ZM539.792 180.172C538.526 180.172 537.604 180.844 537.62 181.875C537.604 182.891 538.526 183.562 539.792 183.547C541.089 183.562 542.011 182.891 542.011 181.875C542.011 180.844 541.089 180.172 539.792 180.172ZM546.839 178.344V192.328H545.37V178.344H546.839ZM535.182 185.859C537.761 185.859 541.339 185.797 544.401 185.344L544.511 186.453C543.237 186.695 541.909 186.844 540.62 186.938V191.891H539.136V187.016C537.776 187.078 536.495 187.086 535.386 187.094L535.182 185.859ZM559.386 178.344V182.844H561.418V184.078H559.386V188.812H557.902V178.344H559.386ZM556.746 179.969V181.172H548.402V179.969H551.839V178.328H553.324V179.969H556.746ZM552.574 181.844C554.589 181.844 555.964 182.891 555.964 184.484C555.964 186.078 554.589 187.109 552.574 187.109C550.543 187.109 549.168 186.078 549.168 184.484C549.168 182.891 550.543 181.844 552.574 181.844ZM552.574 182.984C551.386 182.984 550.589 183.562 550.605 184.484C550.589 185.391 551.386 185.953 552.574 185.953C553.761 185.953 554.558 185.391 554.574 184.484C554.558 183.562 553.761 182.984 552.574 182.984ZM559.98 190.828V192.031H550.511V187.984H551.996V190.828H559.98ZM576.028 178.953V180.062C576.028 181.148 576.028 182.375 575.716 183.953H577.591V185.156H564.856V183.953H574.231C574.348 183.375 574.427 182.852 574.481 182.359L566.278 182.703L566.091 181.547L574.544 181.312C574.559 180.898 574.559 180.516 574.559 180.141H566.45V178.953H576.028ZM576.122 186.328V189.719H567.825V190.984H576.622V192.156H566.341V188.609H574.653V187.469H566.309V186.328H576.122ZM588.935 178.328V183.797H591.185V185.047H588.935V192.359H587.466V178.328H588.935ZM584.982 179.594V184.734H580.076V187.766C582.482 187.758 584.263 187.672 586.31 187.297L586.451 188.5C584.263 188.906 582.372 189 579.747 189.016H578.607V183.531H583.513V180.797H578.576V179.594H584.982ZM604.014 186.281V187.516H598.295V192.328H596.842V187.516H591.201V186.281H604.014ZM597.576 178.859C600.529 178.859 602.561 180.062 602.561 181.969C602.561 183.859 600.529 185.047 597.576 185.047C594.608 185.047 592.592 183.859 592.592 181.969C592.592 180.062 594.608 178.859 597.576 178.859ZM597.576 180.047C595.498 180.062 594.108 180.781 594.123 181.969C594.108 183.141 595.498 183.859 597.576 183.859C599.654 183.859 601.045 183.141 601.045 181.969C601.045 180.781 599.654 180.062 597.576 180.047ZM615.749 184.969V186.188H605.999V179.578H615.624V180.797H607.468V184.969H615.749ZM617.218 189.25V190.484H604.405V189.25H617.218ZM625.906 181.891C625.906 184.453 627.344 187 629.484 187.969L628.578 189.156C626.984 188.359 625.789 186.773 625.172 184.859C624.555 186.875 623.328 188.578 621.719 189.422L620.781 188.219C622.953 187.188 624.406 184.484 624.406 181.891V179.5H625.906V181.891ZM632.531 178.328V192.359H631.062V184.188H627.938V182.984H631.062V178.328H632.531ZM645.641 178.328V192.359H644.157V178.328H645.641ZM636.313 179.5V183.094H640.079V179.5H641.547V189H634.829V179.5H636.313ZM636.313 187.781H640.079V184.266H636.313V187.781ZM654.345 180.312C654.345 182.594 656.782 184.75 659.47 185.234L658.782 186.469C656.548 185.984 654.486 184.516 653.579 182.547C652.657 184.5 650.603 185.969 648.361 186.469L647.704 185.234C650.361 184.734 652.782 182.594 652.782 180.312V179.25H654.345V180.312ZM660.048 189.25V190.484H647.236V189.25H660.048ZM672.033 178.328V185.844H670.549V178.328H672.033ZM664.33 186.516V188.094H670.564V186.516H672.033V192.156H662.877V186.516H664.33ZM664.33 190.938H670.564V189.266H664.33V190.938ZM664.439 178.969C666.58 178.969 668.158 180.297 668.158 182.219C668.158 184.141 666.58 185.469 664.439 185.453C662.299 185.469 660.705 184.141 660.705 182.219C660.705 180.297 662.299 178.969 664.439 178.969ZM664.439 180.219C663.111 180.203 662.158 181.031 662.158 182.219C662.158 183.422 663.111 184.234 664.439 184.234C665.752 184.234 666.705 183.422 666.705 182.219C666.705 181.031 665.752 180.203 664.439 180.219ZM685.237 178.328V192.328H683.753V178.328H685.237ZM675.94 179.688V187.484C677.979 187.469 680.128 187.305 682.378 186.844L682.581 188.094C680.096 188.594 677.846 188.766 675.643 188.766H674.471V179.688H675.94ZM697.706 178.328V183.75H699.956V184.969H697.706V192.359H696.222V178.328H697.706ZM693.941 179.672V180.875H688.878V187.641C691.23 187.633 692.995 187.531 694.987 187.172L695.175 188.422C692.987 188.812 691.128 188.891 688.519 188.875H687.394V179.672H693.941ZM701.582 191.109C700.972 191.109 700.457 190.609 700.472 190C700.457 189.391 700.972 188.891 701.582 188.891C702.176 188.891 702.691 189.391 702.691 190C702.691 190.609 702.176 191.109 701.582 191.109ZM87.6875 203.562C87.6719 205.422 89.9531 207.172 92.7031 207.531L92.125 208.75C89.8359 208.383 87.8203 207.195 86.9219 205.547C86 207.203 83.9922 208.383 81.7188 208.75L81.125 207.531C83.875 207.172 86.125 205.438 86.1406 203.562V202.797H87.6875V203.562ZM93.2812 210.125V211.344H87.5938V216.328H86.1406V211.344H80.5156V210.125H93.2812ZM98.2662 203.328C100.485 203.312 102.063 204.688 102.079 206.656C102.063 208.625 100.485 210 98.2662 210C96.0631 210 94.4381 208.625 94.4537 206.656C94.4381 204.688 96.0631 203.312 98.2662 203.328ZM98.2662 204.609C96.9069 204.609 95.9069 205.422 95.9225 206.656C95.9069 207.891 96.9069 208.703 98.2662 208.703C99.6256 208.703 100.626 207.891 100.626 206.656C100.626 205.422 99.6256 204.609 98.2662 204.609ZM105.282 202.328V216.359H103.797V202.328H105.282ZM93.7819 212.109C96.3287 212.109 99.86 212.078 102.922 211.641L103.032 212.719C99.86 213.328 96.4694 213.344 93.9694 213.344L93.7819 212.109ZM111.751 205.891C111.736 208.375 113.173 210.906 115.267 211.922L114.345 213.109C112.822 212.32 111.642 210.75 111.032 208.875C110.4 210.875 109.173 212.547 107.579 213.375L106.657 212.172C108.814 211.141 110.267 208.453 110.267 205.891V203.5H111.751V205.891ZM117.798 202.328V207.906H120.048V209.172H117.798V216.328H116.314V202.328H117.798ZM124.283 203.219C126.439 203.219 128.049 204.578 128.049 206.547C128.049 208.281 126.799 209.539 125.033 209.812V212.031C126.275 211.977 127.518 211.883 128.674 211.734L128.783 212.844C125.83 213.359 122.564 213.375 120.143 213.359L119.908 212.141C120.994 212.133 122.244 212.125 123.549 212.094V209.812C121.736 209.555 120.502 208.289 120.518 206.547C120.502 204.578 122.08 203.219 124.283 203.219ZM124.283 204.469C122.939 204.484 121.955 205.297 121.955 206.547C121.955 207.797 122.939 208.625 124.283 208.609C125.611 208.625 126.58 207.797 126.596 206.547C126.58 205.297 125.611 204.484 124.283 204.469ZM131.002 202.328V208.016H133.158V209.266H131.002V216.328H129.518V202.328H131.002ZM149.316 209.141V210.328H136.534V209.141H142.206V207.656H138.128V202.969H147.737V204.141H139.597V206.469H147.831V207.656H143.644V209.141H149.316ZM142.909 211.234C145.925 211.234 147.737 212.156 147.737 213.781C147.737 215.406 145.925 216.312 142.909 216.328C139.878 216.312 138.05 215.406 138.05 213.781C138.05 212.156 139.878 211.234 142.909 211.234ZM142.909 212.391C140.769 212.391 139.55 212.891 139.55 213.781C139.55 214.672 140.769 215.172 142.909 215.156C145.019 215.172 146.253 214.672 146.253 213.781C146.253 212.891 145.019 212.391 142.909 212.391ZM162.488 208.125V209.312H156.832V210.531H160.879V213.812H152.723V215.047H161.269V216.188H151.269V212.734H159.41V211.672H151.254V210.531H155.348V209.312H149.723V208.125H162.488ZM160.848 202.781V207.094H151.363V202.781H160.848ZM152.816 203.953V205.922H159.363V203.953H152.816ZM177.771 202.328V216.328H176.286V202.328H177.771ZM171.442 206.828C171.442 209.062 172.927 211.344 175.099 212.266L174.286 213.406C172.677 212.703 171.388 211.25 170.739 209.484C170.107 211.352 168.841 212.906 167.208 213.641L166.38 212.5C168.552 211.531 169.989 209.172 169.989 206.828V205.906H166.802V204.719H169.974V202.609H171.442V204.719H174.583V205.906H171.442V206.828ZM192.177 213.406V214.656H179.365V213.406H182.865V210.938H180.927V206.484H189.146V204.531H180.896V203.312H190.615V207.688H182.396V209.719H190.943V210.938H188.818V213.406H192.177ZM184.302 213.406H187.365V210.938H184.302V213.406ZM204.6 202.328V216.328H203.178V202.328H204.6ZM201.756 202.594V215.641H200.334V208.891H198.756C198.631 211.625 197.459 213.328 195.725 213.312C193.897 213.328 192.709 211.406 192.709 208.375C192.709 205.344 193.897 203.438 195.725 203.453C197.428 203.438 198.584 205.055 198.756 207.688H200.334V202.594H201.756ZM195.725 204.844C194.709 204.844 194.084 206.141 194.084 208.375C194.084 210.609 194.709 211.906 195.725 211.906C196.756 211.906 197.397 210.609 197.397 208.375C197.397 206.141 196.756 204.844 195.725 204.844ZM220.679 202.344V213.016H219.195V210.125H216.945V208.938H219.195V207.203H216.945V205.984H219.195V202.344H220.679ZM216.898 203.969V205.172H209.023V203.969H212.304V202.328H213.773V203.969H216.898ZM213.023 205.844C214.914 205.844 216.242 206.938 216.258 208.531C216.242 210.141 214.914 211.234 213.023 211.234C211.133 211.234 209.804 210.141 209.804 208.531C209.804 206.938 211.133 205.844 213.023 205.844ZM213.023 207C211.929 207.016 211.195 207.609 211.195 208.531C211.195 209.484 211.929 210.078 213.023 210.078C214.101 210.078 214.851 209.484 214.867 208.531C214.851 207.609 214.101 207.016 213.023 207ZM220.992 214.828V216.031H211.539V212.078H213.039V214.828H220.992ZM234.211 202.328V216.328H232.789V209.094H230.977V215.609H229.617V202.609H230.977V207.875H232.789V202.328H234.211ZM227.914 204.016V205.219H224.149V211.703C225.867 211.688 227.164 211.609 228.664 211.328L228.774 212.547C227.086 212.891 225.649 212.953 223.602 212.969H222.664V204.016H227.914ZM240.399 204.812C240.399 206.578 241.665 208.312 243.774 209.031L243.009 210.188C241.438 209.641 240.274 208.523 239.665 207.141C239.056 208.68 237.829 209.914 236.165 210.5L235.399 209.328C237.556 208.594 238.884 206.719 238.884 204.828V204.438H235.852V203.234H243.399V204.438H240.399V204.812ZM247.056 211.406V216.328H245.571V212.609H237.571V211.406H247.056ZM247.056 202.328V210.703H245.571V207.109H242.977V205.891H245.571V202.328H247.056ZM260.166 202.328V216.359H258.681V202.328H260.166ZM252.681 203.375C254.759 203.375 256.291 205.281 256.291 208.281C256.291 211.297 254.759 213.203 252.681 213.203C250.572 213.203 249.056 211.297 249.056 208.281C249.056 205.281 250.572 203.375 252.681 203.375ZM252.681 204.703C251.384 204.703 250.494 206.078 250.494 208.281C250.494 210.5 251.384 211.875 252.681 211.875C253.962 211.875 254.853 210.5 254.853 208.281C254.853 206.078 253.962 204.703 252.681 204.703ZM273.088 203.672V205.047C273.088 206.781 273.088 208.719 272.557 211.578L271.057 211.422C271.604 208.719 271.604 206.734 271.604 205.047V204.875H263.104V203.672H273.088ZM274.526 213.203V214.438H261.76V213.203H266.619V208.266H268.088V213.203H274.526ZM290.339 204.312V205.516H278.824V204.312H283.855V202.531H285.324V204.312H290.339ZM291.027 213.578V214.781H278.214V213.578H281.496V211.078C280.48 210.633 279.917 209.914 279.917 208.969C279.917 207.297 281.699 206.312 284.589 206.328C287.464 206.312 289.246 207.297 289.246 208.969C289.246 209.914 288.675 210.633 287.667 211.078V213.578H291.027ZM284.589 207.469C282.589 207.469 281.417 208.016 281.433 208.969C281.417 209.906 282.589 210.453 284.589 210.453C286.558 210.453 287.73 209.906 287.73 208.969C287.73 208.016 286.558 207.469 284.589 207.469ZM282.98 213.578H286.214V211.484C285.722 211.57 285.175 211.609 284.589 211.609C284.003 211.609 283.464 211.57 282.98 211.484V213.578ZM297.777 202.484C300.934 202.484 302.777 203.344 302.777 204.891C302.777 206.453 300.934 207.312 297.777 207.312C294.621 207.312 292.777 206.453 292.777 204.891C292.777 203.344 294.621 202.484 297.777 202.484ZM297.777 203.594C295.543 203.609 294.309 204.062 294.324 204.891C294.309 205.766 295.543 206.203 297.777 206.203C300.012 206.203 301.246 205.766 301.246 204.891C301.246 204.062 300.012 203.609 297.777 203.594ZM304.168 208.078V209.266H300.731V210.516H302.559V213.797H294.402V215.047H302.949V216.188H292.949V212.719H301.09V211.625H292.934V210.516H294.793V209.266H291.402V208.078H304.168ZM296.262 210.516H299.246V209.266H296.262V210.516ZM309.606 204.812C309.606 206.578 310.872 208.312 312.981 209.031L312.216 210.188C310.645 209.641 309.481 208.523 308.872 207.141C308.262 208.68 307.036 209.914 305.372 210.5L304.606 209.328C306.762 208.594 308.091 206.719 308.091 204.828V204.438H305.059V203.234H312.606V204.438H309.606V204.812ZM316.262 211.406V216.328H314.778V212.609H306.778V211.406H316.262ZM316.262 202.328V210.703H314.778V207.109H312.184V205.891H314.778V202.328H316.262ZM329.388 202.344V212.516H327.904V202.344H329.388ZM329.81 214.828V216.031H320.232V211.484H321.732V214.828H329.81ZM321.794 203.281C323.904 203.281 325.513 204.719 325.513 206.75C325.513 208.812 323.904 210.234 321.794 210.234C319.685 210.234 318.06 208.812 318.06 206.75C318.06 204.719 319.685 203.281 321.794 203.281ZM321.794 204.578C320.482 204.578 319.513 205.469 319.513 206.75C319.513 208.062 320.482 208.938 321.794 208.938C323.076 208.938 324.06 208.062 324.06 206.75C324.06 205.469 323.076 204.578 321.794 204.578ZM347.046 213.328V214.547H334.233V213.328H339.842V210H341.311V213.328H347.046ZM341.342 204.281C341.342 206.5 343.78 208.578 346.483 209.031L345.842 210.25C343.577 209.797 341.491 208.398 340.561 206.469C339.639 208.391 337.577 209.812 335.327 210.25L334.671 209.031C337.358 208.578 339.78 206.5 339.78 204.281V203.219H341.342V204.281ZM360.234 213.328V214.578H347.421V213.328H360.234ZM359.062 203.672V204.891H356.921V209.562H359.015V210.75H348.546V209.562H350.64V204.891H348.515V203.672H359.062ZM352.109 209.562H355.468V204.891H352.109V209.562ZM371.969 209.781V210.969H362.219V203.484H371.828V204.688H363.719V206.578H371.531V207.75H363.719V209.781H371.969ZM373.422 213.344V214.562H360.609V213.344H373.422ZM377.344 203.188C379.126 203.188 380.422 204.25 380.422 205.797C380.422 207.344 379.126 208.406 377.344 208.391C375.547 208.406 374.251 207.344 374.266 205.797C374.251 204.25 375.547 203.188 377.344 203.188ZM377.344 204.312C376.297 204.297 375.579 204.906 375.579 205.797C375.579 206.688 376.297 207.281 377.344 207.297C378.376 207.281 379.094 206.688 379.094 205.797C379.094 204.906 378.376 204.297 377.344 204.312ZM385.844 202.328V216.328H384.438V202.328H385.844ZM383.126 202.609V215.609H381.719V212.594H379.219V211.438H381.719V202.609H383.126ZM373.61 209.375C375.532 209.375 378.61 209.359 380.891 209L381.001 210.109C380.055 210.297 379.016 210.414 377.985 210.484V215.188H376.579V210.562C375.54 210.602 374.571 210.609 373.782 210.609L373.61 209.375ZM390.783 203.375C392.681 203.375 394.072 204.984 394.298 207.578H397.189V202.328H398.658V216.359H397.189V208.781H394.314C394.15 211.508 392.728 213.203 390.783 213.203C388.689 213.203 387.22 211.297 387.236 208.281C387.22 205.281 388.689 203.375 390.783 203.375ZM390.783 204.703C389.517 204.703 388.642 206.078 388.642 208.281C388.642 210.5 389.517 211.875 390.783 211.875C392.048 211.875 392.923 210.5 392.923 208.281C392.923 206.078 392.048 204.703 390.783 204.703ZM415.081 202.328V216.328H413.581V202.328H415.081ZM410.909 203.828C410.909 207.922 409.159 211.484 404.362 213.781L403.581 212.578C407.307 210.805 409.12 208.281 409.409 205.016H404.253V203.828H410.909ZM423.769 202.859C423.769 204.469 425.987 205.812 428.722 206.125L428.206 207.25C425.909 206.977 423.902 206.008 423.003 204.578C422.097 206.008 420.089 206.977 417.816 207.25L417.3 206.125C420.034 205.812 422.253 204.469 422.253 202.859V202.391H423.769V202.859ZM429.394 208.062V209.25H423.737V210.5H427.784V213.812H419.628V215.047H428.175V216.188H418.175V212.734H426.316V211.641H418.159V210.5H422.253V209.25H416.628V208.062H429.394ZM442.629 213.406V214.656H429.816V213.406H435.457V210.953H431.379V206.5H439.598V204.531H431.348V203.312H441.066V207.688H432.848V209.734H441.394V210.953H436.926V213.406H442.629ZM459.068 210.281V211.516H453.349V216.328H451.896V211.516H446.255V210.281H459.068ZM452.63 202.859C455.583 202.859 457.614 204.062 457.614 205.969C457.614 207.859 455.583 209.047 452.63 209.047C449.661 209.047 447.646 207.859 447.646 205.969C447.646 204.062 449.661 202.859 452.63 202.859ZM452.63 204.047C450.552 204.062 449.161 204.781 449.177 205.969C449.161 207.141 450.552 207.859 452.63 207.859C454.708 207.859 456.099 207.141 456.099 205.969C456.099 204.781 454.708 204.062 452.63 204.047ZM471.084 202.328V216.359H469.599V202.328H471.084ZM466.802 203.594V208.703H461.771V211.766C464.037 211.758 466.021 211.656 468.365 211.266L468.506 212.484C466.021 212.906 463.912 213 461.443 213H460.256V207.516H465.287V204.797H460.24V203.594H466.802ZM477.209 203.328C479.428 203.312 481.006 204.688 481.022 206.656C481.006 208.625 479.428 210 477.209 210C475.006 210 473.381 208.625 473.397 206.656C473.381 204.688 475.006 203.312 477.209 203.328ZM477.209 204.609C475.85 204.609 474.85 205.422 474.866 206.656C474.85 207.891 475.85 208.703 477.209 208.703C478.569 208.703 479.569 207.891 479.569 206.656C479.569 205.422 478.569 204.609 477.209 204.609ZM484.225 202.328V216.359H482.741V202.328H484.225ZM472.725 212.109C475.272 212.109 478.803 212.078 481.866 211.641L481.975 212.719C478.803 213.328 475.413 213.344 472.913 213.344L472.725 212.109ZM500.242 202.906V207.703H496.211V209.328H501.867V210.531H489.101V209.328H494.742V207.703H490.726V202.906H500.242ZM492.179 204.078V206.516H498.773V204.078H492.179ZM500.304 211.859V216.328H498.804V213.031H490.523V211.859H500.304ZM515.102 213.453V214.672H502.289V213.453H505.727V210.344H503.414V209.141H505.508V204.781H503.383V203.562H513.93V204.781H511.789V209.141H513.883V210.344H511.586V213.453H515.102ZM506.977 209.141H510.336V204.781H506.977V209.141ZM507.211 213.453H510.102V210.344H507.211V213.453ZM526.806 206.422V207.609H517.165V202.828H518.634V206.422H526.806ZM528.274 209.375V210.562H515.462V209.375H528.274ZM526.899 214.781V216H517.056V211.891H518.54V214.781H526.899ZM544.698 209.469V210.672H531.932V209.469H537.573V207.953H533.604V202.656H535.073V204.172H541.557V202.656H543.041V207.953H539.041V209.469H544.698ZM543.135 211.922V216.328H541.635V213.109H533.354V211.922H543.135ZM535.073 206.766H541.557V205.281H535.073V206.766ZM549.995 204.703C549.979 206.438 551.245 208.062 553.386 208.719L552.682 209.859C551.065 209.359 549.878 208.312 549.261 206.984C548.643 208.453 547.417 209.602 545.729 210.156L544.979 208.984C547.151 208.281 548.495 206.578 548.495 204.719V204.422H545.432V203.203H553.011V204.422H549.995V204.703ZM556.12 202.328V205.484H558.151V206.703H556.12V210H554.636V202.328H556.12ZM548.62 210.641V212.219H554.636V210.641H556.12V216.156H547.151V210.641H548.62ZM548.62 214.953H554.636V213.375H548.62V214.953ZM569.214 202.328V208H571.464V209.234H569.214V216.328H567.746V202.328H569.214ZM566.527 204.516V205.734H558.23V204.516H561.683V202.516H563.168V204.516H566.527ZM562.433 206.766C564.433 206.766 565.902 208.109 565.918 210.016C565.902 211.938 564.433 213.266 562.433 213.281C560.418 213.266 558.949 211.938 558.949 210.016C558.949 208.109 560.418 206.766 562.433 206.766ZM562.433 207.984C561.246 207.984 560.355 208.812 560.371 210.016C560.355 211.234 561.246 212.047 562.433 212.031C563.621 212.047 564.496 211.234 564.496 210.016C564.496 208.812 563.621 207.984 562.433 207.984ZM582.824 203.672V205.047C582.824 206.781 582.824 208.719 582.293 211.578L580.793 211.422C581.34 208.719 581.34 206.734 581.34 205.047V204.875H572.84V203.672H582.824ZM584.262 213.203V214.438H571.496V213.203H576.356V208.266H577.824V213.203H584.262ZM599.622 202.344V212.688H598.138V207.406H595.076V210.359H588.622V203.266H590.107V205.641H593.607V203.266H595.076V206.203H598.138V202.344H599.622ZM599.935 214.828V216.031H590.482V211.672H591.982V214.828H599.935ZM590.107 209.156H593.607V206.781H590.107V209.156ZM612.795 202.328V216.328H611.326V209.094H608.186V207.875H611.326V202.328H612.795ZM608.232 203.828C608.217 207.891 606.639 211.375 601.889 213.734L601.107 212.562C604.818 210.75 606.467 208.227 606.732 205.016H601.732V203.828H608.232ZM627.139 213.406V214.656H614.327V213.406H619.968V210.953H615.889V206.5H624.108V204.531H615.858V203.312H625.577V207.688H617.358V209.734H625.905V210.953H621.436V213.406H627.139ZM640.312 209.344V210.547H634.765V213.266H633.265V210.547H627.499V209.344H640.312ZM638.89 214.812V216.031H629.109V211.922H630.593V214.812H638.89ZM633.89 202.656C636.906 202.656 638.859 203.75 638.859 205.5C638.859 207.25 636.906 208.328 633.89 208.328C630.89 208.328 628.906 207.25 628.906 205.5C628.906 203.75 630.89 202.656 633.89 202.656ZM633.89 203.844C631.843 203.844 630.484 204.469 630.499 205.5C630.484 206.516 631.843 207.125 633.89 207.125C635.953 207.125 637.296 206.516 637.296 205.5C637.296 204.469 635.953 203.844 633.89 203.844ZM655.907 202.328V211.156H654.501V207.25H652.876V210.672H651.485V202.594H652.876V206.031H654.501V202.328H655.907ZM650.969 203.922V205.094H643.891V203.922H646.719V202.438H648.188V203.922H650.969ZM647.438 205.75C649.219 205.75 650.469 206.703 650.469 208.156C650.469 209.609 649.219 210.562 647.438 210.562C645.688 210.562 644.438 209.609 644.438 208.156C644.438 206.703 645.688 205.75 647.438 205.75ZM647.438 206.844C646.454 206.844 645.766 207.359 645.766 208.156C645.766 208.953 646.454 209.484 647.438 209.484C648.454 209.484 649.126 208.953 649.126 208.156C649.126 207.359 648.454 206.844 647.438 206.844ZM651.219 211.359C654.188 211.359 655.969 212.25 655.985 213.844C655.969 215.406 654.188 216.312 651.219 216.297C648.251 216.312 646.469 215.406 646.485 213.844C646.469 212.25 648.251 211.359 651.219 211.359ZM651.219 212.5C649.141 212.5 647.938 212.969 647.954 213.844C647.938 214.688 649.141 215.172 651.219 215.156C653.313 215.172 654.485 214.688 654.501 213.844C654.485 212.969 653.313 212.5 651.219 212.5ZM668.829 202.328V210.656H667.345V207.109H664.736V205.891H667.345V202.328H668.829ZM664.142 211.047C667.079 211.047 668.876 212.016 668.876 213.688C668.876 215.359 667.079 216.312 664.142 216.328C661.204 216.312 659.392 215.359 659.407 213.688C659.392 212.016 661.204 211.047 664.142 211.047ZM664.142 212.203C662.095 212.203 660.876 212.734 660.876 213.688C660.876 214.625 662.095 215.172 664.142 215.156C666.189 215.172 667.407 214.625 667.407 213.688C667.407 212.734 666.189 212.203 664.142 212.203ZM662.173 204.797C662.173 206.578 663.439 208.297 665.548 209.016L664.782 210.188C663.212 209.641 662.056 208.523 661.454 207.141C660.837 208.711 659.611 209.969 657.939 210.578L657.157 209.391C659.329 208.641 660.657 206.75 660.657 204.812V204.5H657.626V203.297H665.173V204.5H662.173V204.797ZM677.487 202.969C679.331 202.953 680.753 204.023 681.065 205.594H683.799V202.328H685.284V209.844H683.799V206.812H681.081C680.776 208.422 679.346 209.5 677.487 209.5C675.346 209.5 673.815 208.156 673.815 206.219C673.815 204.312 675.346 202.953 677.487 202.969ZM677.487 204.203C676.159 204.203 675.237 205.016 675.237 206.219C675.237 207.422 676.159 208.25 677.487 208.25C678.784 208.25 679.706 207.422 679.706 206.219C679.706 205.016 678.784 204.203 677.487 204.203ZM677.628 210.516V212.141H683.799V210.516H685.284V216.156H676.159V210.516H677.628ZM677.628 214.938H683.799V213.312H677.628V214.938ZM699.597 210.359V211.562H693.878V216.312H692.425V211.562H686.784V210.359H699.597ZM697.987 203.078V208.578H688.394V203.078H697.987ZM689.847 204.266V207.422H696.503V204.266H689.847ZM712.785 208.75V209.891H699.972V208.75H712.785ZM711.207 210.875V213.953H702.988V215.109H711.644V216.156H701.504V212.969H709.738V211.938H701.488V210.875H711.207ZM711.176 202.688V205.719H703.082V206.781H711.41V207.828H701.613V204.734H709.691V203.734H701.582V202.688H711.176ZM91.5156 226.328V230.469H93.5469V231.703H91.5156V236.5H90.0156V226.328H91.5156ZM87.7188 227.391C87.7188 231.062 85.2188 233.734 81.125 234.969L80.5 233.781C83.7734 232.797 85.8125 230.938 86.1094 228.625H81.0938V227.391H87.7188ZM92.0938 238.828V240.031H82.625V235.453H84.125V238.828H92.0938ZM106.516 237.328V238.547H93.7037V237.328H99.3131V234H100.782V237.328H106.516ZM100.813 228.281C100.813 230.5 103.251 232.578 105.954 233.031L105.313 234.25C103.047 233.797 100.962 232.398 100.032 230.469C99.11 232.391 97.0475 233.812 94.7975 234.25L94.1412 233.031C96.8287 232.578 99.2506 230.5 99.2506 228.281V227.219H100.813V228.281ZM117.861 226.328V232.188H119.97V233.438H117.861V240.328H116.376V226.328H117.861ZM106.72 236.516C107.822 236.516 109.103 236.516 110.439 236.469V235.047C108.861 234.828 107.829 233.875 107.845 232.516C107.829 230.938 109.189 229.891 111.189 229.891C113.173 229.891 114.548 230.938 114.564 232.516C114.548 233.875 113.501 234.836 111.923 235.062V236.406C113.165 236.359 114.415 236.258 115.579 236.094L115.673 237.188C112.642 237.734 109.361 237.75 106.954 237.75L106.72 236.516ZM115.376 227.984V229.172H106.986V227.984H110.439V226.359H111.923V227.984H115.376ZM111.189 231.047C110.017 231.047 109.236 231.625 109.236 232.516C109.236 233.406 110.017 233.953 111.189 233.953C112.361 233.953 113.142 233.406 113.142 232.516C113.142 231.625 112.361 231.047 111.189 231.047ZM134.252 226.328V232H136.502V233.234H134.252V240.328H132.784V226.328H134.252ZM131.565 228.516V229.734H123.268V228.516H126.721V226.516H128.206V228.516H131.565ZM127.471 230.766C129.471 230.766 130.94 232.109 130.956 234.016C130.94 235.938 129.471 237.266 127.471 237.281C125.456 237.266 123.987 235.938 123.987 234.016C123.987 232.109 125.456 230.766 127.471 230.766ZM127.471 231.984C126.284 231.984 125.393 232.812 125.409 234.016C125.393 235.234 126.284 236.047 127.471 236.031C128.659 236.047 129.534 235.234 129.534 234.016C129.534 232.812 128.659 231.984 127.471 231.984ZM140.331 227.375C141.605 227.375 142.659 228.109 143.284 229.375H146.737V226.328H148.206V240.359H146.737V234.984H143.378C142.777 236.391 141.675 237.203 140.331 237.203C138.237 237.203 136.769 235.297 136.784 232.281C136.769 229.281 138.237 227.375 140.331 227.375ZM140.331 228.703C139.066 228.703 138.191 230.078 138.191 232.281C138.191 234.5 139.066 235.875 140.331 235.875C141.597 235.875 142.472 234.5 142.472 232.281C142.472 230.078 141.597 228.703 140.331 228.703ZM143.706 230.594C143.808 231.109 143.878 231.672 143.878 232.281C143.878 232.812 143.831 233.305 143.737 233.766H146.737V230.594H143.706ZM165.77 233.141V234.328H152.989V233.141H158.661V231.656H154.582V226.969H164.192V228.141H156.051V230.469H164.286V231.656H160.098V233.141H165.77ZM159.364 235.234C162.379 235.234 164.192 236.156 164.192 237.781C164.192 239.406 162.379 240.312 159.364 240.328C156.332 240.312 154.504 239.406 154.504 237.781C154.504 236.156 156.332 235.234 159.364 235.234ZM159.364 236.391C157.223 236.391 156.004 236.891 156.004 237.781C156.004 238.672 157.223 239.172 159.364 239.156C161.473 239.172 162.707 238.672 162.707 237.781C162.707 236.891 161.473 236.391 159.364 236.391ZM178.942 232.125V233.312H173.286V234.531H177.333V237.812H169.177V239.047H177.724V240.188H167.724V236.734H175.864V235.672H167.708V234.531H171.802V233.312H166.177V232.125H178.942ZM177.302 226.781V231.094H167.817V226.781H177.302ZM169.271 227.953V229.922H175.817V227.953H169.271ZM181.521 227.188V229.312H185.021V227.188H186.49V228.547H189.552V226.328H191.037V234.781H189.552V232.625H186.49V233.812H180.037V227.188H181.521ZM181.521 232.625H185.021V230.484H181.521V232.625ZM186.349 235.031C189.287 235.047 191.084 236 191.084 237.688C191.084 239.344 189.287 240.312 186.349 240.297C183.412 240.312 181.599 239.344 181.615 237.688C181.599 236 183.412 235.047 186.349 235.031ZM186.349 236.172C184.302 236.188 183.084 236.719 183.084 237.688C183.084 238.625 184.302 239.156 186.349 239.156C188.396 239.156 189.615 238.625 189.615 237.688C189.615 236.719 188.396 236.188 186.349 236.172ZM186.49 231.406H189.552V229.734H186.49V231.406ZM204.194 226.344V236.953H202.709V235.609H199.897V234.562H202.709V226.344H204.194ZM204.537 238.828V240.031H194.428V235.922H195.897V238.828H204.537ZM192.491 232.734C195.084 232.719 198.569 232.688 201.553 232.312L201.647 233.375C200.452 233.57 199.194 233.703 197.959 233.781V236.516H196.475V233.859C195.116 233.922 193.811 233.93 192.678 233.922L192.491 232.734ZM197.069 226.875C199.116 226.875 200.537 227.859 200.537 229.344C200.537 230.828 199.116 231.781 197.069 231.781C194.991 231.781 193.584 230.828 193.584 229.344C193.584 227.859 194.991 226.875 197.069 226.875ZM197.069 227.984C195.819 227.969 194.975 228.5 194.991 229.344C194.975 230.172 195.819 230.688 197.069 230.688C198.272 230.688 199.116 230.172 199.131 229.344C199.116 228.5 198.272 227.969 197.069 227.984ZM210.304 227.328C212.522 227.312 214.101 228.688 214.116 230.656C214.101 232.625 212.522 234 210.304 234C208.101 234 206.476 232.625 206.491 230.656C206.476 228.688 208.101 227.312 210.304 227.328ZM210.304 228.609C208.944 228.609 207.944 229.422 207.96 230.656C207.944 231.891 208.944 232.703 210.304 232.703C211.663 232.703 212.663 231.891 212.663 230.656C212.663 229.422 211.663 228.609 210.304 228.609ZM217.319 226.328V240.359H215.835V226.328H217.319ZM205.819 236.109C208.366 236.109 211.897 236.078 214.96 235.641L215.069 236.719C211.897 237.328 208.507 237.344 206.007 237.344L205.819 236.109ZM227.383 229.25C227.383 231.062 228.727 232.766 230.883 233.453L230.117 234.609C228.508 234.078 227.289 232.977 226.664 231.578C226.032 233.102 224.789 234.305 223.117 234.891L222.352 233.719C224.524 232.984 225.867 231.172 225.883 229.25V228.641H222.742V227.438H230.461V228.641H227.383V229.25ZM233.805 226.344V236.562H232.321V226.344H233.805ZM234.227 238.828V240.031H224.649V235.594H226.149V238.828H234.227ZM248.196 237.406V238.656H235.384V237.406H238.884V234.938H236.946V230.484H245.165V228.531H236.915V227.312H246.634V231.688H238.415V233.719H246.962V234.938H244.837V237.406H248.196ZM240.321 237.406H243.384V234.938H240.321V237.406ZM259.713 226.844V227.656C259.697 228.516 259.697 229.711 259.401 231.25C259.924 231.219 260.447 231.172 260.963 231.125L261.041 232.078C259.729 232.25 258.354 232.359 257.01 232.422V234.578H255.541V232.484C254.283 232.531 253.072 232.539 251.979 232.547L251.807 231.469C253.651 231.461 255.791 231.438 257.901 231.344C258.01 230.844 258.08 230.391 258.135 229.969L252.901 230.312L252.666 229.234L258.213 228.984C258.237 228.609 258.244 228.266 258.244 227.953H253.072V226.844H259.713ZM263.479 226.344V234.547H261.994V233.875H259.26V232.906H261.994V226.344H263.479ZM263.479 235.016V238.016H255.416V239.109H263.901V240.188H253.963V237.031H262.01V236.047H253.901V235.016H263.479ZM276.651 226.328V240.359H275.167V226.328H276.651ZM272.37 227.594V232.703H267.339V235.766C269.604 235.758 271.589 235.656 273.932 235.266L274.073 236.484C271.589 236.906 269.479 237 267.011 237H265.823V231.516H270.854V228.797H265.807V227.594H272.37ZM285.996 227.562V228.781H280.542V231.484H285.464V232.672H280.542V235.812C282.996 235.805 284.761 235.703 286.839 235.375L286.996 236.578C284.777 236.938 282.855 237.016 280.214 237.016H279.074V227.562H285.996ZM289.855 226.328V240.328H288.355V226.328H289.855ZM304.199 232.75V233.891H291.387V232.75H304.199ZM302.621 234.875V237.953H294.402V239.109H303.059V240.156H292.918V236.969H301.152V235.938H292.902V234.875H302.621ZM302.59 226.688V229.719H294.496V230.781H302.824V231.828H293.027V228.734H301.106V227.734H292.996V226.688H302.59ZM320.841 228.641V229.859H318.857V231.625H320.841V232.844H318.857V235.312H317.372V226.328H318.857V228.641H320.841ZM314.388 235.422C317.247 235.422 319.013 236.328 319.013 237.875C319.013 239.391 317.247 240.312 314.388 240.297C311.497 240.312 309.732 239.391 309.747 237.875C309.732 236.328 311.497 235.422 314.388 235.422ZM314.388 236.562C312.372 236.562 311.201 237.016 311.216 237.875C311.201 238.688 312.372 239.172 314.388 239.172C316.372 239.172 317.544 238.688 317.544 237.875C317.544 237.016 316.372 236.562 314.388 236.562ZM316.216 227.828V229H307.872V227.828H311.31V226.219H312.794V227.828H316.216ZM312.044 229.641C314.06 229.641 315.435 230.641 315.435 232.141C315.435 233.641 314.06 234.625 312.044 234.609C309.997 234.625 308.638 233.641 308.638 232.141C308.638 230.641 309.997 229.641 312.044 229.641ZM312.044 230.75C310.857 230.75 310.06 231.281 310.076 232.141C310.06 232.969 310.857 233.484 312.044 233.484C313.232 233.484 314.029 232.969 314.044 232.141C314.029 231.281 313.232 230.75 312.044 230.75ZM325.873 228.562C325.873 230.406 327.154 232.109 329.248 232.797L328.451 233.969C326.92 233.43 325.772 232.336 325.17 230.953C324.553 232.523 323.365 233.75 321.732 234.359L320.936 233.172C323.123 232.391 324.389 230.531 324.404 228.438V227.062H325.873V228.562ZM332.045 226.328V229.844H334.076V231.094H332.045V234.781H330.561V226.328H332.045ZM327.529 235.109C330.404 235.109 332.17 236.062 332.17 237.703C332.17 239.359 330.404 240.312 327.529 240.297C324.623 240.312 322.826 239.359 322.826 237.703C322.826 236.062 324.623 235.109 327.529 235.109ZM327.529 236.281C325.498 236.281 324.295 236.812 324.311 237.703C324.295 238.625 325.498 239.125 327.529 239.141C329.545 239.125 330.717 238.625 330.717 237.703C330.717 236.812 329.545 236.281 327.529 236.281ZM339.374 229.891C339.358 232.453 340.905 235.016 343.077 235.984L342.186 237.156C340.577 236.391 339.303 234.82 338.655 232.906C337.999 234.953 336.71 236.648 335.03 237.469L334.124 236.219C336.327 235.234 337.874 232.562 337.874 229.891V227.5H339.374V229.891ZM345.827 226.328V240.359H344.342V226.328H345.827ZM354.968 227.75C354.968 231.875 353.593 235.594 348.453 238.094L347.656 236.938C350.163 235.719 351.726 234.211 352.609 232.422L347.937 232.859L347.734 231.562L353.078 231.219C353.296 230.508 353.437 229.75 353.499 228.953H348.437V227.75H354.968ZM359.062 226.328V240.328H357.562V226.328H359.062ZM371.938 227.672V229.047C371.938 230.781 371.938 232.719 371.406 235.578L369.906 235.422C370.453 232.719 370.453 230.734 370.453 229.047V228.875H361.953V227.672H371.938ZM373.375 237.203V238.438H360.609V237.203H365.469V232.266H366.938V237.203H373.375ZM389.876 237.359V238.594H377.064V237.359H382.704V234.484H378.533V227.281H380.017V229.688H386.892V227.281H388.361V234.484H384.173V237.359H389.876ZM380.017 233.281H386.892V230.891H380.017V233.281ZM402.377 228.297V229.5H390.861V228.297H395.892V226.531H397.361V228.297H402.377ZM403.064 237.547V238.75H390.252V237.547H395.892V235.688C393.439 235.539 391.955 234.57 391.955 233.016C391.955 231.328 393.736 230.344 396.627 230.344C399.486 230.344 401.283 231.328 401.283 233.016C401.283 234.57 399.791 235.539 397.361 235.688V237.547H403.064ZM396.627 231.516C394.627 231.516 393.455 232.047 393.471 233.016C393.455 233.984 394.627 234.516 396.627 234.531C398.596 234.516 399.767 233.984 399.767 233.016C399.767 232.047 398.596 231.516 396.627 231.516ZM408.315 230.453C408.315 232.672 409.768 235.141 411.893 236.141L411.049 237.297C409.479 236.539 408.237 234.961 407.612 233.125C406.963 235.133 405.651 236.859 404.049 237.656L403.174 236.484C405.299 235.469 406.846 232.828 406.846 230.453V228.969H403.69V227.734H411.362V228.969H408.315V230.453ZM414.346 226.328V231.875H416.596V233.125H414.346V240.328H412.862V226.328H414.346ZM429.409 232.062V233.25H416.628V232.062H429.409ZM427.894 229.859V231.047H418.3V226.734H427.753V227.938H419.784V229.859H427.894ZM427.784 234.359V237.75H419.628V239H428.175V240.172H418.175V236.656H426.316V235.5H418.159V234.359H427.784ZM437.613 227.828V228.688C437.613 229.859 437.613 231.672 437.207 234.172L435.738 234.062C436.09 231.82 436.129 230.203 436.144 229.031H430.457V227.828H437.613ZM434.019 231.828V236.016C435.512 235.969 437.027 235.867 438.426 235.688L438.504 236.797C435.582 237.266 432.332 237.328 429.848 237.312L429.676 236.109C430.551 236.102 431.527 236.094 432.551 236.062V231.828H434.019ZM440.723 226.328V232.109H442.863V233.375H440.723V240.328H439.223V226.328H440.723ZM459.083 237.328V238.547H446.271V237.328H451.88V234H453.349V237.328H459.083ZM453.38 228.281C453.38 230.5 455.818 232.578 458.521 233.031L457.88 234.25C455.614 233.797 453.528 232.398 452.599 230.469C451.677 232.391 449.614 233.812 447.364 234.25L446.708 233.031C449.396 232.578 451.818 230.5 451.818 228.281V227.219H453.38V228.281ZM472.224 233.688V234.859H459.427V233.688H465.084V232.469H461.099V226.703H470.662V227.875H462.599V229.016H470.302V230.125H462.599V231.312H470.756V232.469H466.568V233.688H472.224ZM465.834 235.781C468.912 235.766 470.662 236.578 470.662 238.047C470.662 239.531 468.912 240.312 465.834 240.297C462.724 240.312 460.974 239.531 460.974 238.047C460.974 236.578 462.724 235.766 465.834 235.781ZM465.834 236.891C463.631 236.891 462.443 237.297 462.459 238.047C462.443 238.797 463.631 239.188 465.834 239.172C468.006 239.188 469.177 238.797 469.177 238.047C469.177 237.297 468.006 236.891 465.834 236.891ZM479.022 226.562C482.178 226.562 484.022 227.406 484.022 228.969C484.022 230.531 482.178 231.391 479.022 231.391C475.866 231.391 474.022 230.531 474.022 228.969C474.022 227.406 475.866 226.562 479.022 226.562ZM479.022 227.656C476.788 227.656 475.553 228.141 475.569 228.969C475.553 229.828 476.788 230.281 479.022 230.281C481.256 230.281 482.491 229.828 482.491 228.969C482.491 228.141 481.256 227.656 479.022 227.656ZM485.413 232.25V233.438H472.647V232.25H485.413ZM483.803 234.516V237.797H475.647V239.047H484.194V240.188H474.194V236.719H482.334V235.625H474.178V234.516H483.803ZM500.742 226.344V236.953H499.258V235.609H496.445V234.562H499.258V226.344H500.742ZM501.086 238.828V240.031H490.976V235.922H492.445V238.828H501.086ZM489.039 232.734C491.633 232.719 495.117 232.688 498.101 232.312L498.195 233.375C497 233.57 495.742 233.703 494.508 233.781V236.516H493.023V233.859C491.664 233.922 490.359 233.93 489.226 233.922L489.039 232.734ZM493.617 226.875C495.664 226.875 497.086 227.859 497.086 229.344C497.086 230.828 495.664 231.781 493.617 231.781C491.539 231.781 490.133 230.828 490.133 229.344C490.133 227.859 491.539 226.875 493.617 226.875ZM493.617 227.984C492.367 227.969 491.523 228.5 491.539 229.344C491.523 230.172 492.367 230.688 493.617 230.688C494.82 230.688 495.664 230.172 495.679 229.344C495.664 228.5 494.82 227.969 493.617 227.984ZM513.305 226.328V229.812H515.305V231.078H513.305V234.578H511.821V226.328H513.305ZM513.305 235.172V238.094H505.571V239.156H513.821V240.188H504.086V237.141H511.836V236.203H504.055V235.172H513.305ZM502.196 233.25C503.282 233.25 504.539 233.25 505.852 233.203V232.422C504.242 232.273 503.242 231.633 503.258 230.578C503.242 229.438 504.555 228.766 506.586 228.766C508.602 228.766 509.914 229.438 509.914 230.578C509.914 231.625 508.922 232.266 507.336 232.422V233.156C508.586 233.094 509.852 232.992 511.024 232.828L511.149 233.797C508.133 234.297 504.821 234.312 502.352 234.312L502.196 233.25ZM510.633 227.328V228.359H502.555V227.328H505.852V226.203H507.336V227.328H510.633ZM506.586 229.734C505.383 229.734 504.664 230.047 504.664 230.578C504.664 231.141 505.383 231.484 506.586 231.484C507.774 231.484 508.492 231.141 508.492 230.578C508.492 230.047 507.774 229.734 506.586 229.734ZM526.384 226.328V232H528.634V233.234H526.384V240.328H524.915V226.328H526.384ZM523.696 228.516V229.734H515.399V228.516H518.853V226.516H520.337V228.516H523.696ZM519.603 230.766C521.603 230.766 523.071 232.109 523.087 234.016C523.071 235.938 521.603 237.266 519.603 237.281C517.587 237.266 516.118 235.938 516.118 234.016C516.118 232.109 517.587 230.766 519.603 230.766ZM519.603 231.984C518.415 231.984 517.524 232.812 517.54 234.016C517.524 235.234 518.415 236.047 519.603 236.031C520.79 236.047 521.665 235.234 521.665 234.016C521.665 232.812 520.79 231.984 519.603 231.984ZM540.697 226.328V240.328H539.291V226.328H540.697ZM537.744 226.688V239.641H536.337V233.141H533.603C532.767 234.766 531.439 236.188 529.462 237.344L528.619 236.281C531.587 234.516 533.017 232.164 533.275 229.281H529.275V228.062H534.744C534.736 229.43 534.548 230.734 534.119 231.953H536.337V226.688H537.744ZM556.026 226.328V232H558.276V233.234H556.026V240.328H554.557V226.328H556.026ZM553.339 228.516V229.734H545.042V228.516H548.495V226.516H549.979V228.516H553.339ZM549.245 230.766C551.245 230.766 552.714 232.109 552.729 234.016C552.714 235.938 551.245 237.266 549.245 237.281C547.229 237.266 545.761 235.938 545.761 234.016C545.761 232.109 547.229 230.766 549.245 230.766ZM549.245 231.984C548.057 231.984 547.167 232.812 547.182 234.016C547.167 235.234 548.057 236.047 549.245 236.031C550.432 236.047 551.307 235.234 551.307 234.016C551.307 232.812 550.432 231.984 549.245 231.984ZM569.949 226.328V240.328H568.449V226.328H569.949ZM565.777 227.828C565.777 231.922 564.027 235.484 559.23 237.781L558.449 236.578C562.175 234.805 563.988 232.281 564.277 229.016H559.121V227.828H565.777ZM579.356 226.969C581.466 226.969 582.997 228.141 582.997 229.875C582.997 231.594 581.466 232.781 579.356 232.766C577.247 232.781 575.747 231.594 575.747 229.875C575.747 228.141 577.247 226.969 579.356 226.969ZM579.356 228.172C578.091 228.172 577.169 228.844 577.184 229.875C577.169 230.891 578.091 231.562 579.356 231.547C580.653 231.562 581.575 230.891 581.575 229.875C581.575 228.844 580.653 228.172 579.356 228.172ZM586.403 226.344V240.328H584.934V226.344H586.403ZM574.747 233.859C577.325 233.859 580.903 233.797 583.966 233.344L584.075 234.453C582.802 234.695 581.473 234.844 580.184 234.938V239.891H578.7V235.016C577.341 235.078 576.059 235.086 574.95 235.094L574.747 233.859ZM598.951 226.328V229.953H600.982V231.219H598.951V234.766H597.466V226.328H598.951ZM598.951 235.5V240.156H590.013V235.5H598.951ZM591.466 236.672V238.953H597.482V236.672H591.466ZM596.31 227.75V228.938H587.966V227.75H591.404V226.219H592.888V227.75H596.31ZM592.138 229.547C594.154 229.547 595.529 230.547 595.529 232.047C595.529 233.562 594.154 234.547 592.138 234.562C590.091 234.547 588.732 233.562 588.732 232.047C588.732 230.547 590.091 229.547 592.138 229.547ZM592.138 230.688C590.951 230.672 590.154 231.203 590.169 232.047C590.154 232.922 590.951 233.438 592.138 233.438C593.326 233.438 594.122 232.922 594.138 232.047C594.122 231.203 593.326 230.672 592.138 230.688ZM612.748 226.328V233.844H611.264V226.328H612.748ZM605.045 234.516V236.094H611.279V234.516H612.748V240.156H603.592V234.516H605.045ZM605.045 238.938H611.279V237.266H605.045V238.938ZM605.154 226.969C607.295 226.969 608.873 228.297 608.873 230.219C608.873 232.141 607.295 233.469 605.154 233.453C603.014 233.469 601.42 232.141 601.42 230.219C601.42 228.297 603.014 226.969 605.154 226.969ZM605.154 228.219C603.826 228.203 602.873 229.031 602.873 230.219C602.873 231.422 603.826 232.234 605.154 232.234C606.467 232.234 607.42 231.422 607.42 230.219C607.42 229.031 606.467 228.203 605.154 228.219ZM625.952 226.328V240.328H624.468V226.328H625.952ZM616.655 227.688V235.484C618.694 235.469 620.843 235.305 623.093 234.844L623.296 236.094C620.811 236.594 618.561 236.766 616.358 236.766H615.186V227.688H616.655ZM638.421 226.328V231.75H640.671V232.969H638.421V240.359H636.937V226.328H638.421ZM634.656 227.672V228.875H629.593V235.641C631.945 235.633 633.71 235.531 635.703 235.172L635.89 236.422C633.703 236.812 631.843 236.891 629.234 236.875H628.109V227.672H634.656ZM642.297 239.109C641.688 239.109 641.172 238.609 641.188 238C641.172 237.391 641.688 236.891 642.297 236.891C642.891 236.891 643.406 237.391 643.406 238C643.406 238.609 642.891 239.109 642.297 239.109Z" fill="#909091"/>
<path d="M81.3594 302.688C81.375 299.75 82.2031 297.297 83.6719 295.203H85.2031C84.125 296.75 83.0938 299.906 83.0938 302.688C83.0938 305.484 84.125 308.625 85.2031 310.188H83.6719C82.2031 308.094 81.375 305.641 81.3594 302.688ZM98.52 302.219V303.422H92.8325V308.312H91.3794V303.422H85.7544V302.219H98.52ZM97.3169 295.156V296.344H92.9887C93.0122 298.078 95.1684 299.625 97.8169 299.984L97.27 301.156C94.9731 300.797 92.9887 299.664 92.145 298.062C91.2778 299.664 89.3012 300.797 87.0356 301.156L86.4731 299.984C89.0903 299.625 91.2466 298.078 91.3012 296.344H86.9419V295.156H97.3169ZM102.946 302.688C102.931 305.641 102.103 308.094 100.634 310.188H99.1025C100.181 308.625 101.212 305.484 101.212 302.688C101.212 299.906 100.181 296.75 99.1025 295.203H100.634C102.103 297.297 102.931 299.75 102.946 302.688ZM115.341 294.328V297.781H117.372V299.031H115.341V302.547H113.857V294.328H115.341ZM115.341 303.297V308.344H113.857V304.484H106.091V303.297H115.341ZM111.216 295.312V296.516H106.435V300.375C109.162 300.367 110.701 300.281 112.451 299.922L112.622 301.109C110.732 301.5 109.076 301.578 106.076 301.578H104.966V295.312H111.216ZM129.361 294.328V308.359H127.893V300.719H125.111V299.5H127.893V294.328H129.361ZM124.877 295.578V296.781H119.83V299.5H124.283V300.688H119.83V303.812C122.174 303.805 123.799 303.75 125.658 303.422L125.814 304.625C123.783 304.953 122.018 305.031 119.424 305.047H118.33V295.578H124.877ZM133.037 295.281V297.406H135.741V295.281H137.116V297.922H138.834V294.625H140.241V302.578H138.834V299.156H137.116V301.844H131.631V295.281H133.037ZM133.037 300.656H135.741V298.562H133.037V300.656ZM142.975 294.328V303.844H141.569V294.328H142.975ZM138.975 303.703C138.975 305.375 141.069 306.781 143.725 307.109L143.178 308.266C140.975 307.953 139.108 306.961 138.241 305.531C137.358 306.961 135.491 307.953 133.287 308.266L132.756 307.109C135.381 306.781 137.491 305.375 137.491 303.703V303.281H138.975V303.703Z" fill="#5E6075"/>
<path d="M84.9375 360.156C82.3125 360.156 80.7812 358.047 80.7812 354.344C80.7812 350.672 82.3438 348.531 84.9375 348.531C87.5312 348.531 89.0938 350.672 89.0938 354.344C89.0938 358.047 87.5469 360.156 84.9375 360.156ZM84.9375 358.672C86.4688 358.672 87.375 357.172 87.375 354.344C87.375 351.531 86.4531 349.984 84.9375 349.984C83.4219 349.984 82.5 351.531 82.5 354.344C82.5 357.172 83.4062 358.672 84.9375 358.672ZM94.3325 360.156C91.7075 360.156 90.1763 358.047 90.1763 354.344C90.1763 350.672 91.7388 348.531 94.3325 348.531C96.9263 348.531 98.4888 350.672 98.4888 354.344C98.4888 358.047 96.9419 360.156 94.3325 360.156ZM94.3325 358.672C95.8638 358.672 96.77 357.172 96.77 354.344C96.77 351.531 95.8481 349.984 94.3325 349.984C92.8169 349.984 91.895 351.531 91.895 354.344C91.895 357.172 92.8013 358.672 94.3325 358.672ZM99.79 360V358.75L103.712 354.797C104.946 353.5 105.571 352.781 105.571 351.797C105.571 350.688 104.665 349.969 103.478 349.969C102.228 349.969 101.415 350.766 101.415 351.969H99.79C99.7744 349.906 101.353 348.531 103.509 348.531C105.696 348.531 107.196 349.906 107.212 351.75C107.196 353.016 106.603 354.016 104.478 356.109L102.181 358.438V358.531H107.399V360H99.79ZM113.841 353.625V355.062H108.826V353.625H113.841ZM119.299 360.156C116.674 360.156 115.143 358.047 115.143 354.344C115.143 350.672 116.705 348.531 119.299 348.531C121.893 348.531 123.455 350.672 123.455 354.344C123.455 358.047 121.908 360.156 119.299 360.156ZM119.299 358.672C120.83 358.672 121.736 357.172 121.736 354.344C121.736 351.531 120.814 349.984 119.299 349.984C117.783 349.984 116.861 351.531 116.861 354.344C116.861 357.172 117.768 358.672 119.299 358.672ZM124.756 360V358.75L128.678 354.797C129.912 353.5 130.537 352.781 130.537 351.797C130.537 350.688 129.631 349.969 128.444 349.969C127.194 349.969 126.381 350.766 126.381 351.969H124.756C124.741 349.906 126.319 348.531 128.475 348.531C130.662 348.531 132.162 349.906 132.178 351.75C132.162 353.016 131.569 354.016 129.444 356.109L127.147 358.438V358.531H132.366V360H124.756ZM141.781 350.891C141.781 353.453 143.218 356 145.359 356.969L144.452 358.156C142.859 357.359 141.663 355.773 141.046 353.859C140.429 355.875 139.202 357.578 137.593 358.422L136.656 357.219C138.827 356.188 140.281 353.484 140.281 350.891V348.5H141.781V350.891ZM148.406 347.328V361.359H146.937V353.188H143.812V351.984H146.937V347.328H148.406ZM156.457 347.484C159.613 347.484 161.457 348.344 161.457 349.891C161.457 351.453 159.613 352.312 156.457 352.312C153.301 352.312 151.457 351.453 151.457 349.891C151.457 348.344 153.301 347.484 156.457 347.484ZM156.457 348.594C154.223 348.609 152.988 349.062 153.004 349.891C152.988 350.766 154.223 351.203 156.457 351.203C158.691 351.203 159.926 350.766 159.926 349.891C159.926 349.062 158.691 348.609 156.457 348.594ZM162.848 353.141V354.312H157.191V355.516H161.238V358.797H153.082V360.047H161.629V361.188H151.629V357.719H159.769V356.625H151.613V355.516H155.707V354.312H150.082V353.141H162.848ZM168.571 350.891C168.555 353.453 170.102 356.016 172.274 356.984L171.383 358.156C169.774 357.391 168.5 355.82 167.852 353.906C167.196 355.953 165.907 357.648 164.227 358.469L163.321 357.219C165.524 356.234 167.071 353.562 167.071 350.891V348.5H168.571V350.891ZM175.024 347.328V361.359H173.539V347.328H175.024ZM185.251 350.891C185.251 353.453 186.689 356 188.829 356.969L187.923 358.156C186.329 357.359 185.134 355.773 184.517 353.859C183.9 355.875 182.673 357.578 181.064 358.422L180.126 357.219C182.298 356.188 183.751 353.484 183.751 350.891V348.5H185.251V350.891ZM191.876 347.328V361.359H190.408V353.188H187.283V351.984H190.408V347.328H191.876ZM206.365 358.391V359.609H193.552V358.391H199.209V355.344H200.677V358.391H206.365ZM205.177 349.453V350.656H200.693C200.756 352.617 202.834 354.242 205.709 354.672L205.146 355.828C202.81 355.461 200.857 354.352 199.943 352.719C199.029 354.352 197.084 355.461 194.74 355.828L194.177 354.672C197.052 354.242 199.115 352.617 199.193 350.656H194.709V349.453H199.209V347.578H200.677V349.453H205.177ZM218.041 348.203V349.438C218.041 350.766 218.041 352.203 217.651 354.203H219.666V355.422H213.994V361.344H212.494V355.422H206.901V354.203H216.151C216.573 352.211 216.573 350.742 216.573 349.438V349.422H208.463V348.203H218.041ZM234.675 347.328V350.859H236.706V352.062H234.675V355.641H233.191V347.328H234.675ZM230.831 348.328C230.831 351.953 228.378 354.562 224.269 355.75L223.659 354.547C226.933 353.617 228.956 351.797 229.222 349.531H224.284V348.328H230.831ZM230.206 355.797C233.034 355.797 234.831 356.844 234.831 358.547C234.831 360.266 233.034 361.312 230.206 361.312C227.394 361.312 225.55 360.266 225.566 358.547C225.55 356.844 227.394 355.797 230.206 355.797ZM230.206 356.969C228.253 356.969 227.019 357.562 227.034 358.547C227.019 359.531 228.253 360.141 230.206 360.141C232.144 360.141 233.378 359.531 233.378 358.547C233.378 357.562 232.144 356.969 230.206 356.969ZM248.023 347.344V350.453H250.07V351.688H248.023V355.234H246.539V347.344H248.023ZM248.023 355.969V361.141H239.054V355.969H248.023ZM240.508 357.125V359.953H246.586V357.125H240.508ZM239.148 348.031V353.047C241.047 353.031 243.031 352.867 245.179 352.438L245.367 353.656C243.008 354.141 240.867 354.266 238.804 354.281H237.664V348.031H239.148ZM262.387 347.328V361.328H260.965V354.094H259.152V360.609H257.793V347.609H259.152V352.875H260.965V347.328H262.387ZM256.09 349.016V350.219H252.324V356.703C254.043 356.688 255.34 356.609 256.84 356.328L256.949 357.547C255.262 357.891 253.824 357.953 251.777 357.969H250.84V349.016H256.09ZM276.532 358.406V359.656H263.719V358.406H269.36V355.953H265.282V351.5H273.501V349.531H265.251V348.312H274.969V352.688H266.751V354.734H275.298V355.953H270.829V358.406H276.532ZM284.916 360.156C282.291 360.156 280.759 358.047 280.759 354.344C280.759 350.672 282.322 348.531 284.916 348.531C287.509 348.531 289.072 350.672 289.072 354.344C289.072 358.047 287.525 360.156 284.916 360.156ZM284.916 358.672C286.447 358.672 287.353 357.172 287.353 354.344C287.353 351.531 286.431 349.984 284.916 349.984C283.4 349.984 282.478 351.531 282.478 354.344C282.478 357.172 283.384 358.672 284.916 358.672ZM294.311 360.156C291.686 360.156 290.154 358.047 290.154 354.344C290.154 350.672 291.717 348.531 294.311 348.531C296.904 348.531 298.467 350.672 298.467 354.344C298.467 358.047 296.92 360.156 294.311 360.156ZM294.311 358.672C295.842 358.672 296.748 357.172 296.748 354.344C296.748 351.531 295.826 349.984 294.311 349.984C292.795 349.984 291.873 351.531 291.873 354.344C291.873 357.172 292.779 358.672 294.311 358.672ZM303.706 360.156C301.081 360.156 299.549 358.047 299.549 354.344C299.549 350.672 301.112 348.531 303.706 348.531C306.299 348.531 307.862 350.672 307.862 354.344C307.862 358.047 306.315 360.156 303.706 360.156ZM303.706 358.672C305.237 358.672 306.143 357.172 306.143 354.344C306.143 351.531 305.221 349.984 303.706 349.984C302.19 349.984 301.268 351.531 301.268 354.344C301.268 357.172 302.174 358.672 303.706 358.672ZM310.773 358.922L309.523 363.234H308.194L309.023 358.922H310.773ZM316.058 360.156C313.433 360.156 311.902 358.047 311.902 354.344C311.902 350.672 313.464 348.531 316.058 348.531C318.652 348.531 320.214 350.672 320.214 354.344C320.214 358.047 318.667 360.156 316.058 360.156ZM316.058 358.672C317.589 358.672 318.496 357.172 318.496 354.344C318.496 351.531 317.574 349.984 316.058 349.984C314.542 349.984 313.621 351.531 313.621 354.344C313.621 357.172 314.527 358.672 316.058 358.672ZM325.453 360.156C322.828 360.156 321.297 358.047 321.297 354.344C321.297 350.672 322.859 348.531 325.453 348.531C328.047 348.531 329.609 350.672 329.609 354.344C329.609 358.047 328.062 360.156 325.453 360.156ZM325.453 358.672C326.984 358.672 327.891 357.172 327.891 354.344C327.891 351.531 326.969 349.984 325.453 349.984C323.938 349.984 323.016 351.531 323.016 354.344C323.016 357.172 323.922 358.672 325.453 358.672ZM334.727 360L339.774 350.25V350.156H333.946V348.688H341.556V350.219L336.524 360H334.727ZM355.091 354.359V355.578H342.326V354.359H355.091ZM349.435 347.312V348.656H353.81V349.844H349.529C349.685 351.195 351.622 352.211 354.404 352.438L353.951 353.578C351.529 353.352 349.568 352.539 348.701 351.234C347.826 352.539 345.865 353.352 343.466 353.578L342.997 352.438C345.763 352.211 347.701 351.195 347.872 349.844H343.607V348.656H347.966V347.312H349.435ZM348.701 356.625C351.747 356.625 353.529 357.453 353.529 358.969C353.529 360.484 351.747 361.312 348.701 361.297C345.638 361.312 343.841 360.484 343.841 358.969C343.841 357.453 345.638 356.625 348.701 356.625ZM348.701 357.734C346.544 357.734 345.341 358.172 345.341 358.969C345.341 359.766 346.544 360.188 348.701 360.172C350.826 360.188 352.044 359.766 352.044 358.969C352.044 358.172 350.826 357.734 348.701 357.734Z" fill="#5E6075"/>
<path d="M180.375 324.891C180.359 327.375 181.797 329.906 183.891 330.922L182.969 332.109C181.445 331.32 180.266 329.75 179.656 327.875C179.023 329.875 177.797 331.547 176.203 332.375L175.281 331.172C177.438 330.141 178.891 327.453 178.891 324.891V322.5H180.375V324.891ZM186.422 321.328V326.906H188.672V328.172H186.422V335.328H184.938V321.328H186.422ZM192.739 321.969C194.583 321.953 196.004 323.023 196.317 324.594H199.051V321.328H200.536V328.844H199.051V325.812H196.333C196.028 327.422 194.598 328.5 192.739 328.5C190.598 328.5 189.067 327.156 189.067 325.219C189.067 323.312 190.598 321.953 192.739 321.969ZM192.739 323.203C191.411 323.203 190.489 324.016 190.489 325.219C190.489 326.422 191.411 327.25 192.739 327.25C194.036 327.25 194.958 326.422 194.958 325.219C194.958 324.016 194.036 323.203 192.739 323.203ZM192.879 329.516V331.141H199.051V329.516H200.536V335.156H191.411V329.516H192.879ZM192.879 333.938H199.051V332.312H192.879V333.938ZM207.087 325.453C207.087 327.672 208.54 330.141 210.665 331.141L209.821 332.297C208.251 331.539 207.009 329.961 206.384 328.125C205.735 330.133 204.423 331.859 202.821 332.656L201.946 331.484C204.071 330.469 205.618 327.828 205.618 325.453V323.969H202.462V322.734H210.134V323.969H207.087V325.453ZM213.118 321.328V326.875H215.368V328.125H213.118V335.328H211.634V321.328H213.118ZM231.768 327.906V329.125H218.986V327.906H231.768ZM230.283 325.484V326.688H220.58V321.828H230.189V323.047H222.049V325.484H230.283ZM225.361 330.219C228.377 330.219 230.189 331.141 230.189 332.766C230.189 334.391 228.377 335.312 225.361 335.297C222.33 335.312 220.502 334.391 220.502 332.766C220.502 331.141 222.33 330.219 225.361 330.219ZM225.361 331.359C223.221 331.375 222.002 331.875 222.002 332.766C222.002 333.656 223.221 334.156 225.361 334.156C227.471 334.156 228.705 333.656 228.705 332.766C228.705 331.875 227.471 331.375 225.361 331.359ZM245.131 328.969V330.172H232.319V328.969H237.991V327.641H233.959V324.078H242.037V322.828H233.928V321.656H243.522V325.172H235.428V326.484H243.803V327.641H239.459V328.969H245.131ZM243.6 331.156V335.219H242.1V332.344H233.756V331.156H243.6ZM258.448 327.922V329.125H245.683V327.922H258.448ZM252.058 330.203C255.073 330.203 256.886 331.141 256.886 332.766C256.886 334.391 255.073 335.312 252.058 335.297C249.026 335.312 247.198 334.391 247.198 332.766C247.198 331.141 249.026 330.203 252.058 330.203ZM252.058 331.359C249.917 331.375 248.698 331.859 248.698 332.766C248.698 333.656 249.917 334.125 252.058 334.125C254.167 334.125 255.401 333.656 255.401 332.766C255.401 331.859 254.167 331.375 252.058 331.359ZM257.308 322.016V323.234H253.058C253.222 324.594 255.206 325.75 257.792 326.016L257.261 327.188C254.839 326.906 252.831 325.883 252.073 324.406C251.292 325.883 249.292 326.906 246.87 327.188L246.354 326.016C248.893 325.75 250.893 324.602 251.073 323.234H246.854V322.016H257.308ZM270.702 321.344V331.688H269.218V326.406H266.156V329.359H259.702V322.266H261.187V324.641H264.687V322.266H266.156V325.203H269.218V321.344H270.702ZM271.015 333.828V335.031H261.562V330.672H263.062V333.828H271.015ZM261.187 328.156H264.687V325.781H261.187V328.156ZM284.504 323.297V324.5H272.988V323.297H278.019V321.531H279.488V323.297H284.504ZM285.191 332.547V333.75H272.379V332.547H278.019V330.688C275.566 330.539 274.082 329.57 274.082 328.016C274.082 326.328 275.863 325.344 278.754 325.344C281.613 325.344 283.41 326.328 283.41 328.016C283.41 329.57 281.918 330.539 279.488 330.688V332.547H285.191ZM278.754 326.516C276.754 326.516 275.582 327.047 275.598 328.016C275.582 328.984 276.754 329.516 278.754 329.531C280.723 329.516 281.894 328.984 281.894 328.016C281.894 327.047 280.723 326.516 278.754 326.516ZM290.747 332.547C290.137 332.547 289.622 332.047 289.637 331.438C289.622 330.828 290.137 330.328 290.747 330.328C291.341 330.328 291.856 330.828 291.856 331.438C291.856 332.047 291.341 332.547 290.747 332.547ZM290.747 326.375C290.137 326.375 289.622 325.875 289.637 325.266C289.622 324.656 290.137 324.156 290.747 324.156C291.341 324.156 291.856 324.656 291.856 325.266C291.856 325.875 291.341 326.375 290.747 326.375ZM300.74 334.156C298.115 334.156 296.584 332.047 296.584 328.344C296.584 324.672 298.146 322.531 300.74 322.531C303.334 322.531 304.896 324.672 304.896 328.344C304.896 332.047 303.349 334.156 300.74 334.156ZM300.74 332.672C302.271 332.672 303.177 331.172 303.177 328.344C303.177 325.531 302.256 323.984 300.74 323.984C299.224 323.984 298.302 325.531 298.302 328.344C298.302 331.172 299.209 332.672 300.74 332.672ZM310.135 334.156C307.51 334.156 305.979 332.047 305.979 328.344C305.979 324.672 307.541 322.531 310.135 322.531C312.729 322.531 314.291 324.672 314.291 328.344C314.291 332.047 312.744 334.156 310.135 334.156ZM310.135 332.672C311.666 332.672 312.572 331.172 312.572 328.344C312.572 325.531 311.651 323.984 310.135 323.984C308.619 323.984 307.697 325.531 307.697 328.344C307.697 331.172 308.604 332.672 310.135 332.672ZM319.889 322.688V334H318.155V324.406H318.092L315.389 326.172V324.531L318.202 322.688H319.889ZM327.3 327.625V329.062H322.284V327.625H327.3ZM332.758 334.156C330.133 334.156 328.601 332.047 328.601 328.344C328.601 324.672 330.164 322.531 332.758 322.531C335.351 322.531 336.914 324.672 336.914 328.344C336.914 332.047 335.367 334.156 332.758 334.156ZM332.758 332.672C334.289 332.672 335.195 331.172 335.195 328.344C335.195 325.531 334.273 323.984 332.758 323.984C331.242 323.984 330.32 325.531 330.32 328.344C330.32 331.172 331.226 332.672 332.758 332.672ZM342.152 334.156C339.527 334.156 337.996 332.047 337.996 328.344C337.996 324.672 339.559 322.531 342.152 322.531C344.746 322.531 346.309 324.672 346.309 328.344C346.309 332.047 344.762 334.156 342.152 334.156ZM342.152 332.672C343.684 332.672 344.59 331.172 344.59 328.344C344.59 325.531 343.668 323.984 342.152 323.984C340.637 323.984 339.715 325.531 339.715 328.344C339.715 331.172 340.621 332.672 342.152 332.672ZM352.626 327.625V329.062H347.61V327.625H352.626ZM358.083 334.156C355.458 334.156 353.927 332.047 353.927 328.344C353.927 324.672 355.489 322.531 358.083 322.531C360.677 322.531 362.239 324.672 362.239 328.344C362.239 332.047 360.693 334.156 358.083 334.156ZM358.083 332.672C359.614 332.672 360.521 331.172 360.521 328.344C360.521 325.531 359.599 323.984 358.083 323.984C356.568 323.984 355.646 325.531 355.646 328.344C355.646 331.172 356.552 332.672 358.083 332.672ZM367.478 334.156C364.853 334.156 363.322 332.047 363.322 328.344C363.322 324.672 364.884 322.531 367.478 322.531C370.072 322.531 371.634 324.672 371.634 328.344C371.634 332.047 370.087 334.156 367.478 334.156ZM367.478 332.672C369.009 332.672 369.916 331.172 369.916 328.344C369.916 325.531 368.994 323.984 367.478 323.984C365.962 323.984 365.041 325.531 365.041 328.344C365.041 331.172 365.947 332.672 367.478 332.672ZM376.873 334.156C374.248 334.156 372.717 332.047 372.717 328.344C372.717 324.672 374.279 322.531 376.873 322.531C379.467 322.531 381.029 324.672 381.029 328.344C381.029 332.047 379.482 334.156 376.873 334.156ZM376.873 332.672C378.404 332.672 379.311 331.172 379.311 328.344C379.311 325.531 378.389 323.984 376.873 323.984C375.357 323.984 374.436 325.531 374.436 328.344C374.436 331.172 375.342 332.672 376.873 332.672ZM386.268 334.156C383.643 334.156 382.112 332.047 382.112 328.344C382.112 324.672 383.674 322.531 386.268 322.531C388.862 322.531 390.424 324.672 390.424 328.344C390.424 332.047 388.878 334.156 386.268 334.156ZM386.268 332.672C387.799 332.672 388.706 331.172 388.706 328.344C388.706 325.531 387.784 323.984 386.268 323.984C384.753 323.984 383.831 325.531 383.831 328.344C383.831 331.172 384.737 332.672 386.268 332.672ZM395.663 334.156C393.038 334.156 391.507 332.047 391.507 328.344C391.507 324.672 393.069 322.531 395.663 322.531C398.257 322.531 399.819 324.672 399.819 328.344C399.819 332.047 398.273 334.156 395.663 334.156ZM395.663 332.672C397.194 332.672 398.101 331.172 398.101 328.344C398.101 325.531 397.179 323.984 395.663 323.984C394.148 323.984 393.226 325.531 393.226 328.344C393.226 331.172 394.132 332.672 395.663 332.672Z" fill="#5E6075"/>
<mask id="path-5-inside-1_47_240" fill="white">
<path d="M97 322H167V334H97V322Z"/>
</mask>
<path d="M166 322V334H168V322H166Z" fill="#5E6075" mask="url(#path-5-inside-1_47_240)"/>
<path d="M95.4375 320.875V334.766H94.2656V327.484H92.2188V334.047H91.0938V321.188H92.2188V326.469H94.2656V320.875H95.4375ZM89.2812 322.578V323.594H85.2969V330.281C87.2109 330.273 88.5391 330.203 90.0781 329.891L90.1875 330.922C88.5156 331.266 87.0938 331.328 84.9688 331.328H84.0781V322.578H89.2812ZM109.629 332.047V333.062H96.9106V332.047H100.458V328.734H98.0669V327.719H100.239V323.188H98.0356V322.172H108.411V323.188H106.208V327.719H108.379V328.734H105.989V332.047H109.629ZM101.458 327.719H105.004V323.188H101.458V327.719ZM101.692 332.047H104.77V328.734H101.692V332.047ZM115.263 332C114.716 332 114.247 331.547 114.263 330.984C114.247 330.438 114.716 329.984 115.263 329.984C115.81 329.984 116.263 330.438 116.263 330.984C116.263 331.547 115.81 332 115.263 332ZM115.263 325.719C114.716 325.719 114.247 325.266 114.263 324.703C114.247 324.156 114.716 323.703 115.263 323.703C115.81 323.703 116.263 324.156 116.263 324.703C116.263 325.266 115.81 325.719 115.263 325.719ZM128.241 321.781C128.241 325.297 125.662 327.781 121.569 328.875L121.069 327.906C124.506 327 126.67 325.164 126.944 322.781H121.803V321.781H128.241ZM132.381 320.891V328.734H131.162V320.891H132.381ZM132.381 329.406V334.578H123.35V329.406H132.381ZM124.553 330.391V333.578H131.178V330.391H124.553ZM146.136 320.875V334.766H144.964V327.484H142.917V334.047H141.792V321.188H142.917V326.469H144.964V320.875H146.136ZM139.979 322.578V323.594H135.995V330.281C137.909 330.273 139.237 330.203 140.776 329.891L140.886 330.922C139.214 331.266 137.792 331.328 135.667 331.328H134.776V322.578H139.979ZM160.327 332.047V333.062H147.609V332.047H151.156V328.734H148.765V327.719H150.937V323.188H148.734V322.172H159.109V323.188H156.906V327.719H159.077V328.734H156.687V332.047H160.327ZM152.156 327.719H155.702V323.188H152.156V327.719ZM152.39 332.047H155.468V328.734H152.39V332.047Z" fill="#5E6075"/>
<g clip-path="url(#clip0_47_240)">
<path d="M164.088 102.943V100H161.496V102.943H158.585V105.316H161.496V108.291H164.088V105.316H167V102.943H164.088Z" fill="#C9252C"/>
<path d="M93.8227 119.145H84.2236C83.0397 119.145 82.5278 118.956 81.8878 118.354L80.8319 117.373C80.192 116.804 80 116.392 80 115.348V108.956C80 108.323 80.352 107.975 81.0559 107.975H92.7988V110.759H83.7757V115.063C83.7757 115.316 83.8396 115.38 83.9676 115.57L84.6396 116.171C84.7676 116.329 84.8955 116.361 85.1515 116.361H93.8227V119.145ZM100.35 129.81H96.6385V123.924H81.2159V121.108H99.3262C100.062 121.108 100.382 121.424 100.382 122.057V129.81H100.35ZM100.35 107.5V112.057H103.71V114.873H100.35V119.81H96.6385V107.468H100.35V107.5Z" fill="black"/>
<path d="M110.013 127.627C108.861 127.627 108.349 127.5 107.613 126.772L106.238 125.411C105.534 124.715 105.406 124.43 105.406 123.228V109.051C105.406 108.418 105.726 108.101 106.43 108.101H118.172V110.918H109.149V116.076H116.989V118.861H109.149V123.006C109.149 123.259 109.245 123.449 109.469 123.639L110.365 124.557C110.589 124.747 110.781 124.81 111.005 124.81H119.26V127.627H110.013ZM126.3 107.5V129.335H122.588V118.544H118.588V115.728H122.588V107.5H126.3Z" fill="black"/>
<path d="M151.609 107.658V119.557H148.09V114.905H145.306V118.386C145.306 119.019 144.954 119.367 144.282 119.367H138.651C137.467 119.367 136.923 119.177 136.283 118.576L135.451 117.722C134.875 117.12 134.651 116.741 134.651 115.728V107.816H138.235V110.854H141.658V107.816H145.306V112.215H148.09V107.658H151.609ZM157.625 127.342L156.185 129.905C153.049 128.734 149.946 127.373 147.77 126.139C147.386 125.949 147.098 125.791 147.002 125.538C146.906 125.791 146.682 125.918 146.266 126.139C143.994 127.373 140.89 128.829 137.819 130L136.347 127.342C139.259 126.266 142.01 125.095 144.378 123.797C144.954 123.513 145.146 123.07 145.146 122.532V120.633H148.858V122.532C148.858 123.07 149.05 123.513 149.626 123.829C151.961 125.095 154.809 126.234 157.625 127.342ZM141.658 116.582V113.544H138.235V115.538C138.235 115.823 138.267 115.886 138.427 116.044L138.811 116.392C138.939 116.519 139.067 116.582 139.323 116.582H141.658ZM156.953 107.5V121.646H153.401V107.5H156.953Z" fill="black"/>
</g>
<defs>
<clipPath id="clip0_47_240">
<rect width="87" height="30" fill="white" transform="translate(80 100)"/>
</clipPath>
</defs>
</svg>
