<svg width="1280" height="483" viewBox="0 0 1280 483" fill="none" xmlns="http://www.w3.org/2000/svg">
<rect width="1280" height="483" fill="white"/>
<path d="M11.5156 178.328V181.781H13.5469V183.031H11.5156V186.547H10.0312V178.328H11.5156ZM11.5156 187.297V192.344H10.0312V188.484H2.26562V187.297H11.5156ZM7.39062 179.312V180.516H2.60938V184.375C5.33594 184.367 6.875 184.281 8.625 183.922L8.79688 185.109C6.90625 185.5 5.25 185.578 2.25 185.578H1.14062V179.312H7.39062ZM25.3756 178.328V192.359H23.9069V184.719H21.1256V183.5H23.9069V178.328H25.3756ZM20.8912 179.578V180.781H15.8444V183.5H20.2975V184.688H15.8444V187.812C18.1881 187.805 19.8131 187.75 21.6725 187.422L21.8287 188.625C19.7975 188.953 18.0319 189.031 15.4381 189.047H14.3444V179.578H20.8912ZM28.8919 179.281V181.406H31.595V179.281H32.97V181.922H34.6887V178.625H36.095V186.578H34.6887V183.156H32.97V185.844H27.4856V179.281H28.8919ZM28.8919 184.656H31.595V182.562H28.8919V184.656ZM38.8294 178.328V187.844H37.4231V178.328H38.8294ZM34.8294 187.703C34.8294 189.375 36.9231 190.781 39.5794 191.109L39.0325 192.266C36.8294 191.953 34.9622 190.961 34.095 189.531C33.2122 190.961 31.345 191.953 29.1419 192.266L28.6106 191.109C31.2356 190.781 33.345 189.375 33.345 187.703V187.281H34.8294V187.703ZM52.8456 185.641V186.828H40.08V185.641H52.8456ZM51.4081 190.828V192.031H41.6894V187.969H43.1894V190.828H51.4081ZM46.455 178.797C49.4863 178.781 51.455 179.844 51.455 181.594C51.455 183.359 49.4863 184.422 46.455 184.438C43.4081 184.422 41.455 183.359 41.455 181.594C41.455 179.844 43.4081 178.781 46.455 178.797ZM46.455 179.984C44.3144 179.984 42.9706 180.594 42.9863 181.594C42.9706 182.625 44.3144 183.219 46.455 183.219C48.5956 183.219 49.9238 182.625 49.9238 181.594C49.9238 180.594 48.5956 179.984 46.455 179.984ZM69.3156 185.141V186.328H56.5344V185.141H62.2062V183.656H58.1281V178.969H67.7375V180.141H59.5969V182.469H67.8312V183.656H63.6437V185.141H69.3156ZM62.9094 187.234C65.925 187.234 67.7375 188.156 67.7375 189.781C67.7375 191.406 65.925 192.312 62.9094 192.328C59.8781 192.312 58.05 191.406 58.05 189.781C58.05 188.156 59.8781 187.234 62.9094 187.234ZM62.9094 188.391C60.7687 188.391 59.55 188.891 59.55 189.781C59.55 190.672 60.7687 191.172 62.9094 191.156C65.0187 191.172 66.2531 190.672 66.2531 189.781C66.2531 188.891 65.0187 188.391 62.9094 188.391ZM82.4881 184.125V185.312H76.8319V186.531H80.8788V189.812H72.7225V191.047H81.2694V192.188H71.2694V188.734H79.41V187.672H71.2538V186.531H75.3475V185.312H69.7225V184.125H82.4881ZM80.8475 178.781V183.094H71.3631V178.781H80.8475ZM72.8163 179.953V181.922H79.3631V179.953H72.8163ZM91.3644 181.25C91.3644 183.062 92.7081 184.766 94.8644 185.453L94.0987 186.609C92.4894 186.078 91.2706 184.977 90.6456 183.578C90.0128 185.102 88.7706 186.305 87.0987 186.891L86.3331 185.719C88.505 184.984 89.8487 183.172 89.8644 181.25V180.641H86.7237V179.438H94.4425V180.641H91.3644V181.25ZM97.7862 178.344V188.562H96.3019V178.344H97.7862ZM98.2081 190.828V192.031H88.63V187.594H90.13V190.828H98.2081ZM112.177 189.406V190.656H99.365V189.406H102.865V186.938H100.927V182.484H109.146V180.531H100.896V179.312H110.615V183.688H102.396V185.719H110.943V186.938H108.818V189.406H112.177ZM104.302 189.406H107.365V186.938H104.302V189.406ZM127.491 178.344V186.625H126.007V184.922H122.476V183.703H126.007V182H122.616C121.718 184.25 119.616 185.836 116.585 186.703L115.991 185.547C119.304 184.594 121.241 182.82 121.507 180.562H116.71V179.344H123.116C123.116 179.859 123.062 180.359 122.976 180.828H126.007V178.344H127.491ZM122.882 186.781C125.71 186.781 127.569 187.812 127.585 189.516C127.569 191.219 125.71 192.266 122.882 192.266C120.007 192.266 118.163 191.219 118.163 189.516C118.163 187.812 120.007 186.781 122.882 186.781ZM122.882 187.953C120.882 187.953 119.632 188.516 119.632 189.516C119.632 190.5 120.882 191.078 122.882 191.078C124.851 191.078 126.085 190.5 126.101 189.516C126.085 188.516 124.851 187.953 122.882 187.953ZM140.679 178.328V186.812H139.195V183.766H137.008V182.531H139.195V178.328H140.679ZM140.679 187.5V192.156H131.445V187.5H140.679ZM132.914 188.672V190.953H139.226V188.672H132.914ZM137.226 179.719V180.906H129.023V179.719H132.398V178.203H133.867V179.719H137.226ZM133.133 181.547C135.054 181.547 136.414 182.578 136.414 184.047C136.414 185.562 135.054 186.547 133.133 186.562C131.211 186.547 129.836 185.562 129.836 184.047C129.836 182.578 131.211 181.547 133.133 181.547ZM133.133 182.688C132.008 182.672 131.258 183.219 131.258 184.047C131.258 184.906 132.008 185.438 133.133 185.438C134.242 185.438 134.992 184.906 134.992 184.047C134.992 183.219 134.242 182.672 133.133 182.688ZM148.571 178.562C151.727 178.562 153.571 179.406 153.571 180.969C153.571 182.531 151.727 183.391 148.571 183.391C145.414 183.391 143.571 182.531 143.571 180.969C143.571 179.406 145.414 178.562 148.571 178.562ZM148.571 179.656C146.336 179.656 145.102 180.141 145.117 180.969C145.102 181.828 146.336 182.281 148.571 182.281C150.805 182.281 152.039 181.828 152.039 180.969C152.039 180.141 150.805 179.656 148.571 179.656ZM154.961 184.25V185.438H142.196V184.25H154.961ZM153.352 186.516V189.797H145.196V191.047H153.742V192.188H143.742V188.719H151.883V187.625H143.727V186.516H153.352ZM169.556 178.328V183.75H171.806V185H169.556V192.328H168.072V178.328H169.556ZM160.65 179.5V183.094H164.353V179.5H165.822V189H159.181V179.5H160.65ZM160.65 187.781H164.353V184.266H160.65V187.781ZM182.838 178.328V181.859H184.869V183.078H182.838V186.906H181.354V178.328H182.838ZM178.338 187.219C181.229 187.219 182.994 188.156 182.994 189.766C182.994 191.375 181.229 192.312 178.338 192.297C175.432 192.312 173.635 191.375 173.635 189.766C173.635 188.156 175.432 187.219 178.338 187.219ZM178.338 188.375C176.291 188.375 175.119 188.891 175.119 189.766C175.119 190.656 176.291 191.172 178.338 191.156C180.338 191.172 181.526 190.656 181.526 189.766C181.526 188.891 180.338 188.375 178.338 188.375ZM178.947 179.281V180.469H173.932V182.047H178.682V183.219H173.932V184.828C176.502 184.836 178.033 184.766 179.822 184.453L179.979 185.641C178.057 185.984 176.416 186.031 173.541 186.031H172.447V179.281H178.947ZM191.401 179.172C194.339 179.172 196.573 180.719 196.573 183.078C196.573 185.438 194.339 187 191.401 186.984C188.464 187 186.245 185.438 186.245 183.078C186.245 180.719 188.464 179.172 191.401 179.172ZM191.401 180.375C189.261 180.359 187.651 181.453 187.667 183.078C187.651 184.719 189.261 185.766 191.401 185.766C193.542 185.766 195.136 184.719 195.136 183.078C195.136 181.453 193.542 180.359 191.401 180.375ZM197.839 189.281V190.516H185.026V189.281H197.839ZM211.027 189.406V190.656H198.214V189.406H203.855V186.953H199.777V182.5H207.996V180.531H199.746V179.312H209.464V183.688H201.246V185.734H209.792V186.953H205.324V189.406H211.027ZM220.091 185.766V188.188C221.372 188.117 222.669 188.008 223.887 187.828L223.997 188.922C220.825 189.5 217.434 189.531 214.934 189.531L214.747 188.312C215.872 188.305 217.2 188.297 218.606 188.25V185.766H220.091ZM223.231 180.109V181.312H220.091C220.169 182.953 221.497 184.375 223.591 184.938L222.903 186.094C221.231 185.617 219.981 184.602 219.356 183.266C218.739 184.672 217.512 185.734 215.825 186.219L215.122 185.094C217.208 184.5 218.52 183.031 218.591 181.312H215.497V180.109H218.606V178.438H220.091V180.109H223.231ZM226.247 178.328V192.359H224.762V178.328H226.247ZM239.185 179.672V181.047C239.185 182.781 239.185 184.719 238.654 187.578L237.154 187.422C237.701 184.719 237.701 182.734 237.701 181.047V180.875H229.201V179.672H239.185ZM240.622 189.203V190.438H227.857V189.203H232.716V184.266H234.185V189.203H240.622ZM245.607 179.328C247.826 179.312 249.404 180.688 249.42 182.656C249.404 184.625 247.826 186 245.607 186C243.404 186 241.779 184.625 241.795 182.656C241.779 180.688 243.404 179.312 245.607 179.328ZM245.607 180.609C244.248 180.609 243.248 181.422 243.264 182.656C243.248 183.891 244.248 184.703 245.607 184.703C246.967 184.703 247.967 183.891 247.967 182.656C247.967 181.422 246.967 180.609 245.607 180.609ZM252.623 178.328V192.359H251.139V178.328H252.623ZM241.123 188.109C243.67 188.109 247.201 188.078 250.264 187.641L250.373 188.719C247.201 189.328 243.811 189.344 241.311 189.344L241.123 188.109ZM262.062 179.328C264.281 179.312 265.859 180.688 265.874 182.656C265.859 184.625 264.281 186 262.062 186C259.859 186 258.234 184.625 258.249 182.656C258.234 180.688 259.859 179.312 262.062 179.328ZM262.062 180.609C260.703 180.609 259.703 181.422 259.718 182.656C259.703 183.891 260.703 184.703 262.062 184.703C263.421 184.703 264.421 183.891 264.421 182.656C264.421 181.422 263.421 180.609 262.062 180.609ZM269.078 178.328V192.359H267.593V178.328H269.078ZM257.578 188.109C260.124 188.109 263.656 188.078 266.718 187.641L266.828 188.719C263.656 189.328 260.265 189.344 257.765 189.344L257.578 188.109ZM283.5 189.406V190.656H270.688V189.406H274.188V186.938H272.25V182.484H280.469V180.531H272.219V179.312H281.938V183.688H273.719V185.719H282.266V186.938H280.141V189.406H283.5ZM275.625 189.406H278.688V186.938H275.625V189.406ZM289.063 181.25C289.063 183.062 290.407 184.766 292.563 185.453L291.797 186.609C290.188 186.078 288.969 184.977 288.344 183.578C287.712 185.102 286.469 186.305 284.797 186.891L284.032 185.719C286.204 184.984 287.547 183.172 287.563 181.25V180.641H284.422V179.438H292.141V180.641H289.063V181.25ZM295.485 178.344V188.562H294.001V178.344H295.485ZM295.907 190.828V192.031H286.329V187.594H287.829V190.828H295.907ZM309.845 184.062V185.25H297.064V184.062H309.845ZM308.329 181.859V183.047H298.736V178.734H308.189V179.938H300.22V181.859H308.329ZM308.22 186.359V189.75H300.064V191H308.611V192.172H298.611V188.656H306.751V187.5H298.595V186.359H308.22ZM314.814 179.328C317.033 179.312 318.611 180.688 318.627 182.656C318.611 184.625 317.033 186 314.814 186C312.611 186 310.986 184.625 311.002 182.656C310.986 180.688 312.611 179.312 314.814 179.328ZM314.814 180.609C313.455 180.609 312.455 181.422 312.471 182.656C312.455 183.891 313.455 184.703 314.814 184.703C316.174 184.703 317.174 183.891 317.174 182.656C317.174 181.422 316.174 180.609 314.814 180.609ZM321.83 178.328V192.359H320.346V178.328H321.83ZM310.33 188.109C312.877 188.109 316.408 188.078 319.471 187.641L319.58 188.719C316.408 189.328 313.017 189.344 310.517 189.344L310.33 188.109ZM330.581 178.969C332.425 178.953 333.847 180.023 334.159 181.594H336.894V178.328H338.378V185.844H336.894V182.812H334.175C333.87 184.422 332.441 185.5 330.581 185.5C328.441 185.5 326.909 184.156 326.909 182.219C326.909 180.312 328.441 178.953 330.581 178.969ZM330.581 180.203C329.253 180.203 328.331 181.016 328.331 182.219C328.331 183.422 329.253 184.25 330.581 184.25C331.878 184.25 332.8 183.422 332.8 182.219C332.8 181.016 331.878 180.203 330.581 180.203ZM330.722 186.516V188.141H336.894V186.516H338.378V192.156H329.253V186.516H330.722ZM330.722 190.938H336.894V189.312H330.722V190.938ZM352.691 186.359V187.562H346.973V192.312H345.519V187.562H339.879V186.359H352.691ZM351.082 179.078V184.578H341.488V179.078H351.082ZM342.941 180.266V183.422H349.598V180.266H342.941ZM367.364 178.328V183.125H369.364V184.359H367.364V189.266H365.88V178.328H367.364ZM367.864 190.828V192.031H358.318V188.531H359.802V190.828H367.864ZM356.255 186.547C357.333 186.547 358.591 186.539 359.911 186.484V185.516C358.318 185.344 357.302 184.57 357.318 183.422C357.302 182.062 358.63 181.25 360.646 181.266C362.646 181.25 363.974 182.062 363.974 183.422C363.974 184.562 362.974 185.336 361.396 185.516V186.422C362.646 186.352 363.911 186.242 365.083 186.062L365.208 187.109C362.224 187.672 358.849 187.719 356.411 187.734L356.255 186.547ZM364.693 179.625V180.719H356.614V179.625H359.911V178.281H361.396V179.625H364.693ZM360.646 182.281C359.443 182.281 358.724 182.703 358.724 183.422C358.724 184.109 359.443 184.531 360.646 184.531C361.833 184.531 362.552 184.109 362.552 183.422C362.552 182.703 361.833 182.281 360.646 182.281ZM381.209 178.344V186.625H379.724V184.922H376.193V183.703H379.724V182H376.334C375.435 184.25 373.334 185.836 370.302 186.703L369.709 185.547C373.021 184.594 374.959 182.82 375.224 180.562H370.427V179.344H376.834C376.834 179.859 376.779 180.359 376.693 180.828H379.724V178.344H381.209ZM376.599 186.781C379.427 186.781 381.287 187.812 381.302 189.516C381.287 191.219 379.427 192.266 376.599 192.266C373.724 192.266 371.881 191.219 371.881 189.516C371.881 187.812 373.724 186.781 376.599 186.781ZM376.599 187.953C374.599 187.953 373.349 188.516 373.349 189.516C373.349 190.5 374.599 191.078 376.599 191.078C378.568 191.078 379.802 190.5 379.818 189.516C379.802 188.516 378.568 187.953 376.599 187.953ZM389.1 178.562C392.256 178.562 394.1 179.406 394.1 180.969C394.1 182.531 392.256 183.391 389.1 183.391C385.944 183.391 384.1 182.531 384.1 180.969C384.1 179.406 385.944 178.562 389.1 178.562ZM389.1 179.656C386.866 179.656 385.631 180.141 385.647 180.969C385.631 181.828 386.866 182.281 389.1 182.281C391.334 182.281 392.569 181.828 392.569 180.969C392.569 180.141 391.334 179.656 389.1 179.656ZM395.491 184.25V185.438H382.725V184.25H395.491ZM393.881 186.516V189.797H385.725V191.047H394.272V192.188H384.272V188.719H392.413V187.625H384.256V186.516H393.881ZM411.164 178.328V192.328H409.742V185.062H408.008V191.656H406.617V178.703H408.008V183.859H409.742V178.328H411.164ZM405.226 180.109C405.211 183.797 403.992 187.094 399.992 189.359L399.133 188.328C402.242 186.57 403.554 184.188 403.789 181.328H399.726V180.109H405.226ZM417.305 180.891C417.305 182.781 418.571 184.625 420.68 185.359L419.867 186.516C418.336 185.93 417.196 184.773 416.602 183.312C415.992 184.938 414.797 186.219 413.149 186.844L412.352 185.672C414.524 184.891 415.821 182.953 415.836 180.844V179.188H417.305V180.891ZM424.039 178.344V188.781H422.555V182.75H419.602V181.531H422.555V178.344H424.039ZM424.352 190.828V192.031H414.899V187.609H416.399V190.828H424.352ZM436.462 178.328V184H438.712V185.234H436.462V192.328H434.993V178.328H436.462ZM433.774 180.516V181.734H425.478V180.516H428.931V178.516H430.415V180.516H433.774ZM429.681 182.766C431.681 182.766 433.149 184.109 433.165 186.016C433.149 187.938 431.681 189.266 429.681 189.281C427.665 189.266 426.196 187.938 426.196 186.016C426.196 184.109 427.665 182.766 429.681 182.766ZM429.681 183.984C428.493 183.984 427.603 184.812 427.618 186.016C427.603 187.234 428.493 188.047 429.681 188.031C430.868 188.047 431.743 187.234 431.743 186.016C431.743 184.812 430.868 183.984 429.681 183.984ZM450.384 178.328V192.328H448.884V178.328H450.384ZM446.212 179.828C446.212 183.922 444.462 187.484 439.666 189.781L438.884 188.578C442.611 186.805 444.423 184.281 444.712 181.016H439.556V179.828H446.212ZM459.792 178.969C461.901 178.969 463.432 180.141 463.432 181.875C463.432 183.594 461.901 184.781 459.792 184.766C457.682 184.781 456.182 183.594 456.182 181.875C456.182 180.141 457.682 178.969 459.792 178.969ZM459.792 180.172C458.526 180.172 457.604 180.844 457.62 181.875C457.604 182.891 458.526 183.562 459.792 183.547C461.089 183.562 462.011 182.891 462.011 181.875C462.011 180.844 461.089 180.172 459.792 180.172ZM466.839 178.344V192.328H465.37V178.344H466.839ZM455.182 185.859C457.761 185.859 461.339 185.797 464.401 185.344L464.511 186.453C463.237 186.695 461.909 186.844 460.62 186.938V191.891H459.136V187.016C457.776 187.078 456.495 187.086 455.386 187.094L455.182 185.859ZM479.386 178.344V182.844H481.418V184.078H479.386V188.812H477.902V178.344H479.386ZM476.746 179.969V181.172H468.402V179.969H471.839V178.328H473.324V179.969H476.746ZM472.574 181.844C474.589 181.844 475.964 182.891 475.964 184.484C475.964 186.078 474.589 187.109 472.574 187.109C470.543 187.109 469.168 186.078 469.168 184.484C469.168 182.891 470.543 181.844 472.574 181.844ZM472.574 182.984C471.386 182.984 470.589 183.562 470.605 184.484C470.589 185.391 471.386 185.953 472.574 185.953C473.761 185.953 474.558 185.391 474.574 184.484C474.558 183.562 473.761 182.984 472.574 182.984ZM479.98 190.828V192.031H470.511V187.984H471.996V190.828H479.98ZM496.028 178.953V180.062C496.028 181.148 496.028 182.375 495.716 183.953H497.591V185.156H484.856V183.953H494.231C494.348 183.375 494.427 182.852 494.481 182.359L486.278 182.703L486.091 181.547L494.544 181.312C494.559 180.898 494.559 180.516 494.559 180.141H486.45V178.953H496.028ZM496.122 186.328V189.719H487.825V190.984H496.622V192.156H486.341V188.609H494.653V187.469H486.309V186.328H496.122ZM508.935 178.328V183.797H511.185V185.047H508.935V192.359H507.466V178.328H508.935ZM504.982 179.594V184.734H500.076V187.766C502.482 187.758 504.263 187.672 506.31 187.297L506.451 188.5C504.263 188.906 502.372 189 499.747 189.016H498.607V183.531H503.513V180.797H498.576V179.594H504.982ZM524.014 186.281V187.516H518.295V192.328H516.842V187.516H511.201V186.281H524.014ZM517.576 178.859C520.529 178.859 522.561 180.062 522.561 181.969C522.561 183.859 520.529 185.047 517.576 185.047C514.608 185.047 512.592 183.859 512.592 181.969C512.592 180.062 514.608 178.859 517.576 178.859ZM517.576 180.047C515.498 180.062 514.108 180.781 514.123 181.969C514.108 183.141 515.498 183.859 517.576 183.859C519.654 183.859 521.045 183.141 521.045 181.969C521.045 180.781 519.654 180.062 517.576 180.047ZM535.749 184.969V186.188H525.999V179.578H535.624V180.797H527.468V184.969H535.749ZM537.218 189.25V190.484H524.405V189.25H537.218ZM545.906 181.891C545.906 184.453 547.344 187 549.484 187.969L548.578 189.156C546.984 188.359 545.789 186.773 545.172 184.859C544.555 186.875 543.328 188.578 541.719 189.422L540.781 188.219C542.953 187.188 544.406 184.484 544.406 181.891V179.5H545.906V181.891ZM552.531 178.328V192.359H551.062V184.188H547.938V182.984H551.062V178.328H552.531ZM565.641 178.328V192.359H564.157V178.328H565.641ZM556.313 179.5V183.094H560.079V179.5H561.547V189H554.829V179.5H556.313ZM556.313 187.781H560.079V184.266H556.313V187.781ZM574.345 180.312C574.345 182.594 576.782 184.75 579.47 185.234L578.782 186.469C576.548 185.984 574.486 184.516 573.579 182.547C572.657 184.5 570.603 185.969 568.361 186.469L567.704 185.234C570.361 184.734 572.782 182.594 572.782 180.312V179.25H574.345V180.312ZM580.048 189.25V190.484H567.236V189.25H580.048ZM592.033 178.328V185.844H590.549V178.328H592.033ZM584.33 186.516V188.094H590.564V186.516H592.033V192.156H582.877V186.516H584.33ZM584.33 190.938H590.564V189.266H584.33V190.938ZM584.439 178.969C586.58 178.969 588.158 180.297 588.158 182.219C588.158 184.141 586.58 185.469 584.439 185.453C582.299 185.469 580.705 184.141 580.705 182.219C580.705 180.297 582.299 178.969 584.439 178.969ZM584.439 180.219C583.111 180.203 582.158 181.031 582.158 182.219C582.158 183.422 583.111 184.234 584.439 184.234C585.752 184.234 586.705 183.422 586.705 182.219C586.705 181.031 585.752 180.203 584.439 180.219ZM605.237 178.328V192.328H603.753V178.328H605.237ZM595.94 179.688V187.484C597.979 187.469 600.128 187.305 602.378 186.844L602.581 188.094C600.096 188.594 597.846 188.766 595.643 188.766H594.471V179.688H595.94ZM617.706 178.328V183.75H619.956V184.969H617.706V192.359H616.222V178.328H617.706ZM613.941 179.672V180.875H608.878V187.641C611.23 187.633 612.995 187.531 614.987 187.172L615.175 188.422C612.987 188.812 611.128 188.891 608.519 188.875H607.394V179.672H613.941ZM621.582 191.109C620.972 191.109 620.457 190.609 620.472 190C620.457 189.391 620.972 188.891 621.582 188.891C622.176 188.891 622.691 189.391 622.691 190C622.691 190.609 622.176 191.109 621.582 191.109ZM7.6875 203.562C7.67188 205.422 9.95312 207.172 12.7031 207.531L12.125 208.75C9.83594 208.383 7.82031 207.195 6.92188 205.547C6 207.203 3.99219 208.383 1.71875 208.75L1.125 207.531C3.875 207.172 6.125 205.438 6.14062 203.562V202.797H7.6875V203.562ZM13.2812 210.125V211.344H7.59375V216.328H6.14062V211.344H0.515625V210.125H13.2812ZM18.2662 203.328C20.485 203.312 22.0631 204.688 22.0787 206.656C22.0631 208.625 20.485 210 18.2662 210C16.0631 210 14.4381 208.625 14.4537 206.656C14.4381 204.688 16.0631 203.312 18.2662 203.328ZM18.2662 204.609C16.9069 204.609 15.9069 205.422 15.9225 206.656C15.9069 207.891 16.9069 208.703 18.2662 208.703C19.6256 208.703 20.6256 207.891 20.6256 206.656C20.6256 205.422 19.6256 204.609 18.2662 204.609ZM25.2819 202.328V216.359H23.7975V202.328H25.2819ZM13.7819 212.109C16.3287 212.109 19.86 212.078 22.9225 211.641L23.0319 212.719C19.86 213.328 16.4694 213.344 13.9694 213.344L13.7819 212.109ZM31.7512 205.891C31.7356 208.375 33.1731 210.906 35.2669 211.922L34.345 213.109C32.8216 212.32 31.6419 210.75 31.0325 208.875C30.3997 210.875 29.1731 212.547 27.5794 213.375L26.6575 212.172C28.8137 211.141 30.2669 208.453 30.2669 205.891V203.5H31.7512V205.891ZM37.7981 202.328V207.906H40.0481V209.172H37.7981V216.328H36.3137V202.328H37.7981ZM44.2831 203.219C46.4394 203.219 48.0488 204.578 48.0488 206.547C48.0488 208.281 46.7988 209.539 45.0331 209.812V212.031C46.2753 211.977 47.5175 211.883 48.6738 211.734L48.7831 212.844C45.83 213.359 42.5644 213.375 40.1425 213.359L39.9081 212.141C40.9941 212.133 42.2441 212.125 43.5488 212.094V209.812C41.7363 209.555 40.5019 208.289 40.5175 206.547C40.5019 204.578 42.08 203.219 44.2831 203.219ZM44.2831 204.469C42.9394 204.484 41.955 205.297 41.955 206.547C41.955 207.797 42.9394 208.625 44.2831 208.609C45.6113 208.625 46.58 207.797 46.5956 206.547C46.58 205.297 45.6113 204.484 44.2831 204.469ZM51.0019 202.328V208.016H53.1581V209.266H51.0019V216.328H49.5175V202.328H51.0019ZM69.3156 209.141V210.328H56.5344V209.141H62.2062V207.656H58.1281V202.969H67.7375V204.141H59.5969V206.469H67.8312V207.656H63.6437V209.141H69.3156ZM62.9094 211.234C65.925 211.234 67.7375 212.156 67.7375 213.781C67.7375 215.406 65.925 216.312 62.9094 216.328C59.8781 216.312 58.05 215.406 58.05 213.781C58.05 212.156 59.8781 211.234 62.9094 211.234ZM62.9094 212.391C60.7687 212.391 59.55 212.891 59.55 213.781C59.55 214.672 60.7687 215.172 62.9094 215.156C65.0187 215.172 66.2531 214.672 66.2531 213.781C66.2531 212.891 65.0187 212.391 62.9094 212.391ZM82.4881 208.125V209.312H76.8319V210.531H80.8788V213.812H72.7225V215.047H81.2694V216.188H71.2694V212.734H79.41V211.672H71.2538V210.531H75.3475V209.312H69.7225V208.125H82.4881ZM80.8475 202.781V207.094H71.3631V202.781H80.8475ZM72.8163 203.953V205.922H79.3631V203.953H72.8163ZM97.7706 202.328V216.328H96.2862V202.328H97.7706ZM91.4425 206.828C91.4425 209.062 92.9269 211.344 95.0987 212.266L94.2862 213.406C92.6769 212.703 91.3878 211.25 90.7394 209.484C90.1066 211.352 88.8409 212.906 87.2081 213.641L86.38 212.5C88.5519 211.531 89.9894 209.172 89.9894 206.828V205.906H86.8019V204.719H89.9737V202.609H91.4425V204.719H94.5831V205.906H91.4425V206.828ZM112.177 213.406V214.656H99.365V213.406H102.865V210.938H100.927V206.484H109.146V204.531H100.896V203.312H110.615V207.688H102.396V209.719H110.943V210.938H108.818V213.406H112.177ZM104.302 213.406H107.365V210.938H104.302V213.406ZM124.6 202.328V216.328H123.178V202.328H124.6ZM121.756 202.594V215.641H120.334V208.891H118.756C118.631 211.625 117.459 213.328 115.725 213.312C113.897 213.328 112.709 211.406 112.709 208.375C112.709 205.344 113.897 203.438 115.725 203.453C117.428 203.438 118.584 205.055 118.756 207.688H120.334V202.594H121.756ZM115.725 204.844C114.709 204.844 114.084 206.141 114.084 208.375C114.084 210.609 114.709 211.906 115.725 211.906C116.756 211.906 117.397 210.609 117.397 208.375C117.397 206.141 116.756 204.844 115.725 204.844ZM140.679 202.344V213.016H139.195V210.125H136.945V208.938H139.195V207.203H136.945V205.984H139.195V202.344H140.679ZM136.898 203.969V205.172H129.023V203.969H132.304V202.328H133.773V203.969H136.898ZM133.023 205.844C134.914 205.844 136.242 206.938 136.258 208.531C136.242 210.141 134.914 211.234 133.023 211.234C131.133 211.234 129.804 210.141 129.804 208.531C129.804 206.938 131.133 205.844 133.023 205.844ZM133.023 207C131.929 207.016 131.195 207.609 131.195 208.531C131.195 209.484 131.929 210.078 133.023 210.078C134.101 210.078 134.851 209.484 134.867 208.531C134.851 207.609 134.101 207.016 133.023 207ZM140.992 214.828V216.031H131.539V212.078H133.039V214.828H140.992ZM154.211 202.328V216.328H152.789V209.094H150.977V215.609H149.617V202.609H150.977V207.875H152.789V202.328H154.211ZM147.914 204.016V205.219H144.149V211.703C145.867 211.688 147.164 211.609 148.664 211.328L148.774 212.547C147.086 212.891 145.649 212.953 143.602 212.969H142.664V204.016H147.914ZM160.399 204.812C160.399 206.578 161.665 208.312 163.774 209.031L163.009 210.188C161.438 209.641 160.274 208.523 159.665 207.141C159.056 208.68 157.829 209.914 156.165 210.5L155.399 209.328C157.556 208.594 158.884 206.719 158.884 204.828V204.438H155.852V203.234H163.399V204.438H160.399V204.812ZM167.056 211.406V216.328H165.571V212.609H157.571V211.406H167.056ZM167.056 202.328V210.703H165.571V207.109H162.977V205.891H165.571V202.328H167.056ZM180.166 202.328V216.359H178.681V202.328H180.166ZM172.681 203.375C174.759 203.375 176.291 205.281 176.291 208.281C176.291 211.297 174.759 213.203 172.681 213.203C170.572 213.203 169.056 211.297 169.056 208.281C169.056 205.281 170.572 203.375 172.681 203.375ZM172.681 204.703C171.384 204.703 170.494 206.078 170.494 208.281C170.494 210.5 171.384 211.875 172.681 211.875C173.962 211.875 174.853 210.5 174.853 208.281C174.853 206.078 173.962 204.703 172.681 204.703ZM193.088 203.672V205.047C193.088 206.781 193.088 208.719 192.557 211.578L191.057 211.422C191.604 208.719 191.604 206.734 191.604 205.047V204.875H183.104V203.672H193.088ZM194.526 213.203V214.438H181.76V213.203H186.619V208.266H188.088V213.203H194.526ZM210.339 204.312V205.516H198.824V204.312H203.855V202.531H205.324V204.312H210.339ZM211.027 213.578V214.781H198.214V213.578H201.496V211.078C200.48 210.633 199.917 209.914 199.917 208.969C199.917 207.297 201.699 206.312 204.589 206.328C207.464 206.312 209.246 207.297 209.246 208.969C209.246 209.914 208.675 210.633 207.667 211.078V213.578H211.027ZM204.589 207.469C202.589 207.469 201.417 208.016 201.433 208.969C201.417 209.906 202.589 210.453 204.589 210.453C206.558 210.453 207.73 209.906 207.73 208.969C207.73 208.016 206.558 207.469 204.589 207.469ZM202.98 213.578H206.214V211.484C205.722 211.57 205.175 211.609 204.589 211.609C204.003 211.609 203.464 211.57 202.98 211.484V213.578ZM217.777 202.484C220.934 202.484 222.777 203.344 222.777 204.891C222.777 206.453 220.934 207.312 217.777 207.312C214.621 207.312 212.777 206.453 212.777 204.891C212.777 203.344 214.621 202.484 217.777 202.484ZM217.777 203.594C215.543 203.609 214.309 204.062 214.324 204.891C214.309 205.766 215.543 206.203 217.777 206.203C220.012 206.203 221.246 205.766 221.246 204.891C221.246 204.062 220.012 203.609 217.777 203.594ZM224.168 208.078V209.266H220.731V210.516H222.559V213.797H214.402V215.047H222.949V216.188H212.949V212.719H221.09V211.625H212.934V210.516H214.793V209.266H211.402V208.078H224.168ZM216.262 210.516H219.246V209.266H216.262V210.516ZM229.606 204.812C229.606 206.578 230.872 208.312 232.981 209.031L232.216 210.188C230.645 209.641 229.481 208.523 228.872 207.141C228.262 208.68 227.036 209.914 225.372 210.5L224.606 209.328C226.762 208.594 228.091 206.719 228.091 204.828V204.438H225.059V203.234H232.606V204.438H229.606V204.812ZM236.262 211.406V216.328H234.778V212.609H226.778V211.406H236.262ZM236.262 202.328V210.703H234.778V207.109H232.184V205.891H234.778V202.328H236.262ZM249.388 202.344V212.516H247.904V202.344H249.388ZM249.81 214.828V216.031H240.232V211.484H241.732V214.828H249.81ZM241.794 203.281C243.904 203.281 245.513 204.719 245.513 206.75C245.513 208.812 243.904 210.234 241.794 210.234C239.685 210.234 238.06 208.812 238.06 206.75C238.06 204.719 239.685 203.281 241.794 203.281ZM241.794 204.578C240.482 204.578 239.513 205.469 239.513 206.75C239.513 208.062 240.482 208.938 241.794 208.938C243.076 208.938 244.06 208.062 244.06 206.75C244.06 205.469 243.076 204.578 241.794 204.578ZM267.046 213.328V214.547H254.233V213.328H259.842V210H261.311V213.328H267.046ZM261.342 204.281C261.342 206.5 263.78 208.578 266.483 209.031L265.842 210.25C263.577 209.797 261.491 208.398 260.561 206.469C259.639 208.391 257.577 209.812 255.327 210.25L254.671 209.031C257.358 208.578 259.78 206.5 259.78 204.281V203.219H261.342V204.281ZM280.234 213.328V214.578H267.421V213.328H280.234ZM279.062 203.672V204.891H276.921V209.562H279.015V210.75H268.546V209.562H270.64V204.891H268.515V203.672H279.062ZM272.109 209.562H275.468V204.891H272.109V209.562ZM291.969 209.781V210.969H282.219V203.484H291.828V204.688H283.719V206.578H291.531V207.75H283.719V209.781H291.969ZM293.422 213.344V214.562H280.609V213.344H293.422ZM297.344 203.188C299.126 203.188 300.422 204.25 300.422 205.797C300.422 207.344 299.126 208.406 297.344 208.391C295.547 208.406 294.251 207.344 294.266 205.797C294.251 204.25 295.547 203.188 297.344 203.188ZM297.344 204.312C296.297 204.297 295.579 204.906 295.579 205.797C295.579 206.688 296.297 207.281 297.344 207.297C298.376 207.281 299.094 206.688 299.094 205.797C299.094 204.906 298.376 204.297 297.344 204.312ZM305.844 202.328V216.328H304.438V202.328H305.844ZM303.126 202.609V215.609H301.719V212.594H299.219V211.438H301.719V202.609H303.126ZM293.61 209.375C295.532 209.375 298.61 209.359 300.891 209L301.001 210.109C300.055 210.297 299.016 210.414 297.985 210.484V215.188H296.579V210.562C295.54 210.602 294.571 210.609 293.782 210.609L293.61 209.375ZM310.783 203.375C312.681 203.375 314.072 204.984 314.298 207.578H317.189V202.328H318.658V216.359H317.189V208.781H314.314C314.15 211.508 312.728 213.203 310.783 213.203C308.689 213.203 307.22 211.297 307.236 208.281C307.22 205.281 308.689 203.375 310.783 203.375ZM310.783 204.703C309.517 204.703 308.642 206.078 308.642 208.281C308.642 210.5 309.517 211.875 310.783 211.875C312.048 211.875 312.923 210.5 312.923 208.281C312.923 206.078 312.048 204.703 310.783 204.703ZM335.081 202.328V216.328H333.581V202.328H335.081ZM330.909 203.828C330.909 207.922 329.159 211.484 324.362 213.781L323.581 212.578C327.307 210.805 329.12 208.281 329.409 205.016H324.253V203.828H330.909ZM343.769 202.859C343.769 204.469 345.987 205.812 348.722 206.125L348.206 207.25C345.909 206.977 343.902 206.008 343.003 204.578C342.097 206.008 340.089 206.977 337.816 207.25L337.3 206.125C340.034 205.812 342.253 204.469 342.253 202.859V202.391H343.769V202.859ZM349.394 208.062V209.25H343.737V210.5H347.784V213.812H339.628V215.047H348.175V216.188H338.175V212.734H346.316V211.641H338.159V210.5H342.253V209.25H336.628V208.062H349.394ZM362.629 213.406V214.656H349.816V213.406H355.457V210.953H351.379V206.5H359.598V204.531H351.348V203.312H361.066V207.688H352.848V209.734H361.394V210.953H356.926V213.406H362.629ZM379.068 210.281V211.516H373.349V216.328H371.896V211.516H366.255V210.281H379.068ZM372.63 202.859C375.583 202.859 377.614 204.062 377.614 205.969C377.614 207.859 375.583 209.047 372.63 209.047C369.661 209.047 367.646 207.859 367.646 205.969C367.646 204.062 369.661 202.859 372.63 202.859ZM372.63 204.047C370.552 204.062 369.161 204.781 369.177 205.969C369.161 207.141 370.552 207.859 372.63 207.859C374.708 207.859 376.099 207.141 376.099 205.969C376.099 204.781 374.708 204.062 372.63 204.047ZM391.084 202.328V216.359H389.599V202.328H391.084ZM386.802 203.594V208.703H381.771V211.766C384.037 211.758 386.021 211.656 388.365 211.266L388.506 212.484C386.021 212.906 383.912 213 381.443 213H380.256V207.516H385.287V204.797H380.24V203.594H386.802ZM397.209 203.328C399.428 203.312 401.006 204.688 401.022 206.656C401.006 208.625 399.428 210 397.209 210C395.006 210 393.381 208.625 393.397 206.656C393.381 204.688 395.006 203.312 397.209 203.328ZM397.209 204.609C395.85 204.609 394.85 205.422 394.866 206.656C394.85 207.891 395.85 208.703 397.209 208.703C398.569 208.703 399.569 207.891 399.569 206.656C399.569 205.422 398.569 204.609 397.209 204.609ZM404.225 202.328V216.359H402.741V202.328H404.225ZM392.725 212.109C395.272 212.109 398.803 212.078 401.866 211.641L401.975 212.719C398.803 213.328 395.413 213.344 392.913 213.344L392.725 212.109ZM420.242 202.906V207.703H416.211V209.328H421.867V210.531H409.101V209.328H414.742V207.703H410.726V202.906H420.242ZM412.179 204.078V206.516H418.773V204.078H412.179ZM420.304 211.859V216.328H418.804V213.031H410.523V211.859H420.304ZM435.102 213.453V214.672H422.289V213.453H425.727V210.344H423.414V209.141H425.508V204.781H423.383V203.562H433.93V204.781H431.789V209.141H433.883V210.344H431.586V213.453H435.102ZM426.977 209.141H430.336V204.781H426.977V209.141ZM427.211 213.453H430.102V210.344H427.211V213.453ZM446.806 206.422V207.609H437.165V202.828H438.634V206.422H446.806ZM448.274 209.375V210.562H435.462V209.375H448.274ZM446.899 214.781V216H437.056V211.891H438.54V214.781H446.899ZM464.698 209.469V210.672H451.932V209.469H457.573V207.953H453.604V202.656H455.073V204.172H461.557V202.656H463.041V207.953H459.041V209.469H464.698ZM463.135 211.922V216.328H461.635V213.109H453.354V211.922H463.135ZM455.073 206.766H461.557V205.281H455.073V206.766ZM469.995 204.703C469.979 206.438 471.245 208.062 473.386 208.719L472.682 209.859C471.065 209.359 469.878 208.312 469.261 206.984C468.643 208.453 467.417 209.602 465.729 210.156L464.979 208.984C467.151 208.281 468.495 206.578 468.495 204.719V204.422H465.432V203.203H473.011V204.422H469.995V204.703ZM476.12 202.328V205.484H478.151V206.703H476.12V210H474.636V202.328H476.12ZM468.62 210.641V212.219H474.636V210.641H476.12V216.156H467.151V210.641H468.62ZM468.62 214.953H474.636V213.375H468.62V214.953ZM489.214 202.328V208H491.464V209.234H489.214V216.328H487.746V202.328H489.214ZM486.527 204.516V205.734H478.23V204.516H481.683V202.516H483.168V204.516H486.527ZM482.433 206.766C484.433 206.766 485.902 208.109 485.918 210.016C485.902 211.938 484.433 213.266 482.433 213.281C480.418 213.266 478.949 211.938 478.949 210.016C478.949 208.109 480.418 206.766 482.433 206.766ZM482.433 207.984C481.246 207.984 480.355 208.812 480.371 210.016C480.355 211.234 481.246 212.047 482.433 212.031C483.621 212.047 484.496 211.234 484.496 210.016C484.496 208.812 483.621 207.984 482.433 207.984ZM502.824 203.672V205.047C502.824 206.781 502.824 208.719 502.293 211.578L500.793 211.422C501.34 208.719 501.34 206.734 501.34 205.047V204.875H492.84V203.672H502.824ZM504.262 213.203V214.438H491.496V213.203H496.356V208.266H497.824V213.203H504.262ZM519.622 202.344V212.688H518.138V207.406H515.076V210.359H508.622V203.266H510.107V205.641H513.607V203.266H515.076V206.203H518.138V202.344H519.622ZM519.935 214.828V216.031H510.482V211.672H511.982V214.828H519.935ZM510.107 209.156H513.607V206.781H510.107V209.156ZM532.795 202.328V216.328H531.326V209.094H528.186V207.875H531.326V202.328H532.795ZM528.232 203.828C528.217 207.891 526.639 211.375 521.889 213.734L521.107 212.562C524.818 210.75 526.467 208.227 526.732 205.016H521.732V203.828H528.232ZM547.139 213.406V214.656H534.327V213.406H539.968V210.953H535.889V206.5H544.108V204.531H535.858V203.312H545.577V207.688H537.358V209.734H545.905V210.953H541.436V213.406H547.139ZM560.312 209.344V210.547H554.765V213.266H553.265V210.547H547.499V209.344H560.312ZM558.89 214.812V216.031H549.109V211.922H550.593V214.812H558.89ZM553.89 202.656C556.906 202.656 558.859 203.75 558.859 205.5C558.859 207.25 556.906 208.328 553.89 208.328C550.89 208.328 548.906 207.25 548.906 205.5C548.906 203.75 550.89 202.656 553.89 202.656ZM553.89 203.844C551.843 203.844 550.484 204.469 550.499 205.5C550.484 206.516 551.843 207.125 553.89 207.125C555.953 207.125 557.296 206.516 557.296 205.5C557.296 204.469 555.953 203.844 553.89 203.844ZM575.907 202.328V211.156H574.501V207.25H572.876V210.672H571.485V202.594H572.876V206.031H574.501V202.328H575.907ZM570.969 203.922V205.094H563.891V203.922H566.719V202.438H568.188V203.922H570.969ZM567.438 205.75C569.219 205.75 570.469 206.703 570.469 208.156C570.469 209.609 569.219 210.562 567.438 210.562C565.688 210.562 564.438 209.609 564.438 208.156C564.438 206.703 565.688 205.75 567.438 205.75ZM567.438 206.844C566.454 206.844 565.766 207.359 565.766 208.156C565.766 208.953 566.454 209.484 567.438 209.484C568.454 209.484 569.126 208.953 569.126 208.156C569.126 207.359 568.454 206.844 567.438 206.844ZM571.219 211.359C574.188 211.359 575.969 212.25 575.985 213.844C575.969 215.406 574.188 216.312 571.219 216.297C568.251 216.312 566.469 215.406 566.485 213.844C566.469 212.25 568.251 211.359 571.219 211.359ZM571.219 212.5C569.141 212.5 567.938 212.969 567.954 213.844C567.938 214.688 569.141 215.172 571.219 215.156C573.313 215.172 574.485 214.688 574.501 213.844C574.485 212.969 573.313 212.5 571.219 212.5ZM588.829 202.328V210.656H587.345V207.109H584.736V205.891H587.345V202.328H588.829ZM584.142 211.047C587.079 211.047 588.876 212.016 588.876 213.688C588.876 215.359 587.079 216.312 584.142 216.328C581.204 216.312 579.392 215.359 579.407 213.688C579.392 212.016 581.204 211.047 584.142 211.047ZM584.142 212.203C582.095 212.203 580.876 212.734 580.876 213.688C580.876 214.625 582.095 215.172 584.142 215.156C586.189 215.172 587.407 214.625 587.407 213.688C587.407 212.734 586.189 212.203 584.142 212.203ZM582.173 204.797C582.173 206.578 583.439 208.297 585.548 209.016L584.782 210.188C583.212 209.641 582.056 208.523 581.454 207.141C580.837 208.711 579.611 209.969 577.939 210.578L577.157 209.391C579.329 208.641 580.657 206.75 580.657 204.812V204.5H577.626V203.297H585.173V204.5H582.173V204.797ZM597.487 202.969C599.331 202.953 600.753 204.023 601.065 205.594H603.799V202.328H605.284V209.844H603.799V206.812H601.081C600.776 208.422 599.346 209.5 597.487 209.5C595.346 209.5 593.815 208.156 593.815 206.219C593.815 204.312 595.346 202.953 597.487 202.969ZM597.487 204.203C596.159 204.203 595.237 205.016 595.237 206.219C595.237 207.422 596.159 208.25 597.487 208.25C598.784 208.25 599.706 207.422 599.706 206.219C599.706 205.016 598.784 204.203 597.487 204.203ZM597.628 210.516V212.141H603.799V210.516H605.284V216.156H596.159V210.516H597.628ZM597.628 214.938H603.799V213.312H597.628V214.938ZM619.597 210.359V211.562H613.878V216.312H612.425V211.562H606.784V210.359H619.597ZM617.987 203.078V208.578H608.394V203.078H617.987ZM609.847 204.266V207.422H616.503V204.266H609.847ZM632.785 208.75V209.891H619.972V208.75H632.785ZM631.207 210.875V213.953H622.988V215.109H631.644V216.156H621.504V212.969H629.738V211.938H621.488V210.875H631.207ZM631.176 202.688V205.719H623.082V206.781H631.41V207.828H621.613V204.734H629.691V203.734H621.582V202.688H631.176ZM11.5156 226.328V230.469H13.5469V231.703H11.5156V236.5H10.0156V226.328H11.5156ZM7.71875 227.391C7.71875 231.062 5.21875 233.734 1.125 234.969L0.5 233.781C3.77344 232.797 5.8125 230.938 6.10938 228.625H1.09375V227.391H7.71875ZM12.0938 238.828V240.031H2.625V235.453H4.125V238.828H12.0938ZM26.5162 237.328V238.547H13.7037V237.328H19.3131V234H20.7819V237.328H26.5162ZM20.8131 228.281C20.8131 230.5 23.2506 232.578 25.9537 233.031L25.3131 234.25C23.0475 233.797 20.9616 232.398 20.0319 230.469C19.11 232.391 17.0475 233.812 14.7975 234.25L14.1412 233.031C16.8287 232.578 19.2506 230.5 19.2506 228.281V227.219H20.8131V228.281ZM37.8606 226.328V232.188H39.97V233.438H37.8606V240.328H36.3762V226.328H37.8606ZM26.72 236.516C27.8216 236.516 29.1028 236.516 30.4387 236.469V235.047C28.8606 234.828 27.8294 233.875 27.845 232.516C27.8294 230.938 29.1887 229.891 31.1887 229.891C33.1731 229.891 34.5481 230.938 34.5637 232.516C34.5481 233.875 33.5012 234.836 31.9231 235.062V236.406C33.1653 236.359 34.4153 236.258 35.5794 236.094L35.6731 237.188C32.6419 237.734 29.3606 237.75 26.9544 237.75L26.72 236.516ZM35.3762 227.984V229.172H26.9856V227.984H30.4387V226.359H31.9231V227.984H35.3762ZM31.1887 231.047C30.0169 231.047 29.2356 231.625 29.2356 232.516C29.2356 233.406 30.0169 233.953 31.1887 233.953C32.3606 233.953 33.1419 233.406 33.1419 232.516C33.1419 231.625 32.3606 231.047 31.1887 231.047ZM54.2525 226.328V232H56.5025V233.234H54.2525V240.328H52.7837V226.328H54.2525ZM51.565 228.516V229.734H43.2681V228.516H46.7212V226.516H48.2056V228.516H51.565ZM47.4712 230.766C49.4712 230.766 50.94 232.109 50.9556 234.016C50.94 235.938 49.4712 237.266 47.4712 237.281C45.4556 237.266 43.9869 235.938 43.9869 234.016C43.9869 232.109 45.4556 230.766 47.4712 230.766ZM47.4712 231.984C46.2837 231.984 45.3931 232.812 45.4087 234.016C45.3931 235.234 46.2837 236.047 47.4712 236.031C48.6587 236.047 49.5337 235.234 49.5337 234.016C49.5337 232.812 48.6587 231.984 47.4712 231.984ZM60.3312 227.375C61.6047 227.375 62.6594 228.109 63.2844 229.375H66.7375V226.328H68.2062V240.359H66.7375V234.984H63.3781C62.7766 236.391 61.675 237.203 60.3312 237.203C58.2375 237.203 56.7687 235.297 56.7844 232.281C56.7687 229.281 58.2375 227.375 60.3312 227.375ZM60.3312 228.703C59.0656 228.703 58.1906 230.078 58.1906 232.281C58.1906 234.5 59.0656 235.875 60.3312 235.875C61.5969 235.875 62.4719 234.5 62.4719 232.281C62.4719 230.078 61.5969 228.703 60.3312 228.703ZM63.7062 230.594C63.8078 231.109 63.8781 231.672 63.8781 232.281C63.8781 232.812 63.8312 233.305 63.7375 233.766H66.7375V230.594H63.7062ZM85.77 233.141V234.328H72.9887V233.141H78.6606V231.656H74.5825V226.969H84.1919V228.141H76.0512V230.469H84.2856V231.656H80.0981V233.141H85.77ZM79.3637 235.234C82.3794 235.234 84.1919 236.156 84.1919 237.781C84.1919 239.406 82.3794 240.312 79.3637 240.328C76.3325 240.312 74.5044 239.406 74.5044 237.781C74.5044 236.156 76.3325 235.234 79.3637 235.234ZM79.3637 236.391C77.2231 236.391 76.0044 236.891 76.0044 237.781C76.0044 238.672 77.2231 239.172 79.3637 239.156C81.4731 239.172 82.7075 238.672 82.7075 237.781C82.7075 236.891 81.4731 236.391 79.3637 236.391ZM98.9425 232.125V233.312H93.2862V234.531H97.3331V237.812H89.1769V239.047H97.7237V240.188H87.7237V236.734H95.8644V235.672H87.7081V234.531H91.8019V233.312H86.1769V232.125H98.9425ZM97.3019 226.781V231.094H87.8175V226.781H97.3019ZM89.2706 227.953V229.922H95.8175V227.953H89.2706ZM101.521 227.188V229.312H105.021V227.188H106.49V228.547H109.552V226.328H111.037V234.781H109.552V232.625H106.49V233.812H100.037V227.188H101.521ZM101.521 232.625H105.021V230.484H101.521V232.625ZM106.349 235.031C109.287 235.047 111.084 236 111.084 237.688C111.084 239.344 109.287 240.312 106.349 240.297C103.412 240.312 101.599 239.344 101.615 237.688C101.599 236 103.412 235.047 106.349 235.031ZM106.349 236.172C104.302 236.188 103.084 236.719 103.084 237.688C103.084 238.625 104.302 239.156 106.349 239.156C108.396 239.156 109.615 238.625 109.615 237.688C109.615 236.719 108.396 236.188 106.349 236.172ZM106.49 231.406H109.552V229.734H106.49V231.406ZM124.194 226.344V236.953H122.709V235.609H119.897V234.562H122.709V226.344H124.194ZM124.537 238.828V240.031H114.428V235.922H115.897V238.828H124.537ZM112.491 232.734C115.084 232.719 118.569 232.688 121.553 232.312L121.647 233.375C120.452 233.57 119.194 233.703 117.959 233.781V236.516H116.475V233.859C115.116 233.922 113.811 233.93 112.678 233.922L112.491 232.734ZM117.069 226.875C119.116 226.875 120.537 227.859 120.537 229.344C120.537 230.828 119.116 231.781 117.069 231.781C114.991 231.781 113.584 230.828 113.584 229.344C113.584 227.859 114.991 226.875 117.069 226.875ZM117.069 227.984C115.819 227.969 114.975 228.5 114.991 229.344C114.975 230.172 115.819 230.688 117.069 230.688C118.272 230.688 119.116 230.172 119.131 229.344C119.116 228.5 118.272 227.969 117.069 227.984ZM130.304 227.328C132.522 227.312 134.101 228.688 134.116 230.656C134.101 232.625 132.522 234 130.304 234C128.101 234 126.476 232.625 126.491 230.656C126.476 228.688 128.101 227.312 130.304 227.328ZM130.304 228.609C128.944 228.609 127.944 229.422 127.96 230.656C127.944 231.891 128.944 232.703 130.304 232.703C131.663 232.703 132.663 231.891 132.663 230.656C132.663 229.422 131.663 228.609 130.304 228.609ZM137.319 226.328V240.359H135.835V226.328H137.319ZM125.819 236.109C128.366 236.109 131.897 236.078 134.96 235.641L135.069 236.719C131.897 237.328 128.507 237.344 126.007 237.344L125.819 236.109ZM147.383 229.25C147.383 231.062 148.727 232.766 150.883 233.453L150.117 234.609C148.508 234.078 147.289 232.977 146.664 231.578C146.032 233.102 144.789 234.305 143.117 234.891L142.352 233.719C144.524 232.984 145.867 231.172 145.883 229.25V228.641H142.742V227.438H150.461V228.641H147.383V229.25ZM153.805 226.344V236.562H152.321V226.344H153.805ZM154.227 238.828V240.031H144.649V235.594H146.149V238.828H154.227ZM168.196 237.406V238.656H155.384V237.406H158.884V234.938H156.946V230.484H165.165V228.531H156.915V227.312H166.634V231.688H158.415V233.719H166.962V234.938H164.837V237.406H168.196ZM160.321 237.406H163.384V234.938H160.321V237.406ZM179.713 226.844V227.656C179.697 228.516 179.697 229.711 179.401 231.25C179.924 231.219 180.447 231.172 180.963 231.125L181.041 232.078C179.729 232.25 178.354 232.359 177.01 232.422V234.578H175.541V232.484C174.283 232.531 173.072 232.539 171.979 232.547L171.807 231.469C173.651 231.461 175.791 231.438 177.901 231.344C178.01 230.844 178.08 230.391 178.135 229.969L172.901 230.312L172.666 229.234L178.213 228.984C178.237 228.609 178.244 228.266 178.244 227.953H173.072V226.844H179.713ZM183.479 226.344V234.547H181.994V233.875H179.26V232.906H181.994V226.344H183.479ZM183.479 235.016V238.016H175.416V239.109H183.901V240.188H173.963V237.031H182.01V236.047H173.901V235.016H183.479ZM196.651 226.328V240.359H195.167V226.328H196.651ZM192.37 227.594V232.703H187.339V235.766C189.604 235.758 191.589 235.656 193.932 235.266L194.073 236.484C191.589 236.906 189.479 237 187.011 237H185.823V231.516H190.854V228.797H185.807V227.594H192.37ZM205.996 227.562V228.781H200.542V231.484H205.464V232.672H200.542V235.812C202.996 235.805 204.761 235.703 206.839 235.375L206.996 236.578C204.777 236.938 202.855 237.016 200.214 237.016H199.074V227.562H205.996ZM209.855 226.328V240.328H208.355V226.328H209.855ZM224.199 232.75V233.891H211.387V232.75H224.199ZM222.621 234.875V237.953H214.402V239.109H223.059V240.156H212.918V236.969H221.152V235.938H212.902V234.875H222.621ZM222.59 226.688V229.719H214.496V230.781H222.824V231.828H213.027V228.734H221.106V227.734H212.996V226.688H222.59ZM240.841 228.641V229.859H238.857V231.625H240.841V232.844H238.857V235.312H237.372V226.328H238.857V228.641H240.841ZM234.388 235.422C237.247 235.422 239.013 236.328 239.013 237.875C239.013 239.391 237.247 240.312 234.388 240.297C231.497 240.312 229.732 239.391 229.747 237.875C229.732 236.328 231.497 235.422 234.388 235.422ZM234.388 236.562C232.372 236.562 231.201 237.016 231.216 237.875C231.201 238.688 232.372 239.172 234.388 239.172C236.372 239.172 237.544 238.688 237.544 237.875C237.544 237.016 236.372 236.562 234.388 236.562ZM236.216 227.828V229H227.872V227.828H231.31V226.219H232.794V227.828H236.216ZM232.044 229.641C234.06 229.641 235.435 230.641 235.435 232.141C235.435 233.641 234.06 234.625 232.044 234.609C229.997 234.625 228.638 233.641 228.638 232.141C228.638 230.641 229.997 229.641 232.044 229.641ZM232.044 230.75C230.857 230.75 230.06 231.281 230.076 232.141C230.06 232.969 230.857 233.484 232.044 233.484C233.232 233.484 234.029 232.969 234.044 232.141C234.029 231.281 233.232 230.75 232.044 230.75ZM245.873 228.562C245.873 230.406 247.154 232.109 249.248 232.797L248.451 233.969C246.92 233.43 245.772 232.336 245.17 230.953C244.553 232.523 243.365 233.75 241.732 234.359L240.936 233.172C243.123 232.391 244.389 230.531 244.404 228.438V227.062H245.873V228.562ZM252.045 226.328V229.844H254.076V231.094H252.045V234.781H250.561V226.328H252.045ZM247.529 235.109C250.404 235.109 252.17 236.062 252.17 237.703C252.17 239.359 250.404 240.312 247.529 240.297C244.623 240.312 242.826 239.359 242.826 237.703C242.826 236.062 244.623 235.109 247.529 235.109ZM247.529 236.281C245.498 236.281 244.295 236.812 244.311 237.703C244.295 238.625 245.498 239.125 247.529 239.141C249.545 239.125 250.717 238.625 250.717 237.703C250.717 236.812 249.545 236.281 247.529 236.281ZM259.374 229.891C259.358 232.453 260.905 235.016 263.077 235.984L262.186 237.156C260.577 236.391 259.303 234.82 258.655 232.906C257.999 234.953 256.71 236.648 255.03 237.469L254.124 236.219C256.327 235.234 257.874 232.562 257.874 229.891V227.5H259.374V229.891ZM265.827 226.328V240.359H264.342V226.328H265.827ZM274.968 227.75C274.968 231.875 273.593 235.594 268.453 238.094L267.656 236.938C270.163 235.719 271.726 234.211 272.609 232.422L267.937 232.859L267.734 231.562L273.078 231.219C273.296 230.508 273.437 229.75 273.499 228.953H268.437V227.75H274.968ZM279.062 226.328V240.328H277.562V226.328H279.062ZM291.938 227.672V229.047C291.938 230.781 291.938 232.719 291.406 235.578L289.906 235.422C290.453 232.719 290.453 230.734 290.453 229.047V228.875H281.953V227.672H291.938ZM293.375 237.203V238.438H280.609V237.203H285.469V232.266H286.938V237.203H293.375ZM309.876 237.359V238.594H297.064V237.359H302.704V234.484H298.533V227.281H300.017V229.688H306.892V227.281H308.361V234.484H304.173V237.359H309.876ZM300.017 233.281H306.892V230.891H300.017V233.281ZM322.377 228.297V229.5H310.861V228.297H315.892V226.531H317.361V228.297H322.377ZM323.064 237.547V238.75H310.252V237.547H315.892V235.688C313.439 235.539 311.955 234.57 311.955 233.016C311.955 231.328 313.736 230.344 316.627 230.344C319.486 230.344 321.283 231.328 321.283 233.016C321.283 234.57 319.791 235.539 317.361 235.688V237.547H323.064ZM316.627 231.516C314.627 231.516 313.455 232.047 313.471 233.016C313.455 233.984 314.627 234.516 316.627 234.531C318.596 234.516 319.767 233.984 319.767 233.016C319.767 232.047 318.596 231.516 316.627 231.516ZM328.315 230.453C328.315 232.672 329.768 235.141 331.893 236.141L331.049 237.297C329.479 236.539 328.237 234.961 327.612 233.125C326.963 235.133 325.651 236.859 324.049 237.656L323.174 236.484C325.299 235.469 326.846 232.828 326.846 230.453V228.969H323.69V227.734H331.362V228.969H328.315V230.453ZM334.346 226.328V231.875H336.596V233.125H334.346V240.328H332.862V226.328H334.346ZM349.409 232.062V233.25H336.628V232.062H349.409ZM347.894 229.859V231.047H338.3V226.734H347.753V227.938H339.784V229.859H347.894ZM347.784 234.359V237.75H339.628V239H348.175V240.172H338.175V236.656H346.316V235.5H338.159V234.359H347.784ZM357.613 227.828V228.688C357.613 229.859 357.613 231.672 357.207 234.172L355.738 234.062C356.09 231.82 356.129 230.203 356.144 229.031H350.457V227.828H357.613ZM354.019 231.828V236.016C355.512 235.969 357.027 235.867 358.426 235.688L358.504 236.797C355.582 237.266 352.332 237.328 349.848 237.312L349.676 236.109C350.551 236.102 351.527 236.094 352.551 236.062V231.828H354.019ZM360.723 226.328V232.109H362.863V233.375H360.723V240.328H359.223V226.328H360.723ZM379.083 237.328V238.547H366.271V237.328H371.88V234H373.349V237.328H379.083ZM373.38 228.281C373.38 230.5 375.818 232.578 378.521 233.031L377.88 234.25C375.614 233.797 373.528 232.398 372.599 230.469C371.677 232.391 369.614 233.812 367.364 234.25L366.708 233.031C369.396 232.578 371.818 230.5 371.818 228.281V227.219H373.38V228.281ZM392.224 233.688V234.859H379.427V233.688H385.084V232.469H381.099V226.703H390.662V227.875H382.599V229.016H390.302V230.125H382.599V231.312H390.756V232.469H386.568V233.688H392.224ZM385.834 235.781C388.912 235.766 390.662 236.578 390.662 238.047C390.662 239.531 388.912 240.312 385.834 240.297C382.724 240.312 380.974 239.531 380.974 238.047C380.974 236.578 382.724 235.766 385.834 235.781ZM385.834 236.891C383.631 236.891 382.443 237.297 382.459 238.047C382.443 238.797 383.631 239.188 385.834 239.172C388.006 239.188 389.177 238.797 389.177 238.047C389.177 237.297 388.006 236.891 385.834 236.891ZM399.022 226.562C402.178 226.562 404.022 227.406 404.022 228.969C404.022 230.531 402.178 231.391 399.022 231.391C395.866 231.391 394.022 230.531 394.022 228.969C394.022 227.406 395.866 226.562 399.022 226.562ZM399.022 227.656C396.788 227.656 395.553 228.141 395.569 228.969C395.553 229.828 396.788 230.281 399.022 230.281C401.256 230.281 402.491 229.828 402.491 228.969C402.491 228.141 401.256 227.656 399.022 227.656ZM405.413 232.25V233.438H392.647V232.25H405.413ZM403.803 234.516V237.797H395.647V239.047H404.194V240.188H394.194V236.719H402.334V235.625H394.178V234.516H403.803ZM420.742 226.344V236.953H419.258V235.609H416.445V234.562H419.258V226.344H420.742ZM421.086 238.828V240.031H410.976V235.922H412.445V238.828H421.086ZM409.039 232.734C411.633 232.719 415.117 232.688 418.101 232.312L418.195 233.375C417 233.57 415.742 233.703 414.508 233.781V236.516H413.023V233.859C411.664 233.922 410.359 233.93 409.226 233.922L409.039 232.734ZM413.617 226.875C415.664 226.875 417.086 227.859 417.086 229.344C417.086 230.828 415.664 231.781 413.617 231.781C411.539 231.781 410.133 230.828 410.133 229.344C410.133 227.859 411.539 226.875 413.617 226.875ZM413.617 227.984C412.367 227.969 411.523 228.5 411.539 229.344C411.523 230.172 412.367 230.688 413.617 230.688C414.82 230.688 415.664 230.172 415.679 229.344C415.664 228.5 414.82 227.969 413.617 227.984ZM433.305 226.328V229.812H435.305V231.078H433.305V234.578H431.821V226.328H433.305ZM433.305 235.172V238.094H425.571V239.156H433.821V240.188H424.086V237.141H431.836V236.203H424.055V235.172H433.305ZM422.196 233.25C423.282 233.25 424.539 233.25 425.852 233.203V232.422C424.242 232.273 423.242 231.633 423.258 230.578C423.242 229.438 424.555 228.766 426.586 228.766C428.602 228.766 429.914 229.438 429.914 230.578C429.914 231.625 428.922 232.266 427.336 232.422V233.156C428.586 233.094 429.852 232.992 431.024 232.828L431.149 233.797C428.133 234.297 424.821 234.312 422.352 234.312L422.196 233.25ZM430.633 227.328V228.359H422.555V227.328H425.852V226.203H427.336V227.328H430.633ZM426.586 229.734C425.383 229.734 424.664 230.047 424.664 230.578C424.664 231.141 425.383 231.484 426.586 231.484C427.774 231.484 428.492 231.141 428.492 230.578C428.492 230.047 427.774 229.734 426.586 229.734ZM446.384 226.328V232H448.634V233.234H446.384V240.328H444.915V226.328H446.384ZM443.696 228.516V229.734H435.399V228.516H438.853V226.516H440.337V228.516H443.696ZM439.603 230.766C441.603 230.766 443.071 232.109 443.087 234.016C443.071 235.938 441.603 237.266 439.603 237.281C437.587 237.266 436.118 235.938 436.118 234.016C436.118 232.109 437.587 230.766 439.603 230.766ZM439.603 231.984C438.415 231.984 437.524 232.812 437.54 234.016C437.524 235.234 438.415 236.047 439.603 236.031C440.79 236.047 441.665 235.234 441.665 234.016C441.665 232.812 440.79 231.984 439.603 231.984ZM460.697 226.328V240.328H459.291V226.328H460.697ZM457.744 226.688V239.641H456.337V233.141H453.603C452.767 234.766 451.439 236.188 449.462 237.344L448.619 236.281C451.587 234.516 453.017 232.164 453.275 229.281H449.275V228.062H454.744C454.736 229.43 454.548 230.734 454.119 231.953H456.337V226.688H457.744ZM476.026 226.328V232H478.276V233.234H476.026V240.328H474.557V226.328H476.026ZM473.339 228.516V229.734H465.042V228.516H468.495V226.516H469.979V228.516H473.339ZM469.245 230.766C471.245 230.766 472.714 232.109 472.729 234.016C472.714 235.938 471.245 237.266 469.245 237.281C467.229 237.266 465.761 235.938 465.761 234.016C465.761 232.109 467.229 230.766 469.245 230.766ZM469.245 231.984C468.057 231.984 467.167 232.812 467.182 234.016C467.167 235.234 468.057 236.047 469.245 236.031C470.432 236.047 471.307 235.234 471.307 234.016C471.307 232.812 470.432 231.984 469.245 231.984ZM489.949 226.328V240.328H488.449V226.328H489.949ZM485.777 227.828C485.777 231.922 484.027 235.484 479.23 237.781L478.449 236.578C482.175 234.805 483.988 232.281 484.277 229.016H479.121V227.828H485.777ZM499.356 226.969C501.466 226.969 502.997 228.141 502.997 229.875C502.997 231.594 501.466 232.781 499.356 232.766C497.247 232.781 495.747 231.594 495.747 229.875C495.747 228.141 497.247 226.969 499.356 226.969ZM499.356 228.172C498.091 228.172 497.169 228.844 497.184 229.875C497.169 230.891 498.091 231.562 499.356 231.547C500.653 231.562 501.575 230.891 501.575 229.875C501.575 228.844 500.653 228.172 499.356 228.172ZM506.403 226.344V240.328H504.934V226.344H506.403ZM494.747 233.859C497.325 233.859 500.903 233.797 503.966 233.344L504.075 234.453C502.802 234.695 501.473 234.844 500.184 234.938V239.891H498.7V235.016C497.341 235.078 496.059 235.086 494.95 235.094L494.747 233.859ZM518.951 226.328V229.953H520.982V231.219H518.951V234.766H517.466V226.328H518.951ZM518.951 235.5V240.156H510.013V235.5H518.951ZM511.466 236.672V238.953H517.482V236.672H511.466ZM516.31 227.75V228.938H507.966V227.75H511.404V226.219H512.888V227.75H516.31ZM512.138 229.547C514.154 229.547 515.529 230.547 515.529 232.047C515.529 233.562 514.154 234.547 512.138 234.562C510.091 234.547 508.732 233.562 508.732 232.047C508.732 230.547 510.091 229.547 512.138 229.547ZM512.138 230.688C510.951 230.672 510.154 231.203 510.169 232.047C510.154 232.922 510.951 233.438 512.138 233.438C513.326 233.438 514.122 232.922 514.138 232.047C514.122 231.203 513.326 230.672 512.138 230.688ZM532.748 226.328V233.844H531.264V226.328H532.748ZM525.045 234.516V236.094H531.279V234.516H532.748V240.156H523.592V234.516H525.045ZM525.045 238.938H531.279V237.266H525.045V238.938ZM525.154 226.969C527.295 226.969 528.873 228.297 528.873 230.219C528.873 232.141 527.295 233.469 525.154 233.453C523.014 233.469 521.42 232.141 521.42 230.219C521.42 228.297 523.014 226.969 525.154 226.969ZM525.154 228.219C523.826 228.203 522.873 229.031 522.873 230.219C522.873 231.422 523.826 232.234 525.154 232.234C526.467 232.234 527.42 231.422 527.42 230.219C527.42 229.031 526.467 228.203 525.154 228.219ZM545.952 226.328V240.328H544.468V226.328H545.952ZM536.655 227.688V235.484C538.694 235.469 540.843 235.305 543.093 234.844L543.296 236.094C540.811 236.594 538.561 236.766 536.358 236.766H535.186V227.688H536.655ZM558.421 226.328V231.75H560.671V232.969H558.421V240.359H556.937V226.328H558.421ZM554.656 227.672V228.875H549.593V235.641C551.945 235.633 553.71 235.531 555.703 235.172L555.89 236.422C553.703 236.812 551.843 236.891 549.234 236.875H548.109V227.672H554.656ZM562.297 239.109C561.688 239.109 561.172 238.609 561.188 238C561.172 237.391 561.688 236.891 562.297 236.891C562.891 236.891 563.406 237.391 563.406 238C563.406 238.609 562.891 239.109 562.297 239.109Z" fill="#909091"/>
<path d="M1.35938 302.688C1.375 299.75 2.20312 297.297 3.67188 295.203H5.20312C4.125 296.75 3.09375 299.906 3.09375 302.688C3.09375 305.484 4.125 308.625 5.20312 310.188H3.67188C2.20312 308.094 1.375 305.641 1.35938 302.688ZM18.52 302.219V303.422H12.8325V308.312H11.3794V303.422H5.75437V302.219H18.52ZM17.3169 295.156V296.344H12.9887C13.0122 298.078 15.1684 299.625 17.8169 299.984L17.27 301.156C14.9731 300.797 12.9887 299.664 12.145 298.062C11.2778 299.664 9.30125 300.797 7.03562 301.156L6.47312 299.984C9.09031 299.625 11.2466 298.078 11.3012 296.344H6.94187V295.156H17.3169ZM22.9463 302.688C22.9306 305.641 22.1025 308.094 20.6338 310.188H19.1025C20.1806 308.625 21.2119 305.484 21.2119 302.688C21.2119 299.906 20.1806 296.75 19.1025 295.203H20.6338C22.1025 297.297 22.9306 299.75 22.9463 302.688ZM35.3412 294.328V297.781H37.3725V299.031H35.3412V302.547H33.8569V294.328H35.3412ZM35.3412 303.297V308.344H33.8569V304.484H26.0912V303.297H35.3412ZM31.2162 295.312V296.516H26.435V300.375C29.1616 300.367 30.7006 300.281 32.4506 299.922L32.6225 301.109C30.7319 301.5 29.0756 301.578 26.0756 301.578H24.9662V295.312H31.2162ZM49.3613 294.328V308.359H47.8925V300.719H45.1113V299.5H47.8925V294.328H49.3613ZM44.8769 295.578V296.781H39.83V299.5H44.2831V300.688H39.83V303.812C42.1738 303.805 43.7988 303.75 45.6581 303.422L45.8144 304.625C43.7831 304.953 42.0175 305.031 39.4238 305.047H38.33V295.578H44.8769ZM53.0375 295.281V297.406H55.7406V295.281H57.1156V297.922H58.8344V294.625H60.2406V302.578H58.8344V299.156H57.1156V301.844H51.6312V295.281H53.0375ZM53.0375 300.656H55.7406V298.562H53.0375V300.656ZM62.975 294.328V303.844H61.5687V294.328H62.975ZM58.975 303.703C58.975 305.375 61.0687 306.781 63.725 307.109L63.1781 308.266C60.975 307.953 59.1078 306.961 58.2406 305.531C57.3578 306.961 55.4906 307.953 53.2875 308.266L52.7562 307.109C55.3812 306.781 57.4906 305.375 57.4906 303.703V303.281H58.975V303.703Z" fill="#5E6075"/>
<path d="M4.9375 360.156C2.3125 360.156 0.78125 358.047 0.78125 354.344C0.78125 350.672 2.34375 348.531 4.9375 348.531C7.53125 348.531 9.09375 350.672 9.09375 354.344C9.09375 358.047 7.54688 360.156 4.9375 360.156ZM4.9375 358.672C6.46875 358.672 7.375 357.172 7.375 354.344C7.375 351.531 6.45312 349.984 4.9375 349.984C3.42188 349.984 2.5 351.531 2.5 354.344C2.5 357.172 3.40625 358.672 4.9375 358.672ZM14.3325 360.156C11.7075 360.156 10.1763 358.047 10.1763 354.344C10.1763 350.672 11.7388 348.531 14.3325 348.531C16.9263 348.531 18.4888 350.672 18.4888 354.344C18.4888 358.047 16.9419 360.156 14.3325 360.156ZM14.3325 358.672C15.8638 358.672 16.77 357.172 16.77 354.344C16.77 351.531 15.8481 349.984 14.3325 349.984C12.8169 349.984 11.895 351.531 11.895 354.344C11.895 357.172 12.8013 358.672 14.3325 358.672ZM19.79 360V358.75L23.7119 354.797C24.9463 353.5 25.5713 352.781 25.5713 351.797C25.5713 350.688 24.665 349.969 23.4775 349.969C22.2275 349.969 21.415 350.766 21.415 351.969H19.79C19.7744 349.906 21.3525 348.531 23.5088 348.531C25.6963 348.531 27.1963 349.906 27.2119 351.75C27.1963 353.016 26.6025 354.016 24.4775 356.109L22.1806 358.438V358.531H27.3994V360H19.79ZM33.8412 353.625V355.062H28.8256V353.625H33.8412ZM39.2988 360.156C36.6738 360.156 35.1425 358.047 35.1425 354.344C35.1425 350.672 36.705 348.531 39.2988 348.531C41.8925 348.531 43.455 350.672 43.455 354.344C43.455 358.047 41.9081 360.156 39.2988 360.156ZM39.2988 358.672C40.83 358.672 41.7363 357.172 41.7363 354.344C41.7363 351.531 40.8144 349.984 39.2988 349.984C37.7831 349.984 36.8613 351.531 36.8613 354.344C36.8613 357.172 37.7675 358.672 39.2988 358.672ZM44.7562 360V358.75L48.6781 354.797C49.9125 353.5 50.5375 352.781 50.5375 351.797C50.5375 350.688 49.6312 349.969 48.4437 349.969C47.1937 349.969 46.3812 350.766 46.3812 351.969H44.7562C44.7406 349.906 46.3187 348.531 48.475 348.531C50.6625 348.531 52.1625 349.906 52.1781 351.75C52.1625 353.016 51.5687 354.016 49.4437 356.109L47.1469 358.438V358.531H52.3656V360H44.7562ZM61.7806 350.891C61.7806 353.453 63.2181 356 65.3587 356.969L64.4525 358.156C62.8587 357.359 61.6634 355.773 61.0462 353.859C60.4291 355.875 59.2025 357.578 57.5931 358.422L56.6556 357.219C58.8275 356.188 60.2806 353.484 60.2806 350.891V348.5H61.7806V350.891ZM68.4056 347.328V361.359H66.9369V353.188H63.8119V351.984H66.9369V347.328H68.4056ZM76.4569 347.484C79.6131 347.484 81.4569 348.344 81.4569 349.891C81.4569 351.453 79.6131 352.312 76.4569 352.312C73.3006 352.312 71.4569 351.453 71.4569 349.891C71.4569 348.344 73.3006 347.484 76.4569 347.484ZM76.4569 348.594C74.2225 348.609 72.9881 349.062 73.0038 349.891C72.9881 350.766 74.2225 351.203 76.4569 351.203C78.6913 351.203 79.9256 350.766 79.9256 349.891C79.9256 349.062 78.6913 348.609 76.4569 348.594ZM82.8475 353.141V354.312H77.1913V355.516H81.2381V358.797H73.0819V360.047H81.6288V361.188H71.6288V357.719H79.7694V356.625H71.6131V355.516H75.7069V354.312H70.0819V353.141H82.8475ZM88.5706 350.891C88.555 353.453 90.1019 356.016 92.2738 356.984L91.3831 358.156C89.7738 357.391 88.5003 355.82 87.8519 353.906C87.1956 355.953 85.9066 357.648 84.2269 358.469L83.3206 357.219C85.5238 356.234 87.0706 353.562 87.0706 350.891V348.5H88.5706V350.891ZM95.0238 347.328V361.359H93.5394V347.328H95.0238ZM105.251 350.891C105.251 353.453 106.689 356 108.829 356.969L107.923 358.156C106.329 357.359 105.134 355.773 104.517 353.859C103.9 355.875 102.673 357.578 101.064 358.422L100.126 357.219C102.298 356.188 103.751 353.484 103.751 350.891V348.5H105.251V350.891ZM111.876 347.328V361.359H110.408V353.188H107.283V351.984H110.408V347.328H111.876ZM126.365 358.391V359.609H113.552V358.391H119.209V355.344H120.677V358.391H126.365ZM125.177 349.453V350.656H120.693C120.756 352.617 122.834 354.242 125.709 354.672L125.146 355.828C122.81 355.461 120.857 354.352 119.943 352.719C119.029 354.352 117.084 355.461 114.74 355.828L114.177 354.672C117.052 354.242 119.115 352.617 119.193 350.656H114.709V349.453H119.209V347.578H120.677V349.453H125.177ZM138.041 348.203V349.438C138.041 350.766 138.041 352.203 137.651 354.203H139.666V355.422H133.994V361.344H132.494V355.422H126.901V354.203H136.151C136.573 352.211 136.573 350.742 136.573 349.438V349.422H128.463V348.203H138.041ZM154.675 347.328V350.859H156.706V352.062H154.675V355.641H153.191V347.328H154.675ZM150.831 348.328C150.831 351.953 148.378 354.562 144.269 355.75L143.659 354.547C146.933 353.617 148.956 351.797 149.222 349.531H144.284V348.328H150.831ZM150.206 355.797C153.034 355.797 154.831 356.844 154.831 358.547C154.831 360.266 153.034 361.312 150.206 361.312C147.394 361.312 145.55 360.266 145.566 358.547C145.55 356.844 147.394 355.797 150.206 355.797ZM150.206 356.969C148.253 356.969 147.019 357.562 147.034 358.547C147.019 359.531 148.253 360.141 150.206 360.141C152.144 360.141 153.378 359.531 153.378 358.547C153.378 357.562 152.144 356.969 150.206 356.969ZM168.023 347.344V350.453H170.07V351.688H168.023V355.234H166.539V347.344H168.023ZM168.023 355.969V361.141H159.054V355.969H168.023ZM160.508 357.125V359.953H166.586V357.125H160.508ZM159.148 348.031V353.047C161.047 353.031 163.031 352.867 165.179 352.438L165.367 353.656C163.008 354.141 160.867 354.266 158.804 354.281H157.664V348.031H159.148ZM182.387 347.328V361.328H180.965V354.094H179.152V360.609H177.793V347.609H179.152V352.875H180.965V347.328H182.387ZM176.09 349.016V350.219H172.324V356.703C174.043 356.688 175.34 356.609 176.84 356.328L176.949 357.547C175.262 357.891 173.824 357.953 171.777 357.969H170.84V349.016H176.09ZM196.532 358.406V359.656H183.719V358.406H189.36V355.953H185.282V351.5H193.501V349.531H185.251V348.312H194.969V352.688H186.751V354.734H195.298V355.953H190.829V358.406H196.532ZM204.916 360.156C202.291 360.156 200.759 358.047 200.759 354.344C200.759 350.672 202.322 348.531 204.916 348.531C207.509 348.531 209.072 350.672 209.072 354.344C209.072 358.047 207.525 360.156 204.916 360.156ZM204.916 358.672C206.447 358.672 207.353 357.172 207.353 354.344C207.353 351.531 206.431 349.984 204.916 349.984C203.4 349.984 202.478 351.531 202.478 354.344C202.478 357.172 203.384 358.672 204.916 358.672ZM214.311 360.156C211.686 360.156 210.154 358.047 210.154 354.344C210.154 350.672 211.717 348.531 214.311 348.531C216.904 348.531 218.467 350.672 218.467 354.344C218.467 358.047 216.92 360.156 214.311 360.156ZM214.311 358.672C215.842 358.672 216.748 357.172 216.748 354.344C216.748 351.531 215.826 349.984 214.311 349.984C212.795 349.984 211.873 351.531 211.873 354.344C211.873 357.172 212.779 358.672 214.311 358.672ZM223.706 360.156C221.081 360.156 219.549 358.047 219.549 354.344C219.549 350.672 221.112 348.531 223.706 348.531C226.299 348.531 227.862 350.672 227.862 354.344C227.862 358.047 226.315 360.156 223.706 360.156ZM223.706 358.672C225.237 358.672 226.143 357.172 226.143 354.344C226.143 351.531 225.221 349.984 223.706 349.984C222.19 349.984 221.268 351.531 221.268 354.344C221.268 357.172 222.174 358.672 223.706 358.672ZM230.773 358.922L229.523 363.234H228.194L229.023 358.922H230.773ZM236.058 360.156C233.433 360.156 231.902 358.047 231.902 354.344C231.902 350.672 233.464 348.531 236.058 348.531C238.652 348.531 240.214 350.672 240.214 354.344C240.214 358.047 238.667 360.156 236.058 360.156ZM236.058 358.672C237.589 358.672 238.496 357.172 238.496 354.344C238.496 351.531 237.574 349.984 236.058 349.984C234.542 349.984 233.621 351.531 233.621 354.344C233.621 357.172 234.527 358.672 236.058 358.672ZM245.453 360.156C242.828 360.156 241.297 358.047 241.297 354.344C241.297 350.672 242.859 348.531 245.453 348.531C248.047 348.531 249.609 350.672 249.609 354.344C249.609 358.047 248.062 360.156 245.453 360.156ZM245.453 358.672C246.984 358.672 247.891 357.172 247.891 354.344C247.891 351.531 246.969 349.984 245.453 349.984C243.938 349.984 243.016 351.531 243.016 354.344C243.016 357.172 243.922 358.672 245.453 358.672ZM254.727 360L259.774 350.25V350.156H253.946V348.688H261.556V350.219L256.524 360H254.727ZM275.091 354.359V355.578H262.326V354.359H275.091ZM269.435 347.312V348.656H273.81V349.844H269.529C269.685 351.195 271.622 352.211 274.404 352.438L273.951 353.578C271.529 353.352 269.568 352.539 268.701 351.234C267.826 352.539 265.865 353.352 263.466 353.578L262.997 352.438C265.763 352.211 267.701 351.195 267.872 349.844H263.607V348.656H267.966V347.312H269.435ZM268.701 356.625C271.747 356.625 273.529 357.453 273.529 358.969C273.529 360.484 271.747 361.312 268.701 361.297C265.638 361.312 263.841 360.484 263.841 358.969C263.841 357.453 265.638 356.625 268.701 356.625ZM268.701 357.734C266.544 357.734 265.341 358.172 265.341 358.969C265.341 359.766 266.544 360.188 268.701 360.172C270.826 360.188 272.044 359.766 272.044 358.969C272.044 358.172 270.826 357.734 268.701 357.734Z" fill="#5E6075"/>
<path d="M100.375 324.891C100.359 327.375 101.797 329.906 103.891 330.922L102.969 332.109C101.445 331.32 100.266 329.75 99.6562 327.875C99.0234 329.875 97.7969 331.547 96.2031 332.375L95.2812 331.172C97.4375 330.141 98.8906 327.453 98.8906 324.891V322.5H100.375V324.891ZM106.422 321.328V326.906H108.672V328.172H106.422V335.328H104.938V321.328H106.422ZM112.739 321.969C114.583 321.953 116.004 323.023 116.317 324.594H119.051V321.328H120.536V328.844H119.051V325.812H116.333C116.028 327.422 114.598 328.5 112.739 328.5C110.598 328.5 109.067 327.156 109.067 325.219C109.067 323.312 110.598 321.953 112.739 321.969ZM112.739 323.203C111.411 323.203 110.489 324.016 110.489 325.219C110.489 326.422 111.411 327.25 112.739 327.25C114.036 327.25 114.958 326.422 114.958 325.219C114.958 324.016 114.036 323.203 112.739 323.203ZM112.879 329.516V331.141H119.051V329.516H120.536V335.156H111.411V329.516H112.879ZM112.879 333.938H119.051V332.312H112.879V333.938ZM127.087 325.453C127.087 327.672 128.54 330.141 130.665 331.141L129.821 332.297C128.251 331.539 127.009 329.961 126.384 328.125C125.735 330.133 124.423 331.859 122.821 332.656L121.946 331.484C124.071 330.469 125.618 327.828 125.618 325.453V323.969H122.462V322.734H130.134V323.969H127.087V325.453ZM133.118 321.328V326.875H135.368V328.125H133.118V335.328H131.634V321.328H133.118ZM151.768 327.906V329.125H138.986V327.906H151.768ZM150.283 325.484V326.688H140.58V321.828H150.189V323.047H142.049V325.484H150.283ZM145.361 330.219C148.377 330.219 150.189 331.141 150.189 332.766C150.189 334.391 148.377 335.312 145.361 335.297C142.33 335.312 140.502 334.391 140.502 332.766C140.502 331.141 142.33 330.219 145.361 330.219ZM145.361 331.359C143.221 331.375 142.002 331.875 142.002 332.766C142.002 333.656 143.221 334.156 145.361 334.156C147.471 334.156 148.705 333.656 148.705 332.766C148.705 331.875 147.471 331.375 145.361 331.359ZM165.131 328.969V330.172H152.319V328.969H157.991V327.641H153.959V324.078H162.037V322.828H153.928V321.656H163.522V325.172H155.428V326.484H163.803V327.641H159.459V328.969H165.131ZM163.6 331.156V335.219H162.1V332.344H153.756V331.156H163.6ZM178.448 327.922V329.125H165.683V327.922H178.448ZM172.058 330.203C175.073 330.203 176.886 331.141 176.886 332.766C176.886 334.391 175.073 335.312 172.058 335.297C169.026 335.312 167.198 334.391 167.198 332.766C167.198 331.141 169.026 330.203 172.058 330.203ZM172.058 331.359C169.917 331.375 168.698 331.859 168.698 332.766C168.698 333.656 169.917 334.125 172.058 334.125C174.167 334.125 175.401 333.656 175.401 332.766C175.401 331.859 174.167 331.375 172.058 331.359ZM177.308 322.016V323.234H173.058C173.222 324.594 175.206 325.75 177.792 326.016L177.261 327.188C174.839 326.906 172.831 325.883 172.073 324.406C171.292 325.883 169.292 326.906 166.87 327.188L166.354 326.016C168.893 325.75 170.893 324.602 171.073 323.234H166.854V322.016H177.308ZM190.702 321.344V331.688H189.218V326.406H186.156V329.359H179.702V322.266H181.187V324.641H184.687V322.266H186.156V325.203H189.218V321.344H190.702ZM191.015 333.828V335.031H181.562V330.672H183.062V333.828H191.015ZM181.187 328.156H184.687V325.781H181.187V328.156ZM204.504 323.297V324.5H192.988V323.297H198.019V321.531H199.488V323.297H204.504ZM205.191 332.547V333.75H192.379V332.547H198.019V330.688C195.566 330.539 194.082 329.57 194.082 328.016C194.082 326.328 195.863 325.344 198.754 325.344C201.613 325.344 203.41 326.328 203.41 328.016C203.41 329.57 201.918 330.539 199.488 330.688V332.547H205.191ZM198.754 326.516C196.754 326.516 195.582 327.047 195.598 328.016C195.582 328.984 196.754 329.516 198.754 329.531C200.723 329.516 201.894 328.984 201.894 328.016C201.894 327.047 200.723 326.516 198.754 326.516ZM210.747 332.547C210.137 332.547 209.622 332.047 209.637 331.438C209.622 330.828 210.137 330.328 210.747 330.328C211.341 330.328 211.856 330.828 211.856 331.438C211.856 332.047 211.341 332.547 210.747 332.547ZM210.747 326.375C210.137 326.375 209.622 325.875 209.637 325.266C209.622 324.656 210.137 324.156 210.747 324.156C211.341 324.156 211.856 324.656 211.856 325.266C211.856 325.875 211.341 326.375 210.747 326.375ZM220.74 334.156C218.115 334.156 216.584 332.047 216.584 328.344C216.584 324.672 218.146 322.531 220.74 322.531C223.334 322.531 224.896 324.672 224.896 328.344C224.896 332.047 223.349 334.156 220.74 334.156ZM220.74 332.672C222.271 332.672 223.177 331.172 223.177 328.344C223.177 325.531 222.256 323.984 220.74 323.984C219.224 323.984 218.302 325.531 218.302 328.344C218.302 331.172 219.209 332.672 220.74 332.672ZM230.135 334.156C227.51 334.156 225.979 332.047 225.979 328.344C225.979 324.672 227.541 322.531 230.135 322.531C232.729 322.531 234.291 324.672 234.291 328.344C234.291 332.047 232.744 334.156 230.135 334.156ZM230.135 332.672C231.666 332.672 232.572 331.172 232.572 328.344C232.572 325.531 231.651 323.984 230.135 323.984C228.619 323.984 227.697 325.531 227.697 328.344C227.697 331.172 228.604 332.672 230.135 332.672ZM239.889 322.688V334H238.155V324.406H238.092L235.389 326.172V324.531L238.202 322.688H239.889ZM247.3 327.625V329.062H242.284V327.625H247.3ZM252.758 334.156C250.133 334.156 248.601 332.047 248.601 328.344C248.601 324.672 250.164 322.531 252.758 322.531C255.351 322.531 256.914 324.672 256.914 328.344C256.914 332.047 255.367 334.156 252.758 334.156ZM252.758 332.672C254.289 332.672 255.195 331.172 255.195 328.344C255.195 325.531 254.273 323.984 252.758 323.984C251.242 323.984 250.32 325.531 250.32 328.344C250.32 331.172 251.226 332.672 252.758 332.672ZM262.152 334.156C259.527 334.156 257.996 332.047 257.996 328.344C257.996 324.672 259.559 322.531 262.152 322.531C264.746 322.531 266.309 324.672 266.309 328.344C266.309 332.047 264.762 334.156 262.152 334.156ZM262.152 332.672C263.684 332.672 264.59 331.172 264.59 328.344C264.59 325.531 263.668 323.984 262.152 323.984C260.637 323.984 259.715 325.531 259.715 328.344C259.715 331.172 260.621 332.672 262.152 332.672ZM272.626 327.625V329.062H267.61V327.625H272.626ZM278.083 334.156C275.458 334.156 273.927 332.047 273.927 328.344C273.927 324.672 275.489 322.531 278.083 322.531C280.677 322.531 282.239 324.672 282.239 328.344C282.239 332.047 280.693 334.156 278.083 334.156ZM278.083 332.672C279.614 332.672 280.521 331.172 280.521 328.344C280.521 325.531 279.599 323.984 278.083 323.984C276.568 323.984 275.646 325.531 275.646 328.344C275.646 331.172 276.552 332.672 278.083 332.672ZM287.478 334.156C284.853 334.156 283.322 332.047 283.322 328.344C283.322 324.672 284.884 322.531 287.478 322.531C290.072 322.531 291.634 324.672 291.634 328.344C291.634 332.047 290.087 334.156 287.478 334.156ZM287.478 332.672C289.009 332.672 289.916 331.172 289.916 328.344C289.916 325.531 288.994 323.984 287.478 323.984C285.962 323.984 285.041 325.531 285.041 328.344C285.041 331.172 285.947 332.672 287.478 332.672ZM296.873 334.156C294.248 334.156 292.717 332.047 292.717 328.344C292.717 324.672 294.279 322.531 296.873 322.531C299.467 322.531 301.029 324.672 301.029 328.344C301.029 332.047 299.482 334.156 296.873 334.156ZM296.873 332.672C298.404 332.672 299.311 331.172 299.311 328.344C299.311 325.531 298.389 323.984 296.873 323.984C295.357 323.984 294.436 325.531 294.436 328.344C294.436 331.172 295.342 332.672 296.873 332.672ZM306.268 334.156C303.643 334.156 302.112 332.047 302.112 328.344C302.112 324.672 303.674 322.531 306.268 322.531C308.862 322.531 310.424 324.672 310.424 328.344C310.424 332.047 308.878 334.156 306.268 334.156ZM306.268 332.672C307.799 332.672 308.706 331.172 308.706 328.344C308.706 325.531 307.784 323.984 306.268 323.984C304.753 323.984 303.831 325.531 303.831 328.344C303.831 331.172 304.737 332.672 306.268 332.672ZM315.663 334.156C313.038 334.156 311.507 332.047 311.507 328.344C311.507 324.672 313.069 322.531 315.663 322.531C318.257 322.531 319.819 324.672 319.819 328.344C319.819 332.047 318.273 334.156 315.663 334.156ZM315.663 332.672C317.194 332.672 318.101 331.172 318.101 328.344C318.101 325.531 317.179 323.984 315.663 323.984C314.148 323.984 313.226 325.531 313.226 328.344C313.226 331.172 314.132 332.672 315.663 332.672Z" fill="#5E6075"/>
<mask id="path-5-inside-1_47_240" fill="white">
<path d="M17 322H87V334H17V322Z"/>
</mask>
<path d="M86 322V334H88V322H86Z" fill="#5E6075" mask="url(#path-5-inside-1_47_240)"/>
<path d="M15.4375 320.875V334.766H14.2656V327.484H12.2188V334.047H11.0938V321.188H12.2188V326.469H14.2656V320.875H15.4375ZM9.28125 322.578V323.594H5.29688V330.281C7.21094 330.273 8.53906 330.203 10.0781 329.891L10.1875 330.922C8.51562 331.266 7.09375 331.328 4.96875 331.328H4.07812V322.578H9.28125ZM29.6294 332.047V333.062H16.9106V332.047H20.4575V328.734H18.0669V327.719H20.2388V323.188H18.0356V322.172H28.4106V323.188H26.2075V327.719H28.3794V328.734H25.9888V332.047H29.6294ZM21.4575 327.719H25.0044V323.188H21.4575V327.719ZM21.6919 332.047H24.77V328.734H21.6919V332.047ZM35.2631 332C34.7162 332 34.2475 331.547 34.2631 330.984C34.2475 330.438 34.7162 329.984 35.2631 329.984C35.81 329.984 36.2631 330.438 36.2631 330.984C36.2631 331.547 35.81 332 35.2631 332ZM35.2631 325.719C34.7162 325.719 34.2475 325.266 34.2631 324.703C34.2475 324.156 34.7162 323.703 35.2631 323.703C35.81 323.703 36.2631 324.156 36.2631 324.703C36.2631 325.266 35.81 325.719 35.2631 325.719ZM48.2406 321.781C48.2406 325.297 45.6625 327.781 41.5687 328.875L41.0687 327.906C44.5062 327 46.6703 325.164 46.9437 322.781H41.8031V321.781H48.2406ZM52.3812 320.891V328.734H51.1625V320.891H52.3812ZM52.3812 329.406V334.578H43.35V329.406H52.3812ZM44.5531 330.391V333.578H51.1781V330.391H44.5531ZM66.1356 320.875V334.766H64.9637V327.484H62.9169V334.047H61.7919V321.188H62.9169V326.469H64.9637V320.875H66.1356ZM59.9794 322.578V323.594H55.995V330.281C57.9091 330.273 59.2372 330.203 60.7762 329.891L60.8856 330.922C59.2137 331.266 57.7919 331.328 55.6669 331.328H54.7762V322.578H59.9794ZM80.3275 332.047V333.062H67.6087V332.047H71.1556V328.734H68.765V327.719H70.9369V323.188H68.7337V322.172H79.1087V323.188H76.9056V327.719H79.0775V328.734H76.6869V332.047H80.3275ZM72.1556 327.719H75.7025V323.188H72.1556V327.719ZM72.39 332.047H75.4681V328.734H72.39V332.047Z" fill="#5E6075"/>
<g clip-path="url(#clip0_47_240)">
<path d="M84.0882 102.943V100H81.4964V102.943H78.5847V105.316H81.4964V108.291H84.0882V105.316H86.9999V102.943H84.0882Z" fill="#C9252C"/>
<path d="M13.8227 119.145H4.22361C3.03972 119.145 2.52777 118.956 1.88783 118.354L0.831923 117.373C0.191982 116.804 0 116.392 0 115.348V108.956C0 108.323 0.351968 107.975 1.0559 107.975H12.7988V110.759H3.77565V115.063C3.77565 115.316 3.83965 115.38 3.96764 115.57L4.63957 116.171C4.76756 116.329 4.89555 116.361 5.15153 116.361H13.8227V119.145ZM20.3501 129.81H16.6385V123.924H1.21589V121.108H19.3262C20.0622 121.108 20.3821 121.424 20.3821 122.057V129.81H20.3501ZM20.3501 107.5V112.057H23.7098V114.873H20.3501V119.81H16.6385V107.468H20.3501V107.5Z" fill="black"/>
<path d="M30.0132 127.627C28.8613 127.627 28.3494 127.5 27.6134 126.772L26.2376 125.411C25.5336 124.715 25.4056 124.43 25.4056 123.228V109.051C25.4056 108.418 25.7256 108.101 26.4295 108.101H38.1725V110.918H29.1493V116.076H36.9886V118.861H29.1493V123.006C29.1493 123.259 29.2453 123.449 29.4693 123.639L30.3652 124.557C30.5892 124.747 30.7811 124.81 31.0051 124.81H39.2604V127.627H30.0132ZM46.2997 107.5V129.335H42.5881V118.544H38.5884V115.728H42.5881V107.5H46.2997Z" fill="black"/>
<path d="M71.6094 107.658V119.557H68.0898V114.905H65.306V118.386C65.306 119.019 64.9541 119.367 64.2821 119.367H58.6506C57.4667 119.367 56.9228 119.177 56.2828 118.576L55.4509 117.722C54.875 117.12 54.651 116.741 54.651 115.728V107.816H58.2347V110.854H61.6584V107.816H65.306V112.215H68.0898V107.658H71.6094ZM77.6249 127.342L76.185 129.905C73.0493 128.734 69.9456 127.373 67.7698 126.139C67.3858 125.949 67.0979 125.791 67.0019 125.538C66.9059 125.791 66.6819 125.918 66.2659 126.139C63.9941 127.373 60.8904 128.829 57.8187 130L56.3468 127.342C59.2586 126.266 62.0103 125.095 64.3781 123.797C64.9541 123.513 65.146 123.07 65.146 122.532V120.633H68.8577V122.532C68.8577 123.07 69.0497 123.513 69.6256 123.829C71.9614 125.095 74.8091 126.234 77.6249 127.342ZM61.6584 116.582V113.544H58.2347V115.538C58.2347 115.823 58.2667 115.886 58.4267 116.044L58.8106 116.392C58.9386 116.519 59.0666 116.582 59.3226 116.582H61.6584ZM76.9529 107.5V121.646H73.4013V107.5H76.9529Z" fill="black"/>
</g>
<defs>
<clipPath id="clip0_47_240">
<rect width="87" height="30" fill="white" transform="translate(0 100)"/>
</clipPath>
</defs>
</svg>
