<svg width="1440" height="444" viewBox="0 0 1440 444" fill="none" xmlns="http://www.w3.org/2000/svg">
<rect width="1440" height="444" fill="#0092FF"/>
<path d="M553.403 181.507V186.648H516.533V181.507H531.782V173.729H520.312V153.733H549.448V173.729H538.022V181.507H553.403ZM526.553 158.787V168.807H543.164V158.787H526.553ZM592.295 170.652V175.662H555.425V170.652H592.295ZM588.34 162.698V167.752H559.819V152.283H587.944V157.293H566.147V162.698H588.34ZM588.472 185.462V190.516H559.775V178.431H565.972V185.462H588.472ZM641.25 169.642V174.607H604.38V169.642H619.717V166.609H608.774V152.635H636.899V157.557H615.103V161.644H637.075V166.609H625.957V169.642H641.25ZM622.705 176.321C631.494 176.321 636.768 179.002 636.768 183.836C636.768 188.582 631.494 191.307 622.705 191.307C613.872 191.307 608.511 188.582 608.511 183.836C608.511 179.002 613.872 176.321 622.705 176.321ZM622.705 181.111C617.388 181.111 614.927 181.99 614.971 183.836C614.927 185.726 617.388 186.473 622.705 186.473C627.891 186.473 630.439 185.726 630.439 183.836C630.439 181.99 627.891 181.111 622.705 181.111ZM680.054 166.565V171.531H664.761V173.641H675.659V184.407H653.687V186.253H676.626V190.999H647.446V179.969H669.375V178.387H647.446V173.641H658.389V171.531H643.271V166.565H680.054ZM675.439 152.02V164.852H647.754V152.02H675.439ZM653.95 156.897V160.018H669.111V156.897H653.95ZM690.161 153.338V158.436H697.017V153.338H703.257V156.634H710.024V150.877H716.309V174.871H710.024V169.861H703.257V172.762H683.789V153.338H690.161ZM690.161 167.884H697.017V163.27H690.161V167.884ZM702.378 175.53C711.079 175.53 716.396 178.431 716.44 183.44C716.396 188.362 711.079 191.263 702.378 191.219C693.765 191.263 688.447 188.362 688.447 183.44C688.447 178.431 693.765 175.53 702.378 175.53ZM702.378 180.32C697.324 180.32 694.731 181.243 694.731 183.44C694.731 185.506 697.324 186.429 702.378 186.473C707.52 186.429 710.112 185.506 710.156 183.44C710.112 181.243 707.52 180.32 702.378 180.32ZM703.257 164.808H710.024V161.6H703.257V164.808ZM755.508 150.921V181.331H749.136V178.431H741.621V174.168H749.136V150.921H755.508ZM756.343 185.506V190.56H725.845V178.431H731.382V173.333C727.91 173.465 724.592 173.509 721.626 173.509L720.923 168.543C728.306 168.455 738.193 168.367 746.675 167.312L747.026 171.795C743.994 172.322 740.852 172.696 737.754 172.938V180.496H732.173V185.506H756.343ZM733.975 152.195C739.863 152.195 744.082 155.228 744.082 159.49C744.082 163.841 739.863 166.653 733.975 166.653C727.998 166.653 723.823 163.841 723.823 159.49C723.823 155.228 727.998 152.195 733.975 152.195ZM733.975 156.81C731.47 156.81 729.8 157.688 729.8 159.49C729.8 161.248 731.47 162.127 733.975 162.127C736.348 162.127 738.062 161.248 738.105 159.49C738.062 157.688 736.348 156.81 733.975 156.81ZM772.954 153.514C779.37 153.47 784.204 157.688 784.248 163.533C784.204 169.378 779.37 173.597 772.954 173.553C766.582 173.597 761.66 169.378 761.66 163.533C761.66 157.688 766.582 153.47 772.954 153.514ZM772.954 158.963C770.142 158.963 767.944 160.589 767.944 163.533C767.944 166.565 770.142 168.104 772.954 168.104C775.854 168.104 778.052 166.565 778.096 163.533C778.052 160.589 775.854 158.963 772.954 158.963ZM794.048 150.877V191.307H787.764V150.877H794.048ZM760.122 178.167C767.197 178.167 777.085 178.079 785.61 176.893L786.094 181.463C777.261 183.177 767.812 183.265 760.825 183.265L760.122 178.167ZM824.59 156.106C824.546 161.38 826.919 166.346 833.555 168.367L830.215 173.289C825.974 171.861 823.162 169.246 821.514 165.818C819.712 169.817 816.548 172.959 811.758 174.52L808.418 169.466C815.581 167.269 818.13 161.863 818.174 156.414V152.942H824.59V156.106ZM843.047 150.877V174.432H836.763V163.05H829.644V157.864H836.763V150.877H843.047ZM829.116 175.442C837.817 175.442 843.135 178.343 843.179 183.353C843.135 188.362 837.817 191.263 829.116 191.219C820.503 191.263 815.186 188.362 815.186 183.353C815.186 178.343 820.503 175.442 829.116 175.442ZM829.116 180.32C824.062 180.32 821.47 181.243 821.47 183.353C821.47 185.374 824.062 186.341 829.116 186.341C834.258 186.341 836.851 185.374 836.895 183.353C836.851 181.243 834.258 180.32 829.116 180.32ZM870.776 153.514V158.523H863.086C863.306 162.852 865.854 167.049 872.183 168.851L869.194 173.816C864.778 172.52 861.79 169.971 860.01 166.697C858.208 170.586 855.044 173.663 850.254 175.179L847.046 170.213C853.66 168.169 856.362 163.27 856.626 158.523H848.716V153.514H870.776ZM879.917 150.877V159.974H885.146V165.071H879.917V174.695H873.589V150.877H879.917ZM866.602 175.354C875.039 175.354 880.312 178.255 880.312 183.265C880.312 188.274 875.039 191.263 866.602 191.219C858.032 191.263 852.671 188.274 852.671 183.265C852.671 178.255 858.032 175.354 866.602 175.354ZM866.602 180.276C861.592 180.232 858.955 181.199 858.999 183.265C858.955 185.374 861.592 186.341 866.602 186.341C871.567 186.341 874.072 185.374 874.072 183.265C874.072 181.199 871.567 180.232 866.602 180.276ZM923.467 171.312V176.277H886.685V171.312H923.467ZM919.248 185.506V190.56H891.035V178.738H897.363V185.506H919.248ZM905.054 152.063C913.931 152.063 919.819 155.228 919.863 160.369C919.819 165.599 913.931 168.807 905.054 168.851C896.133 168.807 890.244 165.599 890.244 160.369C890.244 155.228 896.133 152.063 905.054 152.063ZM905.054 157.029C899.736 157.073 896.792 158.172 896.836 160.369C896.792 162.698 899.736 163.709 905.054 163.709C910.327 163.709 913.315 162.698 913.315 160.369C913.315 158.172 910.327 157.073 905.054 157.029ZM553.689 204.877V214.062H558.918V219.291H553.689V228.432H547.361V204.877H553.689ZM553.689 230.365V245.263H547.361V235.331H526.311V230.365H553.689ZM541.252 207.646V212.743H529.343V221.488C536.375 221.444 540.198 221.203 544.417 220.346L545.076 225.268C540.198 226.366 535.583 226.542 526.487 226.542H523.015V207.646H541.252ZM594.646 204.877V245.307H588.406V223.861H581.77V218.808H588.406V204.877H594.646ZM581.155 208.173V213.271H568.63V219.379H579.792V224.301H568.63V231.2C573.706 231.178 578.057 230.98 582.825 230.277L583.44 235.287C577.551 236.166 572.146 236.342 565.554 236.386H562.302V208.173H581.155ZM606.599 207.558V212.919H610.994V207.558H616.794V214.633H619.783V205.668H625.759V228.783H619.783V219.774H616.794V227.025H600.623V207.558H606.599ZM606.599 222.06H610.994V217.753H606.599V222.06ZM634.109 204.877V232.255H628.044V204.877H634.109ZM623.123 231.288C623.079 235.067 626.682 239.154 635.911 240.121L633.669 244.999C626.968 244.208 622.419 241.703 619.958 238.275C617.454 241.703 612.883 244.208 606.248 244.999L604.094 240.121C613.191 239.154 616.75 235.067 616.794 231.288V230.365H623.123V231.288ZM673.308 204.877V245.219H667.244V204.877H673.308ZM664.827 205.404V243.417H658.85V224.564H656.257C655.708 232.475 652.302 237.221 647.336 237.221C642.019 237.221 638.547 231.596 638.547 222.367C638.547 213.183 642.019 207.602 647.336 207.602C652.17 207.602 655.532 212.062 656.213 219.555H658.85V205.404H664.827ZM647.336 213.578C645.403 213.578 644.304 216.303 644.348 222.367C644.304 228.476 645.403 231.156 647.336 231.156C649.358 231.156 650.5 228.476 650.5 222.367C650.5 216.303 649.358 213.578 647.336 213.578ZM692.732 213.446C692.732 221.137 695.237 228.52 702.224 231.464L698.401 236.518C694.006 234.408 691.194 230.695 689.568 226.015C687.832 231.002 684.888 235.067 680.339 237.265L676.384 232.079C683.591 228.871 686.272 221.093 686.316 213.446V207.865H692.732V213.446ZM711.321 204.877V245.307H705.081V222.323H697.698V217.226H705.081V204.877H711.321ZM742.214 213.446C742.17 220.873 745.027 228.3 752.19 231.244L748.455 236.342C743.928 234.32 740.896 230.563 739.094 225.839C737.314 231.046 734.15 235.199 729.25 237.396L725.471 232.123C732.854 229.091 735.754 221.356 735.798 213.446V207.865H742.214V213.446ZM759.968 204.877V245.307H753.596V204.877H759.968ZM787.961 207.074V212.128H780.271C780.491 216.479 783.04 220.983 789.456 223.026L786.248 227.904C781.853 226.498 778.865 223.751 777.107 220.346C775.305 224.081 772.207 227.069 767.571 228.563L764.231 223.686C770.823 221.598 773.525 216.786 773.811 212.128H765.901V207.074H787.961ZM797.102 204.877V214.413H802.332V219.643H797.102V229.223H790.774V204.877H797.102ZM797.102 230.805V245.219H790.774V235.814H769.724V230.805H797.102ZM837.971 204.921V228.3H831.555V204.921H837.971ZM803.914 223.114C806.946 223.114 810.439 223.092 814.065 222.982V220.214H807.253V206.635H826.941V211.688H813.625V215.292H827.117V220.214H820.393V222.719C823.425 222.587 826.458 222.345 829.314 222.016L829.666 226.322C821.184 227.816 811.824 227.948 804.705 228.036L803.914 223.114ZM816.482 229.838V232.562H831.731V229.838H837.971V244.779H810.198V229.838H816.482ZM816.482 239.726H831.731V237.265H816.482V239.726ZM876.863 204.877V245.219H870.579V204.877H876.863ZM851.067 208.7V230.014C856.296 229.904 861.965 229.398 867.59 228.3L868.381 233.529C861.35 234.979 854.583 235.419 848.43 235.375H844.783V208.7H851.067ZM913.645 204.877V219.555H919.358V224.696H913.645V245.307H907.317V204.877H913.645ZM902.131 208.568V213.666H889.519V230.409C894.946 230.365 899.626 230.036 904.724 229.179L905.383 234.452C899.187 235.507 893.606 235.639 886.663 235.639H883.191V208.568H902.131Z" fill="white"/>
<path d="M542.764 288.633V291.309C544.219 291.221 545.693 291.084 547.08 290.879L547.275 292.695C543.33 293.457 539.111 293.496 536.006 293.496L535.713 291.484C537.051 291.475 538.623 291.465 540.283 291.406V288.633H542.764ZM546.436 281.113V283.125H542.803C542.969 284.844 544.307 286.455 546.982 287.109L545.85 289.043C543.77 288.516 542.334 287.363 541.533 285.879C540.742 287.432 539.326 288.643 537.236 289.18L536.064 287.305C538.75 286.592 540.049 284.922 540.225 283.125H536.631V281.113H540.283V279.18H542.764V281.113H546.436ZM550.576 279.023V296.836H548.096V279.023H550.576ZM569.189 292.676V294.668H552.92V292.676H559.717V288.652H562.197V292.676H569.189ZM562.275 281.309C562.275 283.848 564.561 286.523 568.623 287.148L567.568 289.219C564.443 288.652 562.119 286.982 560.947 284.766C559.775 286.973 557.471 288.662 554.365 289.219L553.311 287.148C557.334 286.523 559.6 283.828 559.619 281.309V280.039H562.275V281.309ZM575.967 280.215C578.779 280.195 580.889 282.031 580.889 284.57C580.889 287.129 578.779 288.945 575.967 288.945C573.154 288.945 571.025 287.129 571.025 284.57C571.025 282.031 573.154 280.195 575.967 280.215ZM575.967 282.363C574.561 282.363 573.486 283.184 573.506 284.57C573.486 285.977 574.561 286.777 575.967 286.777C577.373 286.777 578.447 285.977 578.467 284.57C578.447 283.184 577.393 282.363 575.967 282.363ZM585.146 279.023V296.836H582.666V279.023H585.146ZM570.283 291.172C573.447 291.191 577.842 291.133 581.65 290.605L581.846 292.402C577.9 293.164 573.682 293.203 570.576 293.203L570.283 291.172ZM606.982 279.023V296.836H604.463V279.023H606.982ZM595.479 280.43V284.766H599.307V280.43H601.768V292.676H592.979V280.43H595.479ZM595.479 290.664H599.307V286.699H595.479V290.664ZM625.596 287.441V289.434H609.385V287.441H613.037V285.312C611.738 284.736 611.006 283.857 611.006 282.715C611.006 280.566 613.525 279.277 617.49 279.277C621.416 279.277 623.936 280.566 623.955 282.715C623.945 283.867 623.184 284.766 621.865 285.332V287.441H625.596ZM617.471 290.371C621.318 290.371 623.643 291.504 623.662 293.555C623.643 295.645 621.318 296.777 617.471 296.777C613.564 296.777 611.24 295.645 611.24 293.555C611.24 291.504 613.564 290.371 617.471 290.371ZM617.471 292.246C615.01 292.246 613.76 292.676 613.779 293.555C613.76 294.473 615.01 294.922 617.471 294.922C619.873 294.922 621.143 294.473 621.162 293.555C621.143 292.676 619.873 292.246 617.471 292.246ZM617.49 281.191C614.971 281.191 613.584 281.719 613.604 282.715C613.584 283.691 614.971 284.18 617.49 284.18C619.971 284.18 621.377 283.691 621.377 282.715C621.377 281.719 619.971 281.191 617.49 281.191ZM615.557 287.441H619.385V285.957C618.799 286.025 618.164 286.055 617.49 286.055C616.797 286.055 616.152 286.025 615.557 285.938V287.441ZM634.775 279.922C638.525 279.941 641.455 281.953 641.475 285.039C641.455 288.145 638.525 290.176 634.775 290.156C631.006 290.176 628.096 288.145 628.096 285.039C628.096 281.953 631.006 279.941 634.775 279.922ZM634.775 281.953C632.314 281.934 630.518 283.125 630.518 285.039C630.518 286.973 632.314 288.125 634.775 288.125C637.236 288.125 638.994 286.973 639.014 285.039C638.994 283.125 637.236 281.934 634.775 281.953ZM642.939 292.617V294.629H626.67V292.617H642.939ZM660.225 292.773V294.824H643.955V292.773H650.811V290.098H645.83V284.121H655.889V282.168H645.811V280.176H658.35V286.074H648.33V288.066H658.76V290.098H653.291V292.773H660.225ZM672.979 288.633V291.309C674.434 291.221 675.908 291.084 677.295 290.879L677.49 292.695C673.545 293.457 669.326 293.496 666.221 293.496L665.928 291.484C667.266 291.475 668.838 291.465 670.498 291.406V288.633H672.979ZM676.65 281.113V283.125H673.018C673.184 284.844 674.521 286.455 677.197 287.109L676.064 289.043C673.984 288.516 672.549 287.363 671.748 285.879C670.957 287.432 669.541 288.643 667.451 289.18L666.279 287.305C668.965 286.592 670.264 284.922 670.439 283.125H666.846V281.113H670.498V279.18H672.979V281.113H676.65ZM680.791 279.023V296.836H678.311V279.023H680.791ZM693.389 280.02V281.992H689.854C689.873 284.092 691.123 286.24 693.936 287.168L692.705 289.082C690.732 288.457 689.385 287.168 688.623 285.566C687.822 287.344 686.406 288.779 684.307 289.453L683.037 287.48C685.957 286.543 687.285 284.209 687.314 281.992H683.74V280.02H693.389ZM698.115 290.391V296.797H695.635V292.383H685.908V290.391H698.115ZM698.115 279.023V289.609H695.635V285.332H692.881V283.301H695.635V279.023H698.115ZM706.182 280.215C708.994 280.195 711.104 282.031 711.104 284.57C711.104 287.129 708.994 288.945 706.182 288.945C703.369 288.945 701.24 287.129 701.24 284.57C701.24 282.031 703.369 280.195 706.182 280.215ZM706.182 282.363C704.775 282.363 703.701 283.184 703.721 284.57C703.701 285.977 704.775 286.777 706.182 286.777C707.588 286.777 708.662 285.977 708.682 284.57C708.662 283.184 707.607 282.363 706.182 282.363ZM715.361 279.023V296.836H712.881V279.023H715.361ZM700.498 291.172C703.662 291.191 708.057 291.133 711.865 290.605L712.061 292.402C708.115 293.164 703.896 293.203 700.791 293.203L700.498 291.172ZM736.533 279.023V284.863H738.799V286.914H736.533V292.891H734.033V279.023H736.533ZM737.139 294.492V296.484H724.619V291.973H727.119V294.492H737.139ZM722.119 289.238C723.398 289.238 724.883 289.229 726.436 289.18V288.145C724.502 287.881 723.291 286.914 723.311 285.527C723.291 283.77 725.029 282.734 727.666 282.754C730.283 282.734 732.002 283.77 732.021 285.527C732.002 286.904 730.82 287.871 728.916 288.145V289.062C730.381 288.975 731.846 288.838 733.213 288.633L733.389 290.352C729.639 291.074 725.439 291.113 722.373 291.152L722.119 289.238ZM732.764 280.469V282.246H722.588V280.469H726.436V278.965H728.916V280.469H732.764ZM727.666 284.414C726.396 284.414 725.674 284.766 725.693 285.527C725.674 286.191 726.396 286.562 727.666 286.562C728.916 286.562 729.619 286.191 729.639 285.527C729.619 284.766 728.916 284.414 727.666 284.414ZM754.58 279.043V289.277H752.1V287.539H748.096V285.547H752.1V283.848H748.271C747.168 286.66 744.648 288.594 740.732 289.668L739.756 287.695C743.848 286.621 745.85 284.668 746.201 282.227H740.713V280.234H748.916C748.916 280.811 748.877 281.367 748.799 281.895H752.1V279.043H754.58ZM748.662 289.492C752.275 289.492 754.697 290.879 754.717 293.086C754.697 295.312 752.275 296.719 748.662 296.719C745.01 296.719 742.568 295.312 742.588 293.086C742.568 290.879 745.01 289.492 748.662 289.492ZM748.662 291.445C746.416 291.426 745.068 291.992 745.068 293.086C745.068 294.18 746.416 294.746 748.662 294.746C750.869 294.746 752.217 294.18 752.217 293.086C752.217 291.992 750.869 291.426 748.662 291.445ZM764.99 279.277C769.072 279.277 771.436 280.352 771.455 282.305C771.436 284.277 769.072 285.352 764.99 285.352C760.889 285.352 758.506 284.277 758.506 282.305C758.506 280.352 760.889 279.277 764.99 279.277ZM764.99 281.094C762.373 281.094 761.104 281.523 761.123 282.305C761.104 283.184 762.373 283.516 764.99 283.516C767.627 283.516 768.877 283.184 768.877 282.305C768.877 281.523 767.627 281.094 764.99 281.094ZM773.096 286.191V288.164H756.885V286.191H773.096ZM771.123 289.199V293.73H761.221V294.805H771.592V296.68H758.779V291.992H768.662V291.016H758.76V289.199H771.123ZM793.096 280.059V281.66C793.096 283.32 793.096 285.137 792.646 287.617H794.99V289.629H788.057V296.816H785.557V289.629H778.779V287.617H790.127C790.576 285.322 790.615 283.584 790.615 282.051H780.635V280.059H793.096ZM812.275 287.773V289.746H805.381V291.289H810.303V296.777H807.822V293.262H797.861V291.289H802.92V289.746H796.064V287.773H812.275ZM805.381 279.043V280.645H810.713V282.578H805.576C805.859 283.857 807.666 285.01 811.553 285.273L810.791 287.129C807.529 286.904 805.264 285.967 804.15 284.531C803.027 285.967 800.762 286.904 797.51 287.129L796.748 285.273C800.615 285.01 802.422 283.857 802.725 282.578H797.627V280.645H802.92V279.043H805.381ZM827.373 279.023V285.977H829.99V288.027H827.373V296.797H824.912V279.023H827.373ZM823.701 281.68V283.672H813.252V281.68H817.275V279.297H819.775V281.68H823.701ZM818.525 284.668C821.123 284.668 823.057 286.426 823.057 288.906C823.057 291.387 821.123 293.145 818.525 293.145C815.908 293.145 813.975 291.387 813.975 288.906C813.975 286.426 815.908 284.668 818.525 284.668ZM818.525 286.68C817.275 286.699 816.357 287.539 816.357 288.906C816.357 290.293 817.275 291.113 818.525 291.094C819.775 291.113 820.674 290.293 820.674 288.906C820.674 287.539 819.775 286.699 818.525 286.68ZM838.506 280.254C838.506 281.504 838.35 282.637 838.018 283.672H839.873V279.375H842.217V288.906H839.873V285.645H837.1C836.016 287.324 834.297 288.643 831.865 289.648L830.654 287.812C833.926 286.533 835.547 284.707 835.908 282.246H831.553V280.254H838.506ZM845.908 279.043V289.141H843.545V279.043H845.908ZM837.197 290.527C837.197 291.953 837.803 293.428 839.248 294.395C840.703 293.35 841.338 291.807 841.338 290.527V289.688H843.799V290.527C843.779 292.344 844.795 294.121 847.158 294.844L845.947 296.66C844.238 296.074 843.125 294.971 842.51 293.594C841.924 294.961 840.898 296.162 839.287 296.797C837.637 296.201 836.602 295.029 836.025 293.652C835.4 294.98 834.307 296.064 832.686 296.66L831.436 294.844C833.779 294.043 834.814 292.246 834.834 290.527V289.688H837.197V290.527ZM852.275 289.688V291.191H859.6V289.688H862.08V296.602H849.814V289.688H852.275ZM852.275 294.648H859.6V293.086H852.275V294.648ZM864.131 286.777V288.789H847.92V286.777H864.131ZM857.314 279.805C857.314 281.582 859.365 283.594 863.33 284.043L862.451 285.996C859.385 285.605 857.168 284.336 856.025 282.617C854.883 284.336 852.656 285.605 849.619 285.996L848.721 284.043C852.686 283.574 854.736 281.621 854.756 279.805V279.199H857.314V279.805ZM880.146 279.023V296.797H877.666V279.023H880.146ZM868.623 280.723V290.273C871.025 290.244 873.604 290.02 876.221 289.512L876.533 291.562C873.408 292.207 870.479 292.422 867.725 292.402H866.162V280.723H868.623ZM896.514 279.023V285.625H899.131V287.656H896.514V296.836H894.014V279.023H896.514ZM891.533 280.664V282.676H885.674V290.469C888.252 290.439 890.381 290.322 892.744 289.902L893.018 291.992C890.264 292.461 887.842 292.539 884.697 292.52H883.193V280.664H891.533ZM902.08 295.176C901.162 295.176 900.42 294.434 900.439 293.535C900.42 292.637 901.162 291.914 902.08 291.914C902.939 291.914 903.701 292.637 903.701 293.535C903.701 294.434 902.939 295.176 902.08 295.176Z" fill="white"/>
<path fill-rule="evenodd" clip-rule="evenodd" d="M472 105H462V115H452V125H462V135H472V125H482V115H472V105Z" fill="#FFD219"/>
<circle cx="974" cy="291" r="12" stroke="#FFD219" stroke-width="6"/>
</svg>
