<?xml version="1.0" encoding="utf-8"?>
<!-- Generator: Adobe Illustrator 25.2.3, SVG Export Plug-In . SVG Version: 6.00 Build 0)  -->
<svg version="1.1" id="Layer_1" xmlns="http://www.w3.org/2000/svg" xmlns:xlink="http://www.w3.org/1999/xlink" x="0px" y="0px"
	 viewBox="0 0 185.2 64.2" style="enable-background:new 0 0 185.2 64.2;" xml:space="preserve">
<style type="text/css">
	.st0{fill:#C9262D;}
	.st1{fill:#FFFFFF;}
</style>
<polygon class="st0" points="179.1,6.4 179.1,0 173.5,0 173.5,6.4 167.3,6.4 167.3,11.4 173.5,11.4 173.5,17.8 179.1,17.8 
	179.1,11.4 185.2,11.4 185.2,6.4 "/>
<g>
	<path class="st1" d="M29.4,41.2H9c-2.5,0-3.6-0.4-5-1.7l-2.3-2.1C0.4,36.2,0,35.3,0,33.1V19.3c0-1.4,0.7-2.1,2.2-2.1h25v6H8v9.3
		c0,0.5,0.1,0.7,0.4,1.1l1.4,1.3c0.2,0.3,0.6,0.4,1.1,0.4h18.4V41.2z M43.3,64.2h-8V51.5H2.6v-6h38.5c1.5,0,2.2,0.7,2.2,2V64.2z
		 M43.3,16.2V26h7.2v6.1h-7.2v10.6h-8V16.2H43.3z"/>
	<path class="st1" d="M63.9,59.5c-2.5,0-3.5-0.3-5.1-1.9l-2.9-2.9c-1.5-1.5-1.8-2.1-1.8-4.7V19.5c0-1.4,0.7-2,2.2-2h25v6H62.1v11.1
		h16.7v6H62.1v8.9c0,0.5,0.2,0.9,0.7,1.4l1.9,2c0.5,0.4,0.9,0.5,1.4,0.5h17.6v6.1H63.9z M98.6,16.2v47h-7.9V39.9h-8.5v-6h8.5V16.2
		H98.6z"/>
	<path class="st1" d="M152.5,16.5v25.6H145v-10H139v7.5c0,1.4-0.7,2.1-2.2,2.1h-12c-2.5,0-3.7-0.4-5.1-1.7l-1.8-1.8
		c-1.2-1.3-1.7-2.1-1.7-4.3V16.8h7.7v6.5h7.3v-6.5h7.8v9.4h5.9v-9.8H152.5z M165.3,58.9l-3.1,5.5c-6.7-2.5-13.3-5.4-17.9-8.1
		c-0.8-0.4-1.4-0.8-1.7-1.3c-0.2,0.5-0.7,0.8-1.5,1.3c-4.9,2.7-11.5,5.8-18,8.3l-3.1-5.7c6.2-2.3,12.1-4.8,17.1-7.6
		c1.2-0.6,1.7-1.6,1.7-2.7v-4.1h7.9v4.1c0,1.2,0.4,2.1,1.7,2.8C153.2,54,159.3,56.5,165.3,58.9z M131.3,35.7v-6.5H124v4.3
		c0,0.6,0.1,0.8,0.4,1.1l0.8,0.8c0.2,0.3,0.6,0.4,1.1,0.4H131.3z M163.8,16.2v30.5h-7.6V16.2H163.8z"/>
</g>
</svg>
