<?xml version="1.0" encoding="utf-8"?>
<!-- Generator: Adobe Illustrator 25.2.3, SVG Export Plug-In . SVG Version: 6.00 Build 0)  -->
<svg version="1.1" id="Layer_1" xmlns="http://www.w3.org/2000/svg" xmlns:xlink="http://www.w3.org/1999/xlink" x="0px" y="0px"
	 viewBox="0 0 91.8 32" style="enable-background:new 0 0 91.8 32;" xml:space="preserve">
<style type="text/css">
	.st0{fill:#C9252C;}
</style>
<g>
	<polygon class="st0" points="88.8,3.2 88.8,0 86,0 86,3.2 82.9,3.2 82.9,5.7 86,5.7 86,8.8 88.8,8.8 88.8,5.7 91.8,5.7 91.8,3.2 	
		"/>
	<g>
		<path d="M14.6,20.4H4.5c-1.3,0-1.8-0.2-2.5-0.8l-1.1-1.1C0.2,17.9,0,17.5,0,16.4V9.6c0-0.7,0.4-1,1.1-1h12.4v3H4v4.6
			c0,0.3,0.1,0.4,0.2,0.5l0.7,0.7c0.1,0.2,0.3,0.2,0.5,0.2h9.1V20.4z M21.5,31.8h-3.9v-6.3H1.3v-3h19.1c0.8,0,1.1,0.3,1.1,1V31.8z
			 M21.5,8v4.9H25v3h-3.5v5.3h-3.9V8H21.5z"/>
		<path d="M31.7,29.5c-1.2,0-1.7-0.1-2.5-0.9l-1.4-1.4c-0.7-0.7-0.9-1.1-0.9-2.3V9.6c0-0.7,0.3-1,1.1-1h12.4v3h-9.5v5.5h8.3v3h-8.3
			v4.4c0,0.3,0.1,0.5,0.3,0.7l0.9,1c0.2,0.2,0.4,0.3,0.7,0.3h8.7v3H31.7z M48.9,8v23.3H45V19.8h-4.2v-3H45V8H48.9z"/>
		<path d="M75.6,8.2v12.7h-3.7v-5h-2.9v3.7c0,0.7-0.4,1.1-1.1,1.1h-6c-1.3,0-1.8-0.2-2.5-0.8l-0.9-0.9c-0.6-0.6-0.9-1-0.9-2.1V8.3
			h3.8v3.2h3.6V8.3h3.9V13h2.9V8.2H75.6z M81.9,29.2l-1.5,2.7c-3.3-1.3-6.6-2.7-8.9-4c-0.4-0.2-0.7-0.4-0.8-0.7
			c-0.1,0.3-0.3,0.4-0.8,0.7c-2.4,1.3-5.7,2.9-8.9,4.1l-1.6-2.8c3.1-1.1,6-2.4,8.5-3.8c0.6-0.3,0.8-0.8,0.8-1.4v-2h3.9v2
			c0,0.6,0.2,1.1,0.8,1.4C75.9,26.8,78.9,28,81.9,29.2z M65.1,17.7v-3.2h-3.6v2.1c0,0.3,0,0.4,0.2,0.5l0.4,0.4
			c0.1,0.1,0.3,0.2,0.5,0.2H65.1z M81.2,8v15.1h-3.8V8H81.2z"/>
	</g>
</g>
</svg>
