<svg width="1440" height="726" viewBox="0 0 1440 726" fill="none" xmlns="http://www.w3.org/2000/svg">
<rect width="1440" height="726" fill="white"/>
<path d="M458.765 200.908C458.765 208.086 462.798 215.742 473.394 218.887L468.335 226.543C461.465 224.424 456.748 220.151 453.979 214.785C451.074 220.698 446.152 225.381 438.872 227.705L433.813 219.98C444.546 216.699 448.784 208.564 448.784 200.908H436.411V193.047H470.796V200.908H458.765ZM486.45 188.877V233.994H476.606V188.877H486.45ZM488.022 242.676V250.537H443.931V229.961H453.911V242.676H488.022ZM551.597 236.797V244.795H494.243V236.797H508.462V227.91H500.669V206.309H535.464V200.566H500.601V192.705H545.171V214.102H510.513V219.98H546.606V227.91H538.13V236.797H551.597ZM518.032 236.797H528.423V227.91H518.032V236.797ZM607.72 188.809V251.562H597.739V188.809H607.72ZM588.853 195.303C588.853 214.648 582.7 230.371 559.868 241.104L554.741 233.311C570.703 225.757 577.402 216.494 578.804 202.959H558.296V195.303H588.853ZM672.524 222.168V229.961H615.171V222.168H639.028V218.34H622.212V200.43H655.845V197.49H622.144V189.902H665.757V207.471H631.987V210.82H666.851V218.34H648.735V222.168H672.524ZM666.099 233.105V251.357H656.187V240.83H621.597V233.105H666.099ZM745.942 188.809V251.562H736.509V188.809H745.942ZM732.476 189.766V248.828H723.384V219.365H712.925V211.367H723.384V189.766H732.476ZM717.231 195.713V203.574H702.739V229.756C708.789 229.722 713.677 229.38 719.214 228.252L719.897 236.25C712.856 237.617 706.499 237.891 697.544 237.891H693.101V195.713H717.231ZM804.595 188.809V251.699H794.683V188.809H804.595ZM770.347 193.115C779.849 193.115 786.958 201.797 787.026 215.537C786.958 229.482 779.849 238.164 770.347 238.164C760.64 238.164 753.53 229.482 753.53 215.537C753.53 201.797 760.64 193.115 770.347 193.115ZM770.347 202.002C765.903 202.002 763.032 206.582 763.101 215.537C763.032 224.629 765.903 229.209 770.347 229.209C774.653 229.209 777.524 224.629 777.524 215.537C777.524 206.582 774.653 202.002 770.347 202.002ZM865.571 188.809V251.699H855.864V218.34H845.542V210.479H855.864V188.809H865.571ZM844.585 193.936V201.865H825.103V211.367H842.466V219.023H825.103V229.756C832.998 229.722 839.766 229.414 847.183 228.32L848.14 236.113C838.979 237.48 830.571 237.754 820.317 237.822H815.259V193.936H844.585ZM923.813 193.252V197.422C923.813 201.865 923.813 208.086 922.446 215.742L912.808 214.854C913.799 209.282 914.072 204.907 914.175 201.25H891.206V193.252H923.813ZM908.364 207.949V219.502C914.414 219.229 920.566 218.75 926.274 217.93L926.753 224.971C913.765 227.432 899.204 227.637 888.403 227.637L887.583 219.912C890.898 219.912 894.624 219.912 898.589 219.844V207.949H908.364ZM939.468 188.809V207.539H946.577V215.674H939.468V235.703H929.351V188.809H939.468ZM941.382 242.676V250.537H896.606V231.533H906.519V242.676H941.382ZM1001.81 188.809V251.699H992.036V188.809H1001.81ZM982.261 193.936V218.682H962.505V229.072C971.768 229.004 979.492 228.525 988.071 227.09L988.892 235.02C978.979 236.797 969.751 237.207 958.062 237.207H952.319V210.957H972.212V201.797H952.319V193.936H982.261Z" fill="#666666"/>
<path d="M546.833 317.936V323.814C546.833 331.676 546.833 340.631 544.304 354.166L534.323 353.141C536.716 341.656 536.887 332.94 536.989 325.729H500.622V317.936H546.833ZM551.96 360.318V368.248H494.743V360.318H514.636V338.99H524.411V360.318H551.96ZM609.313 312.877V349.518H599.948V334.82H595.3V349.312H586.071V313.971H595.3V326.822H599.948V312.877H609.313ZM609.313 351.842V375.562H599.47V359.703H565.153V351.842H609.313ZM582.517 317.047C582.517 333.111 575.271 343.57 558.796 349.928L554.147 342.613C565.632 338.58 571.135 332.735 572.468 324.908H557.429V317.047H582.517ZM666.667 317.252V321.422C666.667 325.865 666.667 332.086 665.3 339.742L655.661 338.854C656.652 333.282 656.926 328.907 657.028 325.25H634.06V317.252H666.667ZM651.218 331.949V343.502C657.268 343.229 663.42 342.75 669.128 341.93L669.606 348.971C656.618 351.432 642.058 351.637 631.257 351.637L630.437 343.912C633.752 343.912 637.478 343.912 641.442 343.844V331.949H651.218ZM682.321 312.809V331.539H689.431V339.674H682.321V359.703H672.204V312.809H682.321ZM684.235 366.676V374.537H639.46V355.533H649.372V366.676H684.235ZM744.665 312.809V375.699H734.89V312.809H744.665ZM725.114 317.936V342.682H705.358V353.072C714.621 353.004 722.346 352.525 730.925 351.09L731.745 359.02C721.833 360.797 712.604 361.207 700.915 361.207H695.173V334.957H715.065V325.797H695.173V317.936H725.114ZM792.312 326.139C792.312 338.102 796.208 349.586 807.077 354.166L801.13 362.027C794.294 358.746 789.919 352.97 787.39 345.689C784.689 353.448 780.109 359.771 773.034 363.189L766.882 355.123C778.093 350.133 782.263 338.033 782.331 326.139V317.457H792.312V326.139ZM821.228 312.809V375.699H811.521V339.947H800.036V332.018H811.521V312.809H821.228ZM881.247 312.809V375.699H871.335V312.809H881.247ZM841.394 317.73V332.564H853.22V317.73H862.927V361.207H831.481V317.73H841.394ZM841.394 353.209H853.22V340.152H841.394V353.209ZM922.604 320.738C922.536 329.488 929.372 339.4 944.616 341.93L940.31 350.064C929.099 347.945 921.374 341.998 917.341 334.273C913.273 341.93 905.515 347.911 894.372 350.064L890.202 341.93C905.104 339.332 912.009 329.352 912.077 320.738V316.363H922.604V320.738ZM946.394 360.045V368.111H889.04V360.045H946.394Z" fill="black"/>
<path d="M518.75 444.396V452.189H466.318V444.396H487.578V437.424H497.422V444.396H518.75ZM521.348 485.754V493.547H463.994V485.754H477.256V475.773C473.086 473.723 470.762 470.544 470.762 466.477C470.762 458.82 479.102 454.309 492.5 454.24C505.83 454.309 514.102 458.82 514.102 466.477C514.102 470.544 511.812 473.723 507.676 475.773V485.754H521.348ZM492.5 461.828C484.775 461.828 480.947 463.264 480.947 466.477C480.947 469.689 484.775 471.125 492.5 471.057C500.02 471.125 503.984 469.689 503.984 466.477C503.984 463.264 500.02 461.828 492.5 461.828ZM487.168 485.754H498.037V478.371C496.294 478.542 494.448 478.645 492.5 478.645C490.62 478.645 488.843 478.542 487.168 478.371V485.754ZM553.066 437.287C567.695 437.355 576.035 441.115 576.104 448.02C576.035 454.924 567.695 458.615 553.066 458.684C538.438 458.615 530.029 454.924 530.029 448.02C530.029 441.115 538.438 437.355 553.066 437.287ZM553.066 444.533C544.248 444.533 540.352 445.559 540.352 448.02C540.352 450.617 544.248 451.506 553.066 451.506C562.021 451.506 565.918 450.617 565.918 448.02C565.918 445.559 562.021 444.533 553.066 444.533ZM581.709 460.871V468.527H567.9V472.355H574.873V488.967H540.693V491.838H576.377V499.221H530.986V482.131H565.098V479.465H530.986V472.355H538.506V468.527H524.492V460.871H581.709ZM548.213 472.355H558.125V468.527H548.213V472.355ZM621.221 440.09V447.883H609.326C609.668 454.719 613.667 461.726 623.34 464.904L618.555 472.492C611.685 470.373 607.07 466.101 604.336 460.734C601.602 466.647 596.782 471.433 589.502 473.723L584.443 465.998C594.697 462.785 598.833 455.129 599.209 447.883H587.178V440.09H621.221ZM638.105 476.73V499.562H628.33V484.523H594.766V476.73H638.105ZM638.105 436.809V474.133H628.33V459.504H619.512V451.506H628.33V436.809H638.105ZM698.193 436.877V481.721H688.35V436.877H698.193ZM699.766 490.676V498.537H655.674V477.209H665.654V490.676H699.766ZM663.672 440.773C673.379 440.773 681.035 447.473 681.035 456.701C681.035 466.135 673.379 472.766 663.672 472.766C653.965 472.766 646.24 466.135 646.309 456.701C646.24 447.473 653.965 440.773 663.672 440.773ZM663.672 449.318C659.229 449.25 655.879 451.984 655.879 456.701C655.879 461.623 659.229 464.221 663.672 464.221C667.91 464.221 671.26 461.623 671.26 456.701C671.26 451.984 667.91 449.25 663.672 449.318ZM734.082 440.637V448.566H744.746V440.637H754.453V445.764H764.98V436.809H774.756V474.133H764.98V466.34H754.453V470.852H724.17V440.637H734.082ZM734.082 463.264H744.746V456.086H734.082V463.264ZM753.086 475.158C766.621 475.158 774.893 479.67 774.961 487.463C774.893 495.119 766.621 499.631 753.086 499.562C739.688 499.631 731.416 495.119 731.416 487.463C731.416 479.67 739.688 475.158 753.086 475.158ZM753.086 482.609C745.225 482.609 741.191 484.045 741.191 487.463C741.191 490.676 745.225 492.111 753.086 492.18C761.084 492.111 765.117 490.676 765.186 487.463C765.117 484.045 761.084 482.609 753.086 482.609ZM754.453 458.479H764.98V453.488H754.453V458.479ZM835.732 436.877V484.182H825.82V479.67H814.131V473.039H825.82V436.877H835.732ZM837.031 490.676V498.537H789.59V479.67H798.203V471.74C792.803 471.945 787.642 472.014 783.027 472.014L781.934 464.289C793.418 464.152 808.799 464.016 821.992 462.375L822.539 469.348C817.822 470.168 812.935 470.749 808.115 471.125V482.883H799.434V490.676H837.031ZM802.236 438.859C811.396 438.859 817.959 443.576 817.959 450.207C817.959 456.975 811.396 461.35 802.236 461.35C792.939 461.35 786.445 456.975 786.445 450.207C786.445 443.576 792.939 438.859 802.236 438.859ZM802.236 446.037C798.34 446.037 795.742 447.404 795.742 450.207C795.742 452.941 798.34 454.309 802.236 454.309C805.928 454.309 808.594 452.941 808.662 450.207C808.594 447.404 805.928 446.037 802.236 446.037ZM915.576 466.955V474.68H892.402V485.002H882.422V474.68H858.223V466.955H915.576ZM909.287 490.607V498.537H864.854V479.602H874.766V490.607H909.287ZM886.865 437.902C900.537 437.971 909.697 443.029 909.697 451.027C909.697 459.094 900.537 464.084 886.865 464.084C873.193 464.084 863.965 459.094 863.965 451.027C863.965 443.029 873.193 437.971 886.865 437.902ZM886.865 445.627C879.346 445.627 874.561 447.404 874.629 451.027C874.561 454.514 879.346 456.291 886.865 456.291C894.453 456.291 899.102 454.514 899.102 451.027C899.102 447.404 894.453 445.627 886.865 445.627ZM936.357 440.09C941.245 440.09 945.518 441.833 948.594 444.807H962.129V436.809H971.904V473.449H962.129V466.408H948.525C945.483 469.348 941.211 471.091 936.357 471.057C926.787 471.125 919.473 464.494 919.541 455.607C919.473 446.584 926.787 440.09 936.357 440.09ZM936.357 448.498C931.914 448.43 928.838 450.891 928.838 455.607C928.838 460.119 931.914 462.785 936.357 462.785C940.596 462.785 943.672 460.119 943.672 455.607C943.672 450.891 940.596 448.43 936.357 448.498ZM950.234 474.68C963.633 474.611 972.041 479.26 972.109 487.121C972.041 494.982 963.633 499.631 950.234 499.562C936.973 499.631 928.564 494.982 928.564 487.121C928.564 479.26 936.973 474.611 950.234 474.68ZM950.234 482.131C942.373 482.131 938.203 483.703 938.203 487.121C938.203 490.471 942.373 491.975 950.234 491.975C958.369 491.975 962.402 490.471 962.471 487.121C962.402 483.703 958.369 482.131 950.234 482.131ZM952.764 458.615H962.129V452.6H952.764C952.935 453.557 953.037 454.582 953.037 455.607C953.037 456.633 952.935 457.658 952.764 458.615Z" fill="black"/>
<path d="M450.125 573.258C446.375 573.258 444.078 570.68 444.078 566.719C444.078 562.805 446.422 560.109 449.961 560.109C452.867 560.109 455.609 561.914 455.609 566.508V567.398H446.562C446.633 569.812 448.051 571.195 450.148 571.195C451.578 571.195 452.492 570.586 452.914 569.812H455.445C454.883 571.875 452.914 573.258 450.125 573.258ZM446.586 565.523H453.148C453.148 563.578 451.906 562.172 449.984 562.172C447.98 562.172 446.68 563.719 446.586 565.523ZM458.094 573V560.273H460.508V562.359H460.648C461.188 560.93 462.43 560.109 464.117 560.109C465.805 560.109 467 560.953 467.539 562.359H467.68C468.289 560.977 469.648 560.109 471.5 560.109C473.797 560.109 475.438 561.562 475.438 564.469V573H472.93V564.703C472.93 562.992 471.852 562.266 470.539 562.266C468.922 562.266 468.008 563.367 468.008 564.891V573H465.523V564.562C465.523 563.18 464.562 562.266 463.203 562.266C461.797 562.266 460.602 563.438 460.602 565.148V573H458.094ZM478.461 573V560.273H480.875V562.289H481.016C481.484 560.93 482.75 560.086 484.25 560.086C484.555 560.086 485.047 560.109 485.305 560.133V562.523C485.094 562.477 484.508 562.383 483.992 562.383C482.258 562.383 480.969 563.578 480.969 565.242V573H478.461ZM503.211 554.93V556.594C503.211 558.223 503.211 560.062 502.742 562.43H505.555V564.234H486.453V562.43H500.516C500.691 561.562 500.809 560.777 500.891 560.039L488.586 560.555L488.305 558.82L500.984 558.469C501.008 557.848 501.008 557.273 501.008 556.711H488.844V554.93H503.211ZM503.352 565.992V571.078H490.906V572.977H504.102V574.734H488.68V569.414H501.148V567.703H488.633V565.992H503.352ZM523.531 553.992V562.195H526.906V564.07H523.531V575.039H521.328V553.992H523.531ZM517.602 555.891V563.602H510.242V568.148C513.852 568.137 516.523 568.008 519.594 567.445L519.805 569.25C516.523 569.859 513.688 570 509.75 570.023H508.039V561.797H515.398V557.695H507.992V555.891H517.602ZM547.109 565.922V567.773H538.531V574.992H536.352V567.773H527.891V565.922H547.109ZM537.453 554.789C541.883 554.789 544.93 556.594 544.93 559.453C544.93 562.289 541.883 564.07 537.453 564.07C533 564.07 529.977 562.289 529.977 559.453C529.977 556.594 533 554.789 537.453 554.789ZM537.453 556.57C534.336 556.594 532.25 557.672 532.273 559.453C532.25 561.211 534.336 562.289 537.453 562.289C540.57 562.289 542.656 561.211 542.656 559.453C542.656 557.672 540.57 556.594 537.453 556.57ZM565.672 563.953V565.781H551.047V555.867H565.484V557.695H553.25V563.953H565.672ZM567.875 570.375V572.227H548.656V570.375H567.875ZM592.719 553.992V574.992H590.469V553.992H592.719ZM586.461 556.242C586.461 562.383 583.836 567.727 576.641 571.172L575.469 569.367C581.059 566.707 583.777 562.922 584.211 558.023H576.477V556.242H586.461ZM606.711 554.789C606.711 557.203 610.039 559.219 614.141 559.688L613.367 561.375C609.922 560.965 606.91 559.512 605.562 557.367C604.203 559.512 601.191 560.965 597.781 561.375L597.008 559.688C601.109 559.219 604.438 557.203 604.438 554.789V554.086H606.711V554.789ZM615.148 562.594V564.375H606.664V566.25H612.734V571.219H600.5V573.07H613.32V574.781H598.32V569.602H610.531V567.961H598.297V566.25H604.438V564.375H596V562.594H615.148ZM628.438 556.242V557.531C628.438 559.289 628.438 562.008 627.828 565.758L625.625 565.594C626.152 562.23 626.211 559.805 626.234 558.047H617.703V556.242H628.438ZM623.047 562.242V568.523C625.285 568.453 627.559 568.301 629.656 568.031L629.773 569.695C625.391 570.398 620.516 570.492 616.789 570.469L616.531 568.664C617.844 568.652 619.309 568.641 620.844 568.594V562.242H623.047ZM633.102 553.992V562.664H636.312V564.562H633.102V574.992H630.852V553.992H633.102ZM659.844 553.992V559.43H662.891V561.328H659.844V566.648H657.617V553.992H659.844ZM659.844 567.75V574.734H646.438V567.75H659.844ZM648.617 569.508V572.93H657.641V569.508H648.617ZM655.883 556.125V557.906H643.367V556.125H648.523V553.828H650.75V556.125H655.883ZM649.625 558.82C652.648 558.82 654.711 560.32 654.711 562.57C654.711 564.844 652.648 566.32 649.625 566.344C646.555 566.32 644.516 564.844 644.516 562.57C644.516 560.32 646.555 558.82 649.625 558.82ZM649.625 560.531C647.844 560.508 646.648 561.305 646.672 562.57C646.648 563.883 647.844 564.656 649.625 564.656C651.406 564.656 652.602 563.883 652.625 562.57C652.602 561.305 651.406 560.508 649.625 560.531ZM669.289 556.477C669.266 561.188 668.68 566.039 665.75 570.164L664.016 569.18C666.465 565.898 667.203 562.266 667.367 558.305H664.508V556.477H669.289ZM673.953 556.477C673.953 558.246 673.918 560.18 673.695 562.125H676.156V554.531H678.266V573.961H676.156V563.93H673.438C672.957 566.543 672.078 569.133 670.461 571.43L668.727 570.422C671.445 566.777 671.938 562.359 672.031 558.305H669.922V556.477H673.953ZM682.25 553.992V574.992H680.117V553.992H682.25ZM698.398 559.336C698.375 563.18 700.695 567.023 703.953 568.477L702.617 570.234C700.203 569.086 698.293 566.73 697.32 563.859C696.336 566.93 694.402 569.473 691.883 570.703L690.523 568.828C693.828 567.352 696.148 563.344 696.148 559.336V555.75H698.398V559.336ZM708.078 553.992V575.039H705.852V553.992H708.078ZM718.766 557.766C718.766 560.438 720.617 562.992 723.828 564.07L722.703 565.805C720.324 564.984 718.578 563.344 717.664 561.281C716.75 563.555 714.934 565.336 712.461 566.203L711.266 564.469C714.547 563.344 716.516 560.648 716.539 557.742V557.18H711.922V555.375H723.289V557.18H718.766V557.766ZM727.93 553.992V559.383H730.977V561.258H727.93V566.648H725.703V553.992H727.93ZM727.93 567.68V574.992H725.703V569.484H714.055V567.68H727.93ZM748.672 554.016V560.766H751.719V562.617H748.672V569.719H746.445V554.016H748.672ZM744.711 556.453V558.258H732.195V556.453H737.352V553.992H739.578V556.453H744.711ZM738.453 559.266C741.477 559.266 743.539 560.836 743.539 563.227C743.539 565.617 741.477 567.164 738.453 567.164C735.406 567.164 733.344 565.617 733.344 563.227C733.344 560.836 735.406 559.266 738.453 559.266ZM738.453 560.977C736.672 560.977 735.477 561.844 735.5 563.227C735.477 564.586 736.672 565.43 738.453 565.43C740.234 565.43 741.43 564.586 741.453 563.227C741.43 561.844 740.234 560.977 738.453 560.977ZM749.562 572.742V574.547H735.359V568.477H737.586V572.742H749.562ZM762.008 555.281V558.469H767.258V555.281H769.461V557.32H774.055V553.992H776.281V566.672H774.055V563.438H769.461V565.219H759.781V555.281H762.008ZM762.008 563.438H767.258V560.227H762.008V563.438ZM769.25 567.047C773.656 567.07 776.352 568.5 776.352 571.031C776.352 573.516 773.656 574.969 769.25 574.945C764.844 574.969 762.125 573.516 762.148 571.031C762.125 568.5 764.844 567.07 769.25 567.047ZM769.25 568.758C766.18 568.781 764.352 569.578 764.352 571.031C764.352 572.438 766.18 573.234 769.25 573.234C772.32 573.234 774.148 572.438 774.148 571.031C774.148 569.578 772.32 568.781 769.25 568.758ZM769.461 561.609H774.055V559.102H769.461V561.609ZM796.977 554.016V569.93H794.75V567.914H790.531V566.344H794.75V554.016H796.977ZM797.492 572.742V574.547H782.328V568.383H784.531V572.742H797.492ZM779.422 563.602C783.312 563.578 788.539 563.531 793.016 562.969L793.156 564.562C791.363 564.855 789.477 565.055 787.625 565.172V569.273H785.398V565.289C783.359 565.383 781.402 565.395 779.703 565.383L779.422 563.602ZM786.289 554.812C789.359 554.812 791.492 556.289 791.492 558.516C791.492 560.742 789.359 562.172 786.289 562.172C783.172 562.172 781.062 560.742 781.062 558.516C781.062 556.289 783.172 554.812 786.289 554.812ZM786.289 556.477C784.414 556.453 783.148 557.25 783.172 558.516C783.148 559.758 784.414 560.531 786.289 560.531C788.094 560.531 789.359 559.758 789.383 558.516C789.359 557.25 788.094 556.453 786.289 556.477ZM819.406 564.961V566.742H800.258V564.961H819.406ZM817.25 572.742V574.547H802.672V568.453H804.922V572.742H817.25ZM809.82 554.695C814.367 554.672 817.32 556.266 817.32 558.891C817.32 561.539 814.367 563.133 809.82 563.156C805.25 563.133 802.32 561.539 802.32 558.891C802.32 556.266 805.25 554.672 809.82 554.695ZM809.82 556.477C806.609 556.477 804.594 557.391 804.617 558.891C804.594 560.438 806.609 561.328 809.82 561.328C813.031 561.328 815.023 560.438 815.023 558.891C815.023 557.391 813.031 556.477 809.82 556.477ZM846.078 570.516V572.367H826.859V570.516H835.32V565.664H829.062V555.68H843.781V565.664H837.523V570.516H846.078ZM831.219 557.461V563.906H841.602V557.461H831.219ZM864.43 561.727V563.484H850.18V555.188H864.172V556.992H852.43V561.727H864.43ZM866.797 566.039V567.844H858.219V574.945H856.039V567.844H847.578V566.039H866.797ZM881.656 557.133C881.656 560.086 883.555 562.711 886.742 563.742L885.523 565.477C883.215 564.645 881.516 563.027 880.602 560.93C879.688 563.332 877.859 565.195 875.328 566.109L874.133 564.328C877.484 563.18 879.43 560.391 879.453 557.227V555.164H881.656V557.133ZM891.711 553.992V566.391H889.484V560.086H885.055V558.258H889.484V553.992H891.711ZM884.68 566.977C889.086 566.977 891.781 568.43 891.781 570.984C891.781 573.516 889.086 574.969 884.68 574.945C880.273 574.969 877.555 573.516 877.578 570.984C877.555 568.43 880.273 566.977 884.68 566.977ZM884.68 568.711C881.609 568.711 879.781 569.531 879.781 570.984C879.781 572.391 881.609 573.188 884.68 573.188C887.75 573.188 889.578 572.391 889.578 570.984C889.578 569.531 887.75 568.711 884.68 568.711ZM904.414 567.188C908.961 567.188 911.82 568.617 911.844 571.078C911.82 573.516 908.961 574.969 904.414 574.945C899.914 574.969 897.031 573.516 897.031 571.078C897.031 568.617 899.914 567.188 904.414 567.188ZM904.414 568.875C901.227 568.875 899.234 569.695 899.258 571.078C899.234 572.438 901.227 573.234 904.414 573.234C907.625 573.234 909.617 572.438 909.641 571.078C909.617 569.695 907.625 568.875 904.414 568.875ZM911.68 555.023V556.781C911.68 558.469 911.68 560.203 911.094 562.359L908.914 562.125C909.477 559.98 909.477 558.434 909.477 556.805H897.195V555.023H911.68ZM914.07 563.648V565.453H894.969V563.648H902.633V559.711H904.812V563.648H914.07ZM933.594 554.016V567H931.484V561.469H929.094V566.695H927.008V554.32H929.094V559.664H931.484V554.016H933.594ZM926.188 556.266V558.047H915.57V556.266H919.812V554.086H922.016V556.266H926.188ZM920.891 558.984C923.562 558.984 925.438 560.414 925.438 562.617C925.438 564.773 923.562 566.227 920.891 566.227C918.266 566.227 916.391 564.773 916.391 562.617C916.391 560.414 918.266 558.984 920.891 558.984ZM920.891 560.625C919.414 560.625 918.383 561.375 918.383 562.617C918.383 563.812 919.414 564.586 920.891 564.586C922.414 564.586 923.422 563.812 923.422 562.617C923.422 561.375 922.391 560.625 920.891 560.625ZM923.328 568.242C923.305 569.965 924.184 571.734 926.07 572.789C927.957 571.652 928.883 569.754 928.883 568.242V567.609H931.086V568.242C931.086 570.258 932.539 572.273 935.258 573.047L934.203 574.734C932.117 574.055 930.699 572.695 929.984 571.031C929.305 572.648 928.051 574.16 926.117 574.922C924.113 574.195 922.848 572.777 922.203 571.125C921.43 572.719 920.012 574.043 918.031 574.734L916.977 573.047C919.648 572.203 921.125 570.141 921.148 568.242V567.609H923.328V568.242ZM941 566.578V568.805H950.867V566.578H953.094V574.734H938.797V566.578H941ZM941 572.953H950.867V570.539H941V572.953ZM955.578 563.414V565.266H936.43V563.414H955.578ZM947.141 555.117C947.141 557.531 950.492 559.875 954.523 560.367L953.727 562.125C950.316 561.645 947.352 560.039 946.016 557.812C944.645 560.051 941.668 561.645 938.305 562.125L937.461 560.367C941.539 559.852 944.867 557.602 944.867 555.117V554.227H947.141V555.117ZM974.609 553.992V574.992H972.383V553.992H974.609ZM960.664 556.031V567.727C963.723 567.703 966.945 567.457 970.32 566.766L970.625 568.641C966.898 569.391 963.523 569.648 960.219 569.648H958.461V556.031H960.664ZM994.273 553.992V562.125H997.648V563.953H994.273V575.039H992.047V553.992H994.273ZM988.625 556.008V557.812H981.031V567.961C984.559 567.949 987.207 567.797 990.195 567.258L990.477 569.133C987.195 569.719 984.406 569.836 980.492 569.812H978.805V556.008H988.625Z" fill="#0092FF"/>
</svg>
